<?xml version="1.0" encoding="UTF-8" standalone="no"?>
<!-- Created with Inkscape (http://www.inkscape.org/) -->

<svg
   xmlns:dc="http://purl.org/dc/elements/1.1/"
   xmlns:cc="http://creativecommons.org/ns#"
   xmlns:rdf="http://www.w3.org/1999/02/22-rdf-syntax-ns#"
   xmlns:svg="http://www.w3.org/2000/svg"
   xmlns="http://www.w3.org/2000/svg"
   xmlns:sodipodi="http://sodipodi.sourceforge.net/DTD/sodipodi-0.dtd"
   xmlns:inkscape="http://www.inkscape.org/namespaces/inkscape"
   version="1.1"
   id="svg10"
   xml:space="preserve"
   width="3994.6667"
   height="928"
   viewBox="0 0 3994.6667 928"
   sodipodi:docname="digilent-logo_ni-color_on_white.svg"
   inkscape:version="0.92.2 (5c3e80d, 2017-08-06)"><metadata
     id="metadata16"><rdf:RDF><cc:Work
         rdf:about=""><dc:format>image/svg+xml</dc:format><dc:type
           rdf:resource="http://purl.org/dc/dcmitype/StillImage" /><dc:title></dc:title></cc:Work></rdf:RDF></metadata><defs
     id="defs14" /><sodipodi:namedview
     pagecolor="#ffffff"
     bordercolor="#666666"
     borderopacity="1"
     objecttolerance="10"
     gridtolerance="10"
     guidetolerance="10"
     inkscape:pageopacity="0"
     inkscape:pageshadow="2"
     inkscape:window-width="1920"
     inkscape:window-height="1137"
     id="namedview12"
     showgrid="false"
     inkscape:zoom="0.26"
     inkscape:cx="3119.1323"
     inkscape:cy="567.84477"
     inkscape:window-x="-8"
     inkscape:window-y="-8"
     inkscape:window-maximized="1"
     inkscape:current-layer="g18" /><g
     id="g18"
     inkscape:groupmode="layer"
     inkscape:label="ink_ext_XXXXXX"
     transform="matrix(1.3333333,0,0,-1.3333333,0,928)"><g
       id="g20"
       transform="scale(0.1)"><g
         id="g22"
         transform="scale(1.83804)"><path
           d="M 15784.6,0 H 515.385 C 231.922,0 0,231.922 0,515.387 V 3271.26 c 0,283.47 231.922,515.39 515.385,515.39 H 15784.6 c 283.5,0 515.4,-231.92 515.4,-515.39 V 515.387 C 16300,231.922 16068.1,0 15784.6,0"
           style="fill:#ffffff;fill-opacity:1;fill-rule:nonzero;stroke:none"
           id="path24"
           inkscape:connector-curvature="0" /></g><path
         d="m 7820.63,3347.49 c 867.1,0 990.19,711.4 990.19,958 0,246.61 -123.09,953.24 -990.19,953.24 H 7322.89 V 3347.49 Z M 6471.88,2640.88 v 3319.75 h 1348.75 c 1423.72,0 1857.26,-962.71 1857.26,-1655.14 0,-711.39 -433.54,-1664.61 -1857.26,-1664.61 H 6471.88"
         style="fill:#393536;fill-opacity:1;fill-rule:nonzero;stroke:none"
         id="path26"
         inkscape:connector-curvature="0" /><path
         d="m 10992.9,2640.88 h -856.3 v 3319.75 h 856.3 V 2640.88"
         style="fill:#393536;fill-opacity:1;fill-rule:nonzero;stroke:none"
         id="path28"
         inkscape:connector-curvature="0" /><path
         d="m 13137.6,3776.73 v 678.71 h 1573.6 V 3139.55 c -369.3,-318.58 -808.2,-498.67 -1397,-498.67 -1423.7,0 -1862.6,969.63 -1862.6,1662.2 0,674.11 438.9,1657.55 1862.6,1657.55 610.2,0 1049.1,-217 1423.7,-563.27 l -529.8,-498.66 c -219.5,193.9 -599.5,364.76 -893.9,364.76 -867,0 -990.1,-711.04 -990.1,-951.13 0,-240.11 123.1,-988.08 990.1,-988.08 182,0 412.2,55.41 535.3,133.9 v 318.58 h -711.9"
         style="fill:#393536;fill-opacity:1;fill-rule:nonzero;stroke:none"
         id="path30"
         inkscape:connector-curvature="0" /><path
         d="m 16053,2640.88 h -856.3 V 5960.63 H 16053 V 2640.88"
         style="fill:#393536;fill-opacity:1;fill-rule:nonzero;stroke:none"
         id="path32"
         inkscape:connector-curvature="0" /><g
         id="g34"
         transform="scale(1.14893)"><path
           d="M 15121.4,2913.56 H 16300 v -615.01 h -1928.7 v 2889.42 h 750.1 V 2913.56"
           style="fill:#393536;fill-opacity:1;fill-rule:nonzero;stroke:none"
           id="path36"
           inkscape:connector-curvature="0" /></g><g
         id="g38"
         transform="scale(1.336)"><path
           d="m 15002,2938.7 v -433.1 h 1298 v -528.89 h -1939 v 2484.84 h 1939 V 3932.62 H 15002 V 3467.6 h 1013.6 V 2938.7 H 15002"
           style="fill:#393536;fill-opacity:1;fill-rule:nonzero;stroke:none"
           id="path40"
           inkscape:connector-curvature="0" /></g><g
         id="g42"
         transform="scale(1.55459)"><path
           d="m 14334.1,3834.21 1415,-1084.16 V 3807.33 H 16300 V 1710.72 l -27.5,-11.96 -1415.1,1093.1 V 1716.7 h -554.3 v 2108.56 l 31,8.95"
           style="fill:#393536;fill-opacity:1;fill-rule:nonzero;stroke:none"
           id="path44"
           inkscape:connector-curvature="0" /></g><g
         id="g46"
         transform="scale(1.75644)"><path
           d="M 15245.6,2991.27 H 14688 v 402.32 h 1612 v -402.32 h -563.8 V 1503.54 h -490.6 v 1487.73"
           style="fill:#393536;fill-opacity:1;fill-rule:nonzero;stroke:none"
           id="path48"
           inkscape:connector-curvature="0" /></g><g
         id="g50"
         transform="scale(1.81845)"><path
           d="m 16120.1,3091.58 c 20.6,0.74 24.4,16.02 24.4,25.18 0,8.39 -3.8,25.18 -26,25.18 h -34.3 v -50.36 z m -35.9,-103.09 h -43.4 v 193.93 h 76.2 c 55.7,0 72.5,-38.96 72.5,-65.66 0,-24.44 -17.6,-47.33 -37.4,-58.78 l 39.6,-69.49 h -51 l -32.1,61.07 h -24.4 z m 167.8,96.19 c 0,80.94 -64.1,145.83 -144.9,145.83 -80.8,0 -144.9,-64.89 -144.9,-145.83 0,-80.92 64.1,-145.07 144.9,-145.07 80.8,0 144.9,64.15 144.9,145.07 z m 48,0 c 0,-106.89 -86.1,-193.17 -192.9,-193.17 -98.4,0 -192.9,82.47 -192.9,194.7 0,98.5 83.8,191.64 192.9,191.64 106.8,0 192.9,-86.27 192.9,-193.17"
           style="fill:#393536;fill-opacity:1;fill-rule:nonzero;stroke:none"
           id="path52"
           inkscape:connector-curvature="0" /></g><path
         d="m 5630.54,2392.09 c 22.22,38.53 26.18,74.05 11.2,100.01 -14.95,25.96 -47.68,40.24 -92.11,40.24 H 1780.6 1753.28 l 13.66,23.7 1251.96,2171.2 -305.38,529.64 L 914.613,2137.09 c -22.203,-38.52 -26.218,-74.04 -11.238,-100.04 14.977,-25.97 47.707,-40.26 92.141,-40.26 l 4227.134,0.04 c 47.57,0 102.07,16.34 153.43,46.05 51.36,29.69 92.77,68.77 116.56,110.01 l 137.9,239.2"
         style="fill:#1e4230;fill-opacity:1;fill-rule:nonzero;stroke:none"
         id="path54"
         inkscape:connector-curvature="0" /><path
         d="m 2700.06,5423.03 13.66,23.65 13.63,-23.65 1251.92,-2171.21 h 610.81 L 2791.13,6371.61 c -22.17,38.52 -50.9,59.74 -80.86,59.74 -29.95,0 -58.68,-21.22 -80.88,-59.74 L 515.844,2706.07 c -23.801,-41.25 -36.906,-96.66 -36.906,-156.06 0,-59.42 13.105,-114.83 36.906,-156.11 l 137.922,-239.18 c 22.187,-38.49 50.929,-59.72 80.859,-59.72 29.957,0 58.684,21.23 80.926,59.72 L 2700.06,5423.03"
         style="fill:#1f6632;fill-opacity:1;fill-rule:nonzero;stroke:none"
         id="path56"
         inkscape:connector-curvature="0" /><path
         d="m 5595.21,2767.05 -2113.62,3665.5 c -23.76,41.25 -65.15,80.32 -116.52,110.02 -51.35,29.71 -105.88,46.07 -153.45,46.07 h -275.79 c -44.46,0 -77.16,-14.3 -92.13,-40.3 -15.03,-25.98 -11.01,-61.5 11.19,-100.01 l 1884.52,-3268.27 13.69,-23.67 H 4725.75 2221.9 l -305.38,-529.67 3597.79,0.04 c 44.43,0 77.16,14.31 92.14,40.26 14.98,26 10.99,61.51 -11.24,100.03"
         style="fill:#57ac35;fill-opacity:1;fill-rule:nonzero;stroke:none"
         id="path58"
         inkscape:connector-curvature="0" /><path
         d="m 6819.83,1048.14 h 367.64 l -78.12,480.74 z m 251.82,615.17 h 144.09 l 187.19,-980.458 h -146.79 l -51.18,255.277 H 6753.85 L 6594.94,682.852 h -138.7 l 615.41,980.458"
         style="fill:#393536;fill-opacity:1;fill-rule:nonzero;stroke:none"
         id="path60"
         inkscape:connector-curvature="0" /><path
         d="m 8124.76,1663.31 h 187.16 l 308.37,-810.701 169.7,810.701 h 123.88 L 8707.84,682.852 H 8535.47 L 8216.31,1515.3 8041.25,682.852 h -122.53 l 206.04,980.458"
         style="fill:#393536;fill-opacity:1;fill-rule:nonzero;stroke:none"
         id="path62"
         inkscape:connector-curvature="0" /><path
         d="m 9346.43,1018.26 c -51.15,0 -243.73,0 -273.37,-138.498 -9.42,-43.453 1.37,-118.121 114.46,-118.121 64.67,0 118.52,25.757 160.27,73.328 37.7,46.133 47.13,84.191 70.01,179.221 -22.88,2.73 -40.4,4.07 -71.37,4.07 z m 16.16,-335.408 c -2.7,33.937 1.36,66.546 9.42,101.828 C 9287.19,672 9194.28,661.148 9137.7,661.148 c -154.85,0 -220.82,88.25 -196.61,200.973 12.12,54.309 48.49,141.219 160.25,199.589 82.15,40.79 189.88,44.85 243.76,44.85 32.3,0 52.51,-1.39 91.55,-4.06 17.51,84.18 25.6,120.85 6.75,150.73 -17.51,33.94 -71.39,44.79 -107.73,44.79 -127.94,0 -153.51,-88.25 -160.24,-115.4 h -126.61 c 12.12,35.28 25.61,82.8 74.09,128.98 63.28,57.03 162.92,73.33 234.31,73.33 98.3,0 196.61,-31.21 218.13,-100.49 13.48,-40.73 8.09,-73.33 1.36,-104.55 l -74.06,-325.941 c -2.7,-10.847 -20.21,-101.828 -25.58,-171.097 h -114.48"
         style="fill:#393536;fill-opacity:1;fill-rule:nonzero;stroke:none"
         id="path64"
         inkscape:connector-curvature="0" /><path
         d="m 9734.59,1367.29 h 119.86 l 29.61,142.56 134.64,40.78 -39.04,-183.34 h 150.84 l -20.2,-93.7 H 9959.48 L 9873.3,864.801 c -6.73,-33.942 -18.85,-90.981 71.36,-90.981 25.58,0 51.18,4.071 61.94,6.789 l -20.21,-99.097 c -24.21,-4.114 -60.58,-8.172 -106.37,-8.172 -115.82,0 -164.3,33.941 -141.39,145.332 l 95.61,454.918 h -119.86 l 20.21,93.7"
         style="fill:#393536;fill-opacity:1;fill-rule:nonzero;stroke:none"
         id="path66"
         inkscape:connector-curvature="0" /><path
         d="m 10325.1,1660.58 h 152.2 l -29.7,-139.83 h -152.1 z m -48.5,-296.01 h 126.6 l -144.1,-681.718 h -126.6 l 144.1,681.718"
         style="fill:#393536;fill-opacity:1;fill-rule:nonzero;stroke:none"
         id="path68"
         inkscape:connector-curvature="0" /><path
         d="m 10797.8,754.852 c 95.6,0 219.5,69.218 262.6,274.308 36.3,169.71 -22.9,259.35 -141.4,259.35 -80.8,0 -222.2,-51.58 -268,-264.8 -29.6,-139.878 2.7,-268.858 146.8,-268.858 z m 140,627.358 c 270.7,0 286.9,-214.56 257.2,-357.16 -43.1,-199.589 -189.9,-365.288 -420.1,-365.288 -223.6,0 -299,156.179 -257.2,355.818 35,168.38 154.8,366.63 420.1,366.63"
         style="fill:#393536;fill-opacity:1;fill-rule:nonzero;stroke:none"
         id="path70"
         inkscape:connector-curvature="0" /><path
         d="m 11442,1285.78 16.2,78.79 h 126.5 l -22.8,-110.01 c 21.5,28.55 90.2,123.58 243.7,123.58 60.6,0 239.7,-23.09 195.3,-232.19 l -97,-463.098 h -129.3 l 91.6,433.218 c 9.4,44.79 12.1,85.52 -12.1,116.79 -25.6,31.22 -67.3,46.13 -110.4,46.13 -91.6,0 -189.9,-66.54 -219.5,-203.7 L 11442,682.852 h -126.6 l 126.6,602.928"
         style="fill:#393536;fill-opacity:1;fill-rule:nonzero;stroke:none"
         id="path72"
         inkscape:connector-curvature="0" /><path
         d="m 12520.3,1018.26 c -51.2,0 -243.8,0 -273.4,-138.498 -9.4,-43.453 1.4,-118.121 114.5,-118.121 64.6,0 118.5,25.757 160.2,73.328 37.7,46.133 47.2,84.191 70,179.221 -22.8,2.73 -40.4,4.07 -71.3,4.07 z m 16.1,-335.408 c -2.7,33.937 1.4,66.546 9.4,101.828 -84.8,-112.68 -177.7,-123.532 -234.3,-123.532 -154.8,0 -220.8,88.25 -196.6,200.973 12.1,54.309 48.5,141.219 160.3,199.589 82.1,40.79 189.9,44.85 243.7,44.85 32.3,0 52.5,-1.39 91.6,-4.06 17.5,84.18 25.6,120.85 6.7,150.73 -17.5,33.94 -71.4,44.79 -107.7,44.79 -127.9,0 -153.5,-88.25 -160.2,-115.4 h -126.6 c 12.1,35.28 25.6,82.8 74,128.98 63.3,57.03 163,73.33 234.4,73.33 98.3,0 196.5,-31.21 218.1,-100.49 13.5,-40.73 8.1,-73.33 1.3,-104.55 l -74,-325.941 c -2.7,-10.847 -20.2,-101.828 -25.6,-171.097 h -114.5"
         style="fill:#393536;fill-opacity:1;fill-rule:nonzero;stroke:none"
         id="path74"
         inkscape:connector-curvature="0" /><path
         d="m 13074,1661.97 h 126.6 l -206,-979.118 H 12868 l 206,979.118"
         style="fill:#393536;fill-opacity:1;fill-rule:nonzero;stroke:none"
         id="path76"
         inkscape:connector-curvature="0" /><path
         d="m 13820.1,1663.31 h 134.7 l -206.1,-980.458 h -134.6 l 206,980.458"
         style="fill:#393536;fill-opacity:1;fill-rule:nonzero;stroke:none"
         id="path78"
         inkscape:connector-curvature="0" /><path
         d="m 14112.7,1285.78 16.2,78.79 h 126.5 l -22.8,-110.01 c 21.5,28.55 90.2,123.58 243.7,123.58 60.6,0 239.7,-23.09 195.3,-232.19 l -97,-463.098 h -129.3 l 91.6,433.218 c 9.4,44.79 12.1,85.52 -12.1,116.79 -25.6,31.22 -67.3,46.13 -110.4,46.13 -91.6,0 -189.9,-66.54 -219.5,-203.7 l -82.2,-392.438 h -126.6 l 126.6,602.928"
         style="fill:#393536;fill-opacity:1;fill-rule:nonzero;stroke:none"
         id="path80"
         inkscape:connector-curvature="0" /><path
         d="m 14921.1,885.219 c -12.1,-51.641 -1.3,-123.578 121.2,-123.578 52.5,0 94.3,9.461 128,43.449 17.4,17.64 30.9,40.73 34.9,63.82 14.9,66.551 -30.9,78.742 -126.5,101.828 -134.7,32.602 -246.5,61.092 -216.8,203.702 25.5,124.92 150.8,206.43 307,206.43 84.8,0 197.9,-24.43 222.2,-105.94 9.4,-38 2.7,-70.61 -4,-99.15 h -129.3 c 25.6,103.21 -60.6,111.39 -106.4,111.39 -18.9,0 -137.4,0 -158.9,-97.76 -12.1,-62.49 44.4,-77.45 78.1,-86.91 177.7,-44.85 215.4,-55.7 247.8,-93.71 29.6,-35.329 33.6,-82.841 24.2,-126.298 -16.1,-76.062 -71.4,-141.273 -127.9,-172.492 -66,-36.66 -140.1,-46.18 -210.1,-46.18 -137.3,0 -253.2,57.032 -216.8,221.399 h 133.3"
         style="fill:#393536;fill-opacity:1;fill-rule:nonzero;stroke:none"
         id="path82"
         inkscape:connector-curvature="0" /><path
         d="m 15526.6,1367.29 h 119.8 l 29.6,142.56 134.7,40.78 -39,-183.34 h 150.7 l -20.1,-93.7 h -150.9 l -86.2,-408.789 c -6.7,-33.942 -18.8,-90.981 71.4,-90.981 25.6,0 51.2,4.071 62,6.789 l -20.2,-99.097 c -24.3,-4.114 -60.6,-8.172 -106.4,-8.172 -115.8,0 -164.3,33.941 -141.4,145.332 l 95.6,454.918 h -119.8 l 20.2,93.7"
         style="fill:#393536;fill-opacity:1;fill-rule:nonzero;stroke:none"
         id="path84"
         inkscape:connector-curvature="0" /><g
         id="g86"
         transform="scale(1.00893)"><path
           d="m 15899.6,1215.17 c 9.3,45.77 17.3,92.92 22.7,137.33 h 126.7 l -25.3,-130.55 c 44.1,94.2 130.8,125.15 188.2,133.24 38.6,5.36 66.7,4.04 88.1,2.71 l -26.8,-123.86 c -6.6,2.7 -13.2,4.02 -22.7,5.4 -9.3,1.32 -21.3,1.32 -35.9,1.32 -148.2,0 -201.5,-88.84 -225.6,-204.6 l -76,-359.35 h -126.9 l 113.5,538.36"
           style="fill:#393536;fill-opacity:1;fill-rule:nonzero;stroke:none"
           id="path88"
           inkscape:connector-curvature="0" /></g><g
         id="g90"
         transform="scale(1.05118)"><path
           d="m 15860.6,1298.13 -88.4,-417.267 c -12.8,-63.31 -16.6,-143.398 106.4,-143.398 60.2,0 121.6,20.642 166.5,72.306 35.8,38.796 46.1,89.141 52.5,121.485 l 78.2,366.874 h 124.2 l -111.5,-527.102 c -2.6,-12.921 -15.3,-85.276 -21.7,-121.426 h -125.6 l 20.5,111.103 c -32.1,-45.206 -90.9,-117.565 -229.3,-117.565 -158.8,0 -213.9,91.738 -187,219.622 l 92.2,435.368 h 123"
           style="fill:#393536;fill-opacity:1;fill-rule:nonzero;stroke:none"
           id="path92"
           inkscape:connector-curvature="0" /></g><g
         id="g94"
         transform="scale(1.12879)"><path
           d="m 15369.5,1128.28 15.5,80.6 h 113.3 l -19.1,-87.84 c 77.6,95.03 159.9,103.47 211.2,103.47 132.5,0 159.8,-68.58 171.8,-113.09 27.5,33.67 93.1,113.09 225.4,113.09 86,0 212.4,-36.09 175.5,-214.14 l -86,-405.43 h -113.3 l 81.1,387.386 c 12,52.944 7.2,75.774 0,91.444 -14.3,27.65 -46.4,52.94 -103.8,52.94 -72.7,0 -120.4,-42.14 -140.7,-63.78 -34.7,-37.32 -48.9,-103.468 -53.7,-129.938 l -71.6,-338.052 h -113.3 l 84.7,399.42 c 15.5,74.58 -15.5,132.35 -103.8,132.35 -76.4,0 -128.9,-48.16 -145.5,-66.2 -32.3,-34.9 -44.2,-84.188 -51.4,-122.69 l -72.7,-342.88 h -113.3 l 109.7,523.34"
           style="fill:#393536;fill-opacity:1;fill-rule:nonzero;stroke:none"
           id="path96"
           inkscape:connector-curvature="0" /></g><g
         id="g98"
         transform="scale(1.17873)"><path
           d="m 16130.9,924.946 c 12.6,55.27 26.2,170.494 -106.3,170.494 -69.6,0 -163.3,-42.62 -191.9,-170.494 z m -318.7,-76.048 c -27.5,-119.81 2.2,-208.504 119.9,-208.504 69.7,0 133.7,36.861 160,119.806 h 107.4 c -9.2,-28.802 -24,-76.049 -74.4,-120.986 -30.7,-28.795 -98.2,-77.185 -213.6,-77.185 -180.5,0 -242.2,112.919 -204.4,296.071 23.9,114.09 67.3,208.55 171.3,271.9 62.8,39.17 131.4,42.63 164.5,42.63 257.1,0 203.4,-229.275 181.7,-323.732 h -412.4"
           style="fill:#393536;fill-opacity:1;fill-rule:nonzero;stroke:none"
           id="path100"
           inkscape:connector-curvature="0" /></g><g
         id="g102"
         transform="scale(1.22564)"><path
           d="m 15807.8,1049.07 13.2,64.28 h 103.3 l -18.7,-89.75 c 17.5,23.29 73.6,100.83 198.8,100.83 49.5,0 195.6,-18.84 159.3,-189.448 l -79.1,-377.842 h -105.5 l 74.8,353.463 c 7.6,36.544 9.8,69.776 -9.9,95.287 -20.9,25.48 -55,37.64 -90.2,37.64 -74.6,0 -154.8,-54.291 -179,-166.2 l -67,-320.19 h -103.3 l 103.3,491.93"
           style="fill:#393536;fill-opacity:1;fill-rule:nonzero;stroke:none"
           id="path104"
           inkscape:connector-curvature="0" /></g><g
         id="g106"
         transform="scale(1.25729)"><path
           d="m 15985.1,1087.49 h 95.3 l 23.6,113.39 107.1,32.43 -31,-145.82 h 119.9 l -16.1,-74.52 H 16164 l -68.6,-325.14 c -5.4,-26.996 -15,-72.362 56.8,-72.362 20.3,0 40.7,3.237 49.3,5.399 l -16.1,-78.818 c -19.3,-3.272 -48.2,-6.5 -84.6,-6.5 -92.1,0 -130.6,26.996 -112.5,115.592 l 76,361.829 h -95.3 l 16.1,74.52"
           style="fill:#393536;fill-opacity:1;fill-rule:nonzero;stroke:none"
           id="path108"
           inkscape:connector-curvature="0" /></g><g
         id="g110"
         transform="scale(1.2945)"><path
           d="m 15929.7,683.832 c -9.4,-39.892 -1,-95.464 93.6,-95.464 40.5,0 72.8,7.309 98.9,33.565 13.4,13.627 23.8,31.464 26.9,49.301 11.5,51.41 -23.8,60.828 -97.7,78.662 -104,25.185 -190.3,47.195 -167.5,157.361 19.8,96.503 116.5,159.463 237.2,159.463 65.5,0 152.9,-18.87 171.6,-81.836 7.3,-29.355 2.1,-54.546 -3.1,-76.592 h -99.8 c 19.7,79.727 -46.9,86.049 -82.2,86.049 -14.6,0 -106.2,0 -122.8,-75.521 -9.3,-48.272 34.3,-59.829 60.4,-67.138 137.2,-34.645 166.3,-43.028 191.4,-72.392 22.8,-27.291 25.9,-63.993 18.7,-97.564 -12.5,-58.758 -55.2,-109.134 -98.8,-133.25 -51,-28.32 -108.3,-35.674 -162.3,-35.674 -106.2,0 -195.6,44.056 -167.5,171.03 h 103"
           style="fill:#393536;fill-opacity:1;fill-rule:nonzero;stroke:none"
           id="path112"
           inkscape:connector-curvature="0" /></g><g
         id="g114"
         transform="scale(1.3781)"><path
           d="m 16174,1014.81 c 1,24.62 9.8,123.18 -126.1,123.18 -170,0 -237.4,-175.393 -262.8,-293.649 -28.4,-134.002 -20.5,-278.868 140.7,-278.868 42.9,0 86,10.82 123.1,42.356 31.3,27.608 44,58.136 49.8,74.891 h 107.5 c -44,-139.9 -183.7,-198.039 -304.9,-198.039 -248.1,0 -250.1,220.729 -220.8,358.651 31.2,149.792 136.8,373.468 387.9,373.468 99.7,0 231.6,-40.37 210.1,-201.99 H 16174"
           style="fill:#393536;fill-opacity:1;fill-rule:nonzero;stroke:none"
           id="path116"
           inkscape:connector-curvature="0" /></g><g
         id="g118"
         transform="scale(1.4222)"><path
           d="m 15999.8,530.762 c 67.3,0 154.4,48.671 184.7,192.876 25.6,119.33 -16.1,182.359 -99.4,182.359 -56.9,0 -156.3,-36.269 -188.5,-186.19 -20.8,-98.354 1.9,-189.045 103.2,-189.045 z m 98.5,441.119 c 190.3,0 201.7,-150.864 180.9,-251.132 -30.3,-140.339 -133.5,-256.848 -295.5,-256.848 -157.1,0 -210.1,109.816 -180.8,250.19 24.6,118.393 108.9,257.79 295.4,257.79"
           style="fill:#393536;fill-opacity:1;fill-rule:nonzero;stroke:none"
           id="path120"
           inkscape:connector-curvature="0" /></g><g
         id="g122"
         transform="scale(1.49964)"><path
           d="m 15599.6,849.261 11.7,60.668 h 85.3 l -14.4,-66.114 c 58.4,71.53 120.4,77.878 159,77.878 99.6,0 120.3,-51.614 129.3,-85.122 20.6,25.347 70,85.122 169.7,85.122 64.6,0 159.8,-27.16 132,-161.179 l -64.7,-305.172 h -85.3 l 61,291.588 c 9,39.85 5.5,57.034 0,68.831 -10.7,20.81 -34.9,39.848 -78,39.848 -54.8,0 -90.7,-31.721 -106,-48.011 -26.1,-28.088 -36.8,-77.878 -40.4,-97.802 l -53.9,-254.454 h -85.3 l 63.8,300.645 c 11.6,56.138 -11.7,99.622 -78.2,99.622 -57.5,0 -96.9,-36.248 -109.5,-49.832 -24.2,-26.267 -33.3,-63.367 -38.7,-92.347 l -54.7,-258.088 h -85.3 l 82.6,393.919"
           style="fill:#393536;fill-opacity:1;fill-rule:nonzero;stroke:none"
           id="path124"
           inkscape:connector-curvature="0" /></g><g
         id="g126"
         transform="scale(1.5521)"><path
           d="m 16016.3,483.687 c 20.8,0 65.1,4.375 100.7,42.878 39.9,42.878 58.1,105.863 64.1,137.375 17.4,78.757 11.4,160.994 -85,160.994 -130.1,0 -159.6,-139.126 -168.3,-178.493 -11.3,-53.378 -26,-162.754 88.5,-162.754 z m -132.7,323.756 c 4.3,19.25 5.2,29.72 12.9,71.735 h 82.5 l -13.8,-72.631 c 55.4,69.12 129.2,79.622 164.8,79.622 93.7,0 170,-64.746 135.3,-227.466 -34.7,-163.617 -144,-235.385 -248.1,-235.385 -63.3,0 -104.1,27.136 -119.8,65.64 l -46,-217.853 h -80.6 l 112.8,536.338"
           style="fill:#393536;fill-opacity:1;fill-rule:nonzero;stroke:none"
           id="path128"
           inkscape:connector-curvature="0" /></g><g
         id="g130"
         transform="scale(1.59494)"><path
           d="m 16148,638.433 c -32.1,0 -152.8,0 -171.4,-86.837 -5.9,-27.244 0.9,-74.06 71.8,-74.06 40.5,0 74.3,16.15 100.5,45.976 23.6,28.924 29.5,52.786 43.9,112.369 -14.4,1.712 -25.3,2.552 -44.8,2.552 z m 10.1,-210.296 c -1.6,21.278 0.9,41.723 6,63.844 -53.3,-70.648 -111.5,-77.452 -146.9,-77.452 -97.2,0 -138.5,55.331 -123.3,126.007 7.6,34.05 30.4,88.541 100.4,125.139 51.6,25.574 119.1,28.119 152.8,28.119 20.4,0 33,-0.87 57.5,-2.545 10.9,52.779 16,75.772 4.2,94.506 -11,21.28 -44.7,28.082 -67.6,28.082 -80.1,0 -96.2,-55.332 -100.4,-72.353 h -79.4 c 7.6,22.118 16.1,51.914 46.4,80.868 39.8,35.756 102.2,45.976 147,45.976 61.6,0 123.3,-19.569 136.7,-63.005 8.5,-25.537 5.1,-45.978 0.9,-65.551 l -46.4,-204.36 c -1.7,-6.801 -12.7,-63.845 -16.1,-107.275 h -71.8"
           style="fill:#393536;fill-opacity:1;fill-rule:nonzero;stroke:none"
           id="path132"
           inkscape:connector-curvature="0" /></g><g
         id="g134"
         transform="scale(1.64621)"><path
           d="m 15933.5,781.056 9.9,47.861 h 76.9 l -13.9,-66.827 c 13,17.343 54.7,75.07 148,75.07 36.8,0 145.6,-14.026 118.6,-141.046 l -58.9,-281.311 h -78.5 l 55.6,263.161 c 5.7,27.207 7.4,51.949 -7.3,70.944 -15.6,18.967 -41,28.022 -67.2,28.022 -55.6,0 -115.3,-40.42 -133.2,-123.739 l -50,-238.388 h -76.9 l 76.9,366.253"
           style="fill:#393536;fill-opacity:1;fill-rule:nonzero;stroke:none"
           id="path136"
           inkscape:connector-curvature="0" /></g><g
         id="g138"
         transform="scale(1.69612)"><path
           d="m 16037.2,400.202 -88.1,-149.724 h -77 l 92.1,153.722 -81,400.326 h 84.2 l 57.9,-317.066 193.7,317.066 h 81 l -262.8,-404.324"
           style="fill:#393536;fill-opacity:1;fill-rule:nonzero;stroke:none"
           id="path140"
           inkscape:connector-curvature="0" /></g></g></g></svg>