<?xml version="1.0" encoding="UTF-8" standalone="no"?>
<!-- Created with Inkscape (http://www.inkscape.org/) -->

<svg
   xmlns:dc="http://purl.org/dc/elements/1.1/"
   xmlns:cc="http://creativecommons.org/ns#"
   xmlns:rdf="http://www.w3.org/1999/02/22-rdf-syntax-ns#"
   xmlns:svg="http://www.w3.org/2000/svg"
   xmlns="http://www.w3.org/2000/svg"
   xmlns:sodipodi="http://sodipodi.sourceforge.net/DTD/sodipodi-0.dtd"
   xmlns:inkscape="http://www.inkscape.org/namespaces/inkscape"
   width="512"
   height="512"
   viewBox="0 0 512.00001 512.00001"
   id="svg8695"
   version="1.1"
   inkscape:version="0.91 r13725"
   sodipodi:docname="jasper-vogel.svg">
  <defs
     id="defs8697" />
  <sodipodi:namedview
     id="base"
     pagecolor="#ffffff"
     bordercolor="#666666"
     borderopacity="1.0"
     inkscape:pageopacity="0.0"
     inkscape:pageshadow="2"
     inkscape:zoom="0.98994949"
     inkscape:cx="146.60221"
     inkscape:cy="181.12848"
     inkscape:document-units="px"
     inkscape:current-layer="layer1"
     showgrid="false"
     inkscape:window-width="1920"
     inkscape:window-height="1017"
     inkscape:window-x="1912"
     inkscape:window-y="-8"
     inkscape:window-maximized="1"
     units="px" />
  <metadata
     id="metadata8700">
    <rdf:RDF>
      <cc:Work
         rdf:about="">
        <dc:format>image/svg+xml</dc:format>
        <dc:type
           rdf:resource="http://purl.org/dc/dcmitype/StillImage" />
        <dc:title></dc:title>
      </cc:Work>
    </rdf:RDF>
  </metadata>
  <g
     inkscape:label="Layer 1"
     inkscape:groupmode="layer"
     id="layer1"
     transform="translate(0,-540.36216)">
    <g
       transform="matrix(5.4728085,0,0,5.4728085,-1188.9218,-1599.2771)"
       id="g8431">
      <path
         sodipodi:nodetypes="csscsssccc"
         inkscape:connector-curvature="0"
         id="path8127"
         d="m 283.61607,401.96042 c 0,0 6.07143,-0.89286 7.94643,0.40178 1.875,1.29465 4.41794,6.62554 5.44643,10.40179 1.58178,5.80771 0.89286,18.03571 0.89286,18.03571 0,0 -0.71429,1.42857 -1.02679,1.5625 -0.3125,0.13393 -1.25,0.35715 -1.60714,-0.3125 -0.35714,-0.66964 -1.18984,-6.43215 -1.42857,-9.6875 -0.21224,-2.89401 0.22321,-8.03571 0,-8.70535 -1.2129,-3.3199 -3.06383,-3.90118 -6.33929,-3.75 z"
         style="fill:#291b12;fill-opacity:1;fill-rule:evenodd;stroke:#000000;stroke-width:0.5;stroke-linecap:butt;stroke-linejoin:miter;stroke-miterlimit:4;stroke-dasharray:none;stroke-opacity:1" />
      <path
         sodipodi:nodetypes="cscscsscccc"
         inkscape:connector-curvature="0"
         id="path8125"
         d="m 240.19889,406.50227 c 0,0 -6.34858,2.4559 -7.42186,3.84486 -1.07329,1.38896 -2.27285,5.87151 -2.27285,5.87151 0,0 -0.54371,6.37624 -0.5177,9.57119 0.0444,5.45128 0.64401,15.93516 1.14905,16.31397 0.50508,0.3788 1.8309,0.44194 2.08344,0.31567 0.25254,-0.12627 0.88388,-1.6415 0.88388,-1.95717 0,-0.31567 -0.31567,-13.76333 -0.31567,-13.76333 0,0 0.94702,1.07329 1.51523,1.01015 0.56821,-0.0631 4.18034,-0.75761 4.18034,-0.75761 0,0 -0.60969,-12.49429 0.71614,-20.44924 z"
         style="fill:#291b12;fill-opacity:1;fill-rule:evenodd;stroke:#000000;stroke-width:0.5;stroke-linecap:butt;stroke-linejoin:miter;stroke-miterlimit:4;stroke-dasharray:none;stroke-opacity:1" />
      <path
         sodipodi:nodetypes="ccscsscccc"
         inkscape:connector-curvature="0"
         id="path8368"
         d="m 239.47633,434.47359 -0.54753,8.48673 c 0,0 6.36848,9.81404 8.41828,11.90879 1.53252,1.56612 12.23131,10.17001 16.51215,10.86759 7.71693,2.39138 18.20065,-0.46492 20.70394,-4.05524 3.58938,-5.14804 5.58167,-14.74988 6.03885,-22.14321 0.15083,-2.43908 -0.3422,-7.32322 -0.3422,-7.32322 l -0.0684,-3.96961 -29.97731,0.20533 z"
         style="fill:#aa0000;fill-rule:evenodd;stroke:#000000;stroke-width:1px;stroke-linecap:butt;stroke-linejoin:miter;stroke-opacity:1" />
      <path
         sodipodi:nodetypes="csccsc"
         inkscape:connector-curvature="0"
         id="path8364"
         d="m 242.07355,439.67706 c 0,0 4.11704,4.27623 6.44002,8.14786 2.32298,3.87163 11.04789,9.57943 11.04789,9.57943 l 21.9059,0.46936 c 0,0 3.04832,-7.58976 4.21182,-11.29616 1.13059,-3.60155 0.62772,-12.12719 0.62772,-12.12719"
         style="fill:#65533d;fill-opacity:1;fill-rule:evenodd;stroke:#000000;stroke-width:1px;stroke-linecap:butt;stroke-linejoin:miter;stroke-opacity:1" />
      <path
         style="fill:none;fill-rule:evenodd;stroke:#282a26;stroke-width:1px;stroke-linecap:butt;stroke-linejoin:miter;stroke-opacity:1"
         d="m 268.78778,454.00208 1.69384,14.17984"
         id="path8319"
         inkscape:connector-curvature="0" />
      <path
         sodipodi:nodetypes="ssssssssssssssssssssss"
         inkscape:connector-curvature="0"
         id="path8092"
         d="m 240.53571,404.8622 c 4.21029,-4.52894 9.5901,-8.65171 15.625,-10 2.02114,-0.45155 2.96846,0.43703 5.25387,0.23893 1.13915,-0.0987 2.34879,-1.49049 3.68808,-1.13334 1.33929,0.35714 2.82299,0.86335 3.61902,1.07298 1.18965,0.31329 3.02395,-0.48505 4.58189,-0.0893 3.4491,0.87614 6.78636,2.73467 9.28572,5.26786 3.60173,3.65049 5.9289,8.57268 7.41071,13.48214 1.33764,4.43182 2.31114,9.35521 1.16072,13.83928 -1.00309,3.90982 -5.43452,6.25517 -6.69643,10.08929 -0.74528,2.26443 0.24201,4.83545 -0.35715,7.14286 -0.60884,2.34468 -2.71603,4.1472 -3.21428,6.51785 -0.69852,3.32351 2.89374,7.82394 0.44643,10.17858 -4.94961,4.76219 -14.79232,2.07059 -20.53572,-1.69643 -1.94847,-1.27798 -1.87113,-4.3228 -3.30357,-6.1607 -1.11378,-1.42904 -3.39286,-2.76785 -4.01786,-3.66071 -0.625,-0.89286 -2.41071,-5.35714 -2.85714,-6.25 -0.44643,-0.89286 -6.22484,-1.58462 -8.39286,-3.75 -2.00767,-2.00522 -2.85019,-5.00158 -3.48214,-7.76786 -0.47742,-2.08984 -0.19471,-4.28495 -0.17857,-6.42857 0.0471,-6.25556 -0.86278,-12.72028 0.80357,-18.75 0.21638,-0.78299 0.60761,-1.5479 1.16071,-2.14286 z"
         style="fill:#a37655;fill-opacity:1;fill-rule:evenodd;stroke:#000000;stroke-width:0.5;stroke-linecap:butt;stroke-linejoin:miter;stroke-miterlimit:4;stroke-dasharray:none;stroke-opacity:1" />
      <path
         inkscape:connector-curvature="0"
         id="path8300"
         d="m 258.53592,435.53781 c 0,0 0.12627,-8.7757 0.75761,-10.16466 0.63135,-1.38896 1.01015,-6.88167 0.44194,-8.14436"
         style="fill:none;fill-rule:evenodd;stroke:#000000;stroke-width:0.5;stroke-linecap:butt;stroke-linejoin:miter;stroke-miterlimit:4;stroke-dasharray:none;stroke-opacity:0.62142855" />
      <path
         sodipodi:nodetypes="csc"
         inkscape:connector-curvature="0"
         id="path8302"
         d="m 279.5897,434.52196 c 0,0 -3.37611,-4.35059 -4.26,-6.87597 -0.88388,-2.52538 -1.13642,-9.65959 -1.13642,-9.65959"
         style="fill:none;fill-rule:evenodd;stroke:#000000;stroke-width:0.5;stroke-linecap:butt;stroke-linejoin:miter;stroke-miterlimit:4;stroke-dasharray:none;stroke-opacity:0.62142855" />
      <path
         sodipodi:nodetypes="csssssssssssscc"
         inkscape:connector-curvature="0"
         id="path8121"
         d="m 261.09375,459.77292 c 0,0 -1.15398,0.013 -3.02598,-5.3066 -0.65142,-1.85111 -3.08383,-2.88041 -4.51403,-4.82057 -1.4302,-1.94016 -2.34365,-4.53958 -2.30636,-6.09761 0.0905,-3.78055 3.2711,-5.05661 6.17416,-7.48004 1.3085,-1.09232 3.06466,-2.21567 4.76913,-2.20598 2.01016,0.0114 3.12124,0.87354 5.13076,0.82151 2.5027,-0.0648 4.11034,-2.1883 6.60714,-2.37187 2.43192,-0.1788 5.00497,1.05193 6.81187,2.6894 1.78537,1.61796 2.87811,2.7395 3.18813,5.1289 0.22419,1.72786 0.5435,2.88424 -0.23365,5.06522 -0.93773,2.63165 -2.2702,3.44803 -2.8467,5.31425 -0.99109,3.20831 1.2199,6.79341 1.11861,8.72648 -0.10129,1.93306 -0.91772,2.41191 -0.91772,2.41191 z"
         style="fill:#484846;fill-opacity:1;fill-rule:evenodd;stroke:none;stroke-width:0.5;stroke-linecap:butt;stroke-linejoin:miter;stroke-miterlimit:4;stroke-dasharray:none;stroke-opacity:1" />
      <ellipse
         ry="2.1781416"
         rx="2.2412758"
         cy="417.10251"
         cx="248.84477"
         id="path8271"
         style="opacity:1;fill:#201b18;fill-opacity:1;fill-rule:evenodd;stroke:none;stroke-width:0.5;stroke-linecap:butt;stroke-miterlimit:4;stroke-dasharray:none;stroke-opacity:1" />
      <ellipse
         ry="2.1781416"
         rx="2.2412758"
         cy="412.30429"
         cx="278.67584"
         id="path8271-4"
         style="opacity:1;fill:#201b18;fill-opacity:1;fill-rule:evenodd;stroke:none;stroke-width:0.5;stroke-linecap:butt;stroke-miterlimit:4;stroke-dasharray:none;stroke-opacity:1" />
      <path
         sodipodi:nodetypes="ssssssssss"
         inkscape:connector-curvature="0"
         id="path8288"
         d="m 258.72532,446.01814 c 1.31452,1.79022 2.46225,3.59867 4.29315,4.41942 1.8309,0.82074 8.83883,0.94701 9.72272,0 0.88388,-0.94702 3.72494,-4.10375 3.72494,-5.17704 0,-1.07328 0.82075,-6.37659 -0.18937,-7.19733 -1.01014,-0.82076 -4.04061,-1.83091 -5.55584,-1.57837 -0.74989,0.12498 -4.10374,0.18941 -5.17703,0.18941 -1.07329,0 -2.90419,-0.88389 -4.35628,-0.50508 -1.4521,0.37881 -3.82041,2.15025 -3.91434,3.34613 -0.26849,3.4183 0.35916,5.01448 1.45205,6.50286 z"
         style="fill:#0c110d;fill-opacity:0.525;fill-rule:evenodd;stroke:#000000;stroke-width:1px;stroke-linecap:butt;stroke-linejoin:miter;stroke-opacity:1" />
      <path
         sodipodi:nodetypes="ssssss"
         inkscape:connector-curvature="0"
         id="path8292"
         d="m 259.01786,443.12113 c 0.50235,-1.56047 4.77678,-0.49107 4.91071,-0.26786 0.13393,0.22322 1.25,1.96429 1.11607,2.23215 -0.13392,0.26785 -1.11607,1.20533 -2.00892,1.16071 -0.89286,-0.0446 -1.60715,-1.07143 -1.96429,-1.47321 -0.35714,-0.40179 -2.32277,-0.81557 -2.05357,-1.65179 z"
         style="fill:none;fill-rule:evenodd;stroke:#000000;stroke-width:1px;stroke-linecap:butt;stroke-linejoin:miter;stroke-opacity:1" />
      <path
         sodipodi:nodetypes="csssscc"
         inkscape:connector-curvature="0"
         id="path8294"
         d="m 271.25,442.40685 c -0.53571,0.0893 -1.09103,0.47665 -1.25,0.98214 -0.21466,0.68257 0.26786,1.83036 0.625,2.05357 0.35714,0.22321 2.23413,0.13735 2.58929,-0.0558 0.42959,-0.23362 0.8115,-1.34588 0.98989,-1.56722 0.17937,-0.22256 0.62981,-1.05338 0.321,-0.98475 -0.91993,-0.53065 -2.29416,-0.32156 -3.27518,-0.42795 z"
         style="fill:none;fill-rule:evenodd;stroke:#000000;stroke-width:1px;stroke-linecap:butt;stroke-linejoin:miter;stroke-opacity:1" />
      <path
         style="fill:none;fill-rule:evenodd;stroke:#000000;stroke-width:1px;stroke-linecap:butt;stroke-linejoin:miter;stroke-opacity:1"
         d="m 271.25,442.40685 c -0.53571,0.0893 -1.09103,0.47665 -1.25,0.98214 -0.21466,0.68257 0.26786,1.83036 0.625,2.05357 0.35714,0.22321 2.23413,0.13735 2.58929,-0.0558 0.42959,-0.23362 0.8115,-1.34588 0.98989,-1.56722 0.17937,-0.22256 0.62981,-1.05338 0.321,-0.98475 -0.91993,-0.53065 -2.29416,-0.32156 -3.27518,-0.42795 z"
         id="path8296"
         inkscape:connector-curvature="0"
         sodipodi:nodetypes="csssscc" />
      <path
         sodipodi:nodetypes="cccsssssssscc"
         inkscape:connector-curvature="0"
         id="path8090"
         d="m 261.0613,454.7307 8.27062,-0.82075 6.9448,-0.25253 c 0,0 4.98763,7.38674 5.3033,9.28077 0.31568,1.89404 0,11.74303 -0.94702,13.32139 -0.94701,1.57836 -2.65165,4.60882 -3.72493,4.98763 -1.07329,0.37881 -3.78815,0.0363 -5.68211,0.0631 -1.22066,0.0173 -2.77791,0.50506 -3.6618,0.0631 -0.88388,-0.44196 -5.3844,-3.39601 -6.88167,-6.06092 -1.53885,-2.73891 -1.89403,-8.39689 -1.6415,-9.28077 0.25254,-0.88389 1.76777,-5.93465 1.76777,-6.7554 0,-0.82075 0.25254,-4.54569 0.25254,-4.54569 z"
         style="fill:#d992a4;fill-opacity:1;fill-rule:evenodd;stroke:#000000;stroke-width:0.5;stroke-linecap:butt;stroke-linejoin:miter;stroke-miterlimit:4;stroke-dasharray:none;stroke-opacity:1" />
      <path
         inkscape:connector-curvature="0"
         id="path8317"
         d="M 268.88052,454.01615 271.26,471.45874"
         style="fill:none;fill-rule:evenodd;stroke:#282a26;stroke-width:0.65727097;stroke-linecap:butt;stroke-linejoin:miter;stroke-miterlimit:4;stroke-dasharray:none;stroke-opacity:1" />
      <path
         sodipodi:nodetypes="cscsc"
         inkscape:connector-curvature="0"
         id="path8304"
         d="m 257.54836,453.87368 c 0,0 1.54572,0.65476 2.413,0.68782 3.18128,0.12125 8.99176,-0.71468 8.99176,-0.71468 0,0 5.84669,0.17347 8.6455,-0.53617 1.16484,-0.29535 3.26981,-1.51825 3.26981,-1.51825"
         style="fill:none;fill-rule:evenodd;stroke:#000000;stroke-width:0.5;stroke-linecap:butt;stroke-linejoin:miter;stroke-miterlimit:4;stroke-dasharray:none;stroke-opacity:1" />
      <g
         id="g8382">
        <g
           transform="matrix(0.95051277,0.31068549,-0.31068549,0.95051277,157.90385,-55.66008)"
           id="g8397">
          <circle
             r="5.3726468"
             cy="259.40848"
             cx="458.91"
             id="path8370"
             style="opacity:1;fill:#b6b7b9;fill-opacity:1;fill-rule:evenodd;stroke:#282a26;stroke-width:0.5;stroke-linecap:butt;stroke-miterlimit:4;stroke-dasharray:none;stroke-opacity:1"
             transform="matrix(0.84140561,0.5404041,-0.5404041,0.84140561,0,0)" />
          <text
             sodipodi:linespacing="125%"
             id="text8378"
             y="468.98386"
             x="242.07535"
             style="font-style:normal;font-weight:normal;font-size:7.89938545px;line-height:125%;font-family:sans-serif;letter-spacing:0px;word-spacing:0px;fill:#000000;fill-opacity:1;stroke:none;stroke-width:1px;stroke-linecap:butt;stroke-linejoin:miter;stroke-opacity:1"
             xml:space="preserve"><tspan
               style="font-style:normal;font-variant:normal;font-weight:normal;font-stretch:normal;font-size:7.89938545px;font-family:'Segoe UI';-inkscape-font-specification:'Segoe UI'"
               y="468.98386"
               x="242.07535"
               id="tspan8380"
               sodipodi:role="line">JV</tspan></text>
        </g>
      </g>
      <path
         transform="matrix(0.87392376,0.48606303,-0.48606303,0.87392376,0,0)"
         sodipodi:nodetypes="cssssssssssccccccsccssccc"
         inkscape:connector-curvature="0"
         id="path8402"
         d="m 442.3581,281.25774 c -0.11266,0.0291 -0.22932,0.0444 -0.3488,0.0444 -0.11948,0 -0.23614,-0.0153 -0.3488,-0.0444 -0.11267,-0.0291 -0.22135,-0.0721 -0.32488,-0.12748 -0.10353,-0.0554 -0.20191,-0.12309 -0.29399,-0.20173 -0.0921,-0.0786 -0.17784,-0.16818 -0.25614,-0.26716 -0.0783,-0.099 -0.14913,-0.20741 -0.21134,-0.3238 -0.0622,-0.1164 -0.11578,-0.24077 -0.15957,-0.37165 -0.0438,-0.13088 -0.0778,-0.26826 -0.10085,-0.41069 -0.023,-0.14243 -0.0352,-0.2899 -0.0352,-0.44094 0,-0.15104 0.0121,-0.29851 0.0352,-0.44094 0.0231,-0.14243 0.0571,-0.27981 0.10085,-0.41069 0.0438,-0.13088 0.0974,-0.25525 0.15957,-0.37165 0.0622,-0.11639 0.13304,-0.22482 0.21134,-0.3238 0.0783,-0.099 0.16407,-0.18853 0.25614,-0.26716 0.0921,-0.0786 0.19046,-0.14637 0.29399,-0.20173 0.10353,-0.0553 0.21221,-0.0983 0.32488,-0.12748 0.11266,-0.0292 0.22932,-0.0444 0.3488,-0.0444 0.11948,0 0.23614,0.0153 0.3488,0.0444 m 1.40996,1.98484 c -0.022,0.16775 -0.0401,0.45712 -0.0632,0.59955 -0.0231,0.14242 -0.0571,0.27981 -0.10085,0.41069 -0.0438,0.13088 -0.0974,0.25525 -0.15957,0.37164 m 0,0 c -0.13516,0.21929 -0.0802,0.10563 -0.21114,0.29643"
         style="opacity:1;fill:none;fill-opacity:1;fill-rule:evenodd;stroke:#282a26;stroke-width:0.67475867;stroke-linecap:butt;stroke-miterlimit:4;stroke-dasharray:none;stroke-opacity:1" />
      <circle
         r="1.0709716"
         cy="97.914574"
         cx="514.56915"
         id="circle8423"
         style="opacity:1;fill:#ffffff;fill-opacity:1;fill-rule:evenodd;stroke:#282a26;stroke-width:0.30000001;stroke-linecap:butt;stroke-miterlimit:4;stroke-dasharray:none;stroke-opacity:1"
         transform="matrix(0.63187107,0.77507352,-0.77507352,0.63187107,0,0)" />
      <path
         transform="matrix(0.87392376,0.48606303,-0.48606303,0.87392376,0,0)"
         sodipodi:nodetypes="csssssssssssccccccsccsc"
         inkscape:connector-curvature="0"
         id="ellipse8425"
         d="m 442.68298,281.13025 c -0.10354,0.0554 -0.21221,0.0983 -0.32488,0.12749 -0.11266,0.0291 -0.22932,0.0444 -0.3488,0.0444 -0.11948,0 -0.23614,-0.0153 -0.3488,-0.0444 -0.11267,-0.0291 -0.22135,-0.0721 -0.32488,-0.12748 -0.10353,-0.0554 -0.20191,-0.12309 -0.29399,-0.20173 -0.0921,-0.0786 -0.17784,-0.16818 -0.25614,-0.26716 -0.0783,-0.099 -0.14913,-0.20741 -0.21134,-0.3238 -0.0622,-0.1164 -0.11578,-0.24077 -0.15957,-0.37165 -0.0438,-0.13088 -0.0778,-0.26826 -0.10085,-0.41069 -0.023,-0.14243 -0.0352,-0.2899 -0.0352,-0.44094 0,-0.15104 0.0121,-0.29851 0.0352,-0.44094 0.0231,-0.14243 0.0571,-0.27981 0.10085,-0.41069 0.0438,-0.13088 0.0974,-0.25525 0.15957,-0.37165 0.0622,-0.11639 0.13304,-0.22482 0.21134,-0.3238 0.0783,-0.099 0.16407,-0.18853 0.25614,-0.26716 0.0921,-0.0786 0.19046,-0.14637 0.29399,-0.20173 0.10353,-0.0553 0.21221,-0.0983 0.32488,-0.12748 0.11266,-0.0292 0.22932,-0.0444 0.3488,-0.0444 0.11948,0 0.23614,0.0153 0.3488,0.0444 m 1.34676,2.58439 c -0.0231,0.14242 -0.0571,0.27981 -0.10085,0.41069 -0.0438,0.13088 -0.0974,0.25525 -0.15957,0.37164"
         style="opacity:1;fill:none;fill-opacity:1;fill-rule:evenodd;stroke:#282a26;stroke-width:0.67475867;stroke-linecap:butt;stroke-miterlimit:4;stroke-dasharray:none;stroke-opacity:1" />
      <path
         style="opacity:1;fill:none;fill-opacity:1;fill-rule:evenodd;stroke:#282a26;stroke-width:0.67475867;stroke-linecap:butt;stroke-miterlimit:4;stroke-dasharray:none;stroke-opacity:1"
         d="m 442.3581,281.25774 c -0.11266,0.0291 -0.22932,0.0444 -0.3488,0.0444 -0.11948,0 -0.23614,-0.0153 -0.3488,-0.0444 -0.11267,-0.0291 -0.22135,-0.0721 -0.32488,-0.12748 -0.10353,-0.0554 -0.20191,-0.12309 -0.29399,-0.20173 -0.0921,-0.0786 -0.17784,-0.16818 -0.25614,-0.26716 -0.0783,-0.099 -0.14913,-0.20741 -0.21134,-0.3238 -0.0622,-0.1164 -0.11578,-0.24077 -0.15957,-0.37165 -0.0438,-0.13088 -0.0778,-0.26826 -0.10085,-0.41069 -0.023,-0.14243 -0.0352,-0.2899 -0.0352,-0.44094 0,-0.15104 0.0121,-0.29851 0.0352,-0.44094 0.0231,-0.14243 0.0571,-0.27981 0.10085,-0.41069 0.0438,-0.13088 0.0974,-0.25525 0.15957,-0.37165 0.0622,-0.11639 0.13304,-0.22482 0.21134,-0.3238 0.0783,-0.099 0.16407,-0.18853 0.25614,-0.26716 0.0921,-0.0786 0.19046,-0.14637 0.29399,-0.20173 0.10353,-0.0553 0.21221,-0.0983 0.32488,-0.12748 0.11266,-0.0292 0.22932,-0.0444 0.3488,-0.0444 0.11948,0 0.23614,0.0153 0.3488,0.0444 m 1.40996,1.98484 c -0.022,0.16775 -0.0401,0.45712 -0.0632,0.59955 -0.0231,0.14242 -0.0571,0.27981 -0.10085,0.41069 -0.0438,0.13088 -0.0974,0.25525 -0.15957,0.37164 m 0,0 c -0.13516,0.21929 -0.0802,0.10563 -0.21114,0.29643"
         id="path8429"
         inkscape:connector-curvature="0"
         sodipodi:nodetypes="cssssssssssccccccsccssccc"
         transform="matrix(0.87392376,0.48606303,-0.48606303,0.87392376,0,0)" />
    </g>
  </g>
</svg>
