<?xml version="1.0" encoding="UTF-8" standalone="no"?>
<!-- Created with Inkscape (http://www.inkscape.org/) -->

<svg
   xmlns:dc="http://purl.org/dc/elements/1.1/"
   xmlns:cc="http://creativecommons.org/ns#"
   xmlns:rdf="http://www.w3.org/1999/02/22-rdf-syntax-ns#"
   xmlns:svg="http://www.w3.org/2000/svg"
   xmlns="http://www.w3.org/2000/svg"
   xmlns:sodipodi="http://sodipodi.sourceforge.net/DTD/sodipodi-0.dtd"
   xmlns:inkscape="http://www.inkscape.org/namespaces/inkscape"
   width="512"
   height="512"
   viewBox="0 0 512.00001 512.00001"
   id="svg5682"
   version="1.1"
   inkscape:version="0.91 r13725"
   sodipodi:docname="keith.svg">
  <defs
     id="defs5684" />
  <sodipodi:namedview
     id="base"
     pagecolor="#ffffff"
     bordercolor="#666666"
     borderopacity="1.0"
     inkscape:pageopacity="0.0"
     inkscape:pageshadow="2"
     inkscape:zoom="0.67953176"
     inkscape:cx="701.53098"
     inkscape:cy="53.923747"
     inkscape:document-units="px"
     inkscape:current-layer="g7165"
     showgrid="false"
     inkscape:window-width="1920"
     inkscape:window-height="1017"
     inkscape:window-x="1912"
     inkscape:window-y="-8"
     inkscape:window-maximized="1"
     units="px" />
  <metadata
     id="metadata5687">
    <rdf:RDF>
      <cc:Work
         rdf:about="">
        <dc:format>image/svg+xml</dc:format>
        <dc:type
           rdf:resource="http://purl.org/dc/dcmitype/StillImage" />
        <dc:title />
      </cc:Work>
    </rdf:RDF>
  </metadata>
  <g
     inkscape:label="Layer 1"
     inkscape:groupmode="layer"
     id="layer1"
     transform="translate(0,-540.36216)">
    <g
       id="g7165"
       transform="matrix(1.2111365,-0.03429765,0.03416885,1.2157019,86.928258,117.92399)">
      <g
         id="g4174"
         transform="translate(-4.6920581e-4,0.0166313)">
        <path
           style="fill:#1a1a1a;fill-opacity:1;fill-rule:evenodd;stroke:#000000;stroke-width:1px;stroke-linecap:butt;stroke-linejoin:miter;stroke-opacity:1"
           d="m 40.781507,628.52583 c 0,0 -6.908805,15.20849 -13.108342,20.39076 -16.533027,13.82016 -43.068167,11.07828 -59.715777,24.7602 -28.399439,23.34022 -61.166087,91.53959 -61.166087,91.53959 l 384.513489,10.84798 36.38309,1.02645 c 0,0 9.54234,-75.68928 -7.99,-106.32699 -10.56864,-18.46868 -33.52265,-26.65638 -52.43336,-36.41206 -22.92855,-11.82841 -51.04049,-12.39267 -72.82412,-26.21668 -10.14497,-6.43806 -25.48844,-25.48844 -25.48844,-25.48844 z"
           id="path6434"
           inkscape:connector-curvature="0"
           sodipodi:nodetypes="csscccssscc" />
        <path
           style="fill:#60a746"
           d="m 150.44675,759.18798 c -0.0833,-0.042 -0.13542,-0.16297 -0.10368,-0.24088 0.0135,-0.0332 0.19134,-0.29237 0.39517,-0.57597 0.20382,-0.28359 0.66294,-0.92329 1.02027,-1.42153 0.35732,-0.49824 0.70875,-0.9874 0.78093,-1.08701 0.0722,-0.0996 0.41017,-0.56996 0.75105,-1.04521 1.21154,-1.68906 2.10775,-2.93898 2.74808,-3.83266 0.67536,-0.94259 0.73922,-1.02641 0.76311,-1.00145 0.0316,0.033 0.84233,1.51191 0.84093,1.53401 -9.2e-4,0.0131 -0.32544,0.47361 -0.72137,1.02351 -0.39592,0.5499 -1.05246,1.46392 -1.45899,2.03116 -0.40651,0.56725 -0.78953,1.1003 -0.85115,1.18456 -0.0616,0.0843 -0.34096,0.47308 -0.62077,0.86404 -0.27982,0.39094 -0.56935,0.79304 -0.64343,0.89352 -0.0741,0.10047 -0.13605,0.20452 -0.13774,0.23121 -0.003,0.0454 0.395,0.067 6.14122,0.33462 3.37935,0.1575 6.17787,0.29635 6.21891,0.30894 0.0411,0.0126 0.10015,0.0579 0.13134,0.10081 0.0761,0.10462 0.0417,0.17997 -0.29662,0.65004 -0.30363,0.42184 -0.42837,0.53671 -0.69647,0.64149 l -0.19073,0.0745 -7.00236,-0.31742 c -4.78568,-0.21697 -7.02303,-0.32788 -7.0677,-0.35031 z"
           id="path6492"
           inkscape:connector-curvature="0" />
        <path
           style="fill:#60a746"
           d="m 149.69926,758.85755 c -0.13302,-0.0757 -0.57378,-0.90526 -0.62041,-1.16761 -0.0432,-0.24303 0.0373,-0.43137 0.40122,-0.93923 0.16744,-0.23365 0.45296,-0.63177 0.63449,-0.88472 0.18153,-0.25295 0.4199,-0.58534 0.5297,-0.73865 0.1098,-0.15332 0.42945,-0.59858 0.71035,-0.98949 0.58598,-0.81549 1.59981,-2.22781 2.54107,-3.53986 3.02457,-4.21603 2.90369,-4.05091 2.99567,-4.09243 0.0695,-0.0314 0.0991,-0.0307 0.17891,0.004 0.0778,0.0338 0.14648,0.13312 0.36875,0.53324 0.15023,0.27044 0.32151,0.57817 0.38064,0.68384 0.0591,0.10567 0.34662,0.62427 0.63888,1.15246 0.76681,1.38581 1.64419,2.96858 1.76908,3.19143 0.0592,0.10567 0.36535,0.65753 0.68027,1.22636 0.31491,0.56882 0.78152,1.40985 1.0369,1.86894 0.25538,0.45909 0.46351,0.84789 0.46249,0.864 -0.001,0.0194 -0.32095,0.012 -0.94942,-0.022 l -0.94757,-0.0513 -0.34522,-0.62061 c -0.32919,-0.59179 -0.69564,-1.25269 -2.15465,-3.88589 -1.08678,-1.96141 -1.13963,-2.05354 -1.18406,-2.0638 -0.0274,-0.006 -0.29899,0.34632 -0.74945,0.97328 -0.38854,0.54077 -0.7569,1.05217 -0.81858,1.13643 -0.0617,0.0843 -0.34083,0.47309 -0.62033,0.86406 -0.27948,0.39097 -0.56726,0.79235 -0.63947,0.89197 -0.21021,0.2899 -1.97573,2.7503 -3.40022,4.73845 -0.51183,0.71436 -0.68856,0.92001 -0.78466,0.91305 -0.0214,-10e-4 -0.0728,-0.0222 -0.11438,-0.0458 z"
           id="path6490"
           inkscape:connector-curvature="0" />
        <path
           style="fill:#60a746"
           d="m 153.8706,757.38529 c 0.26546,-0.37695 0.81127,-1.13737 0.88022,-1.2263 l 0.0808,-0.10415 4.06717,0.18017 c 4.58726,0.20321 4.16423,0.20924 4.01,-0.0571 -0.0457,-0.0789 -0.39914,-0.71531 -0.78536,-1.41411 -0.38623,-0.69881 -0.92728,-1.67616 -1.20233,-2.17187 -0.27505,-0.49572 -0.74678,-1.34677 -1.04828,-1.89122 -0.90793,-1.63949 -1.67185,-3.0173 -1.78584,-3.22099 -0.64642,-1.15498 -0.66627,-1.19741 -0.61207,-1.3082 0.056,-0.11445 0.17869,-0.12813 0.80006,-0.0892 0.56859,0.0356 0.57942,0.0375 0.75956,0.13092 0.10051,0.0521 0.22972,0.1426 0.28713,0.20104 0.0574,0.0584 0.31393,0.48492 0.57005,0.94773 0.25612,0.4628 0.69068,1.24705 0.96569,1.74276 0.83166,1.49912 1.63409,2.94662 2.19511,3.95975 1.39231,2.5143 1.72306,3.11096 2.10492,3.7972 0.41047,0.73762 0.51292,0.94082 0.50978,1.01105 -0.001,0.0205 -0.0384,0.0673 -0.0833,0.10415 l -0.0817,0.0669 -5.85749,-0.27001 -5.8575,-0.27001 0.0835,-0.11853 z"
           id="path6488"
           inkscape:connector-curvature="0" />
        <path
           style="fill:#e6e6e6"
           d="m 168.47663,758.11783 c -0.007,-0.0211 0.12752,-2.2087 0.29961,-4.86145 l 0.31292,-4.82316 2.53331,0.11677 c 2.70371,0.12463 2.7772,0.13111 3.53098,0.31143 1.04071,0.24895 1.93041,0.70852 2.59497,1.34041 0.62822,0.59734 1.07353,1.40845 1.26073,2.2964 0.10431,0.49473 0.11823,0.82935 0.06,1.44722 -0.0409,0.43534 -0.0693,0.59356 -0.15643,0.87242 -0.29296,0.93704 -0.74283,1.63073 -1.4429,2.22486 -0.87166,0.73978 -1.93952,1.1493 -3.35683,1.28734 -0.42729,0.0416 -0.54535,0.0391 -3.03394,-0.0653 -2.11211,-0.0886 -2.5918,-0.11567 -2.60264,-0.14691 z"
           id="path6486"
           inkscape:connector-curvature="0" />
        <path
           style="fill:#e6e6e6"
           d="m 180.34024,758.66332 c -0.007,-0.0203 0.12801,-2.20731 0.30012,-4.86006 l 0.31291,-4.82316 1.34513,0.0545 1.34512,0.0545 0.0131,0.0657 c 0.007,0.0362 -0.12716,2.22319 -0.29856,4.86012 l -0.31163,4.79443 -1.34666,-0.0546 c -1.06053,-0.043 -1.34939,-0.0622 -1.35946,-0.0915 z"
           id="path6482"
           inkscape:connector-curvature="0" />
        <path
           style="fill:#e6e6e6"
           d="m 189.76621,759.10248 c -2.19518,-0.29283 -3.71957,-1.26473 -4.45722,-2.84177 -0.65616,-1.40282 -0.56123,-3.00878 0.25779,-4.36115 0.31918,-0.52703 0.63598,-0.8786 1.1588,-1.28596 0.72438,-0.56441 1.67986,-0.94489 2.74986,-1.09504 0.53027,-0.0744 0.8387,-0.0925 1.43832,-0.0844 1.42527,0.0193 2.68384,0.37815 3.75133,1.06972 0.40311,0.26115 0.97238,0.73622 0.95315,0.79541 -0.0215,0.0663 -1.72107,1.34688 -1.75719,1.32403 -0.0193,-0.0122 -0.12383,-0.0898 -0.23245,-0.17244 -0.50924,-0.38765 -1.2691,-0.74102 -1.94647,-0.90519 -0.64073,-0.1553 -1.43117,-0.12382 -2.09564,0.0835 -0.66714,0.20812 -1.27933,0.72547 -1.58618,1.34047 -0.20815,0.41718 -0.2931,0.71765 -0.32076,1.13456 -0.0678,1.02214 0.35458,1.9646 1.1234,2.50654 0.28636,0.20186 0.54063,0.32229 0.92623,0.43869 0.27939,0.0843 0.35089,0.0938 0.91658,0.12144 0.57001,0.0278 0.63848,0.0255 0.96477,-0.0336 0.19316,-0.0351 0.46391,-0.10554 0.60168,-0.15662 l 0.25046,-0.0929 0.0306,-0.48357 0.0306,-0.48357 -1.11088,-0.0512 c -0.82206,-0.0379 -1.12014,-0.0606 -1.14647,-0.0874 -0.0509,-0.0518 0.0637,-1.86538 0.12085,-1.91219 0.0578,-0.0474 4.93957,0.17765 4.9911,0.23006 0.027,0.0274 0.007,0.4897 -0.0825,1.90467 -0.0988,1.56319 -0.12593,1.87761 -0.1662,1.92435 -0.11346,0.13171 -0.88576,0.56322 -1.33005,0.74313 -1.13413,0.45926 -2.62536,0.61848 -4.03342,0.43064 z"
           id="path6480"
           inkscape:connector-curvature="0" />
        <path
           style="fill:#e6e6e6"
           d="m 197.00248,754.59354 0.31507,-4.85907 1.33586,0.0541 c 1.04781,0.0424 1.34081,0.0621 1.35877,0.0914 0.0264,0.043 -0.56968,9.58514 -0.60294,9.65256 -0.0195,0.0396 -0.16997,0.0377 -1.3719,-0.0177 l -1.34992,-0.0622 0.31507,-4.85908 z"
           id="path6478"
           inkscape:connector-curvature="0" />
        <path
           style="fill:#e6e6e6"
           d="m 200.95283,759.61321 c -0.007,-0.0201 0.12811,-2.207 0.30022,-4.85974 l 0.31292,-4.82317 1.35319,0.0624 1.3532,0.0624 -0.2265,3.83372 -0.2265,3.83372 2.17881,0.10783 2.17882,0.10783 -0.0644,1.01906 -0.0644,1.01907 -3.54134,-0.16324 c -2.80411,-0.12926 -3.54398,-0.17079 -3.55402,-0.19983 z"
           id="path6476"
           inkscape:connector-curvature="0" />
        <path
           style="fill:#e6e6e6"
           d="m 209.90508,755.18828 0.31507,-4.85906 4.1368,0.18337 c 3.28866,0.14579 4.14148,0.19101 4.15959,0.22054 0.0264,0.043 -0.0839,1.89093 -0.11679,1.95764 -0.0198,0.0401 -0.29421,0.032 -2.78165,-0.0827 -2.10445,-0.097 -2.76916,-0.11944 -2.79962,-0.0945 -0.0293,0.024 -0.0543,0.26061 -0.0939,0.88597 -0.0296,0.46929 -0.0466,0.87409 -0.0377,0.89955 0.0146,0.0416 0.23628,0.0565 2.18367,0.14621 l 2.16745,0.0999 0.0132,0.0654 c 0.007,0.036 -0.0177,0.49158 -0.0555,1.01247 l -0.0687,0.94707 -2.15319,-0.0919 c -1.52685,-0.0651 -2.16608,-0.0831 -2.19751,-0.0618 -0.0608,0.0413 -0.16546,1.62891 -0.11099,1.68432 0.0271,0.0276 0.69081,0.0664 2.79527,0.1634 2.48744,0.11466 2.76128,0.13177 2.77591,0.1735 0.0212,0.0605 -0.0944,1.88955 -0.12309,1.9477 -0.0199,0.0403 -0.41681,0.0264 -4.17271,-0.14679 l -4.15073,-0.19133 0.31507,-4.85908 z"
           id="path6474"
           inkscape:connector-curvature="0" />
        <path
           style="fill:#e6e6e6"
           d="m 234.37756,757.36624 c 0.18502,-2.92754 0.23273,-3.8216 0.2054,-3.8494 -0.0268,-0.0272 -0.42241,-0.054 -1.58745,-0.10772 l -1.55187,-0.0715 0.0722,-1.0117 0.0722,-1.0117 4.54738,0.20961 4.54738,0.20962 -0.0635,1.0049 -0.0635,1.0049 -1.59012,-0.0589 -1.59014,-0.0589 -0.25796,3.83227 -0.25796,3.83226 -1.36153,-0.0553 -1.36154,-0.0553 0.24098,-3.8132 z"
           id="path6472"
           inkscape:connector-curvature="0" />
        <path
           style="fill:#e6e6e6"
           d="m 229.11118,760.79296 c -0.19228,-0.15201 -2.92238,-2.2933 -3.32372,-2.60687 -0.46884,-0.36631 -2.16189,-1.6934 -2.70042,-2.11672 -0.28366,-0.22297 -0.53031,-0.40171 -0.54812,-0.3972 -0.0214,0.005 -0.0874,0.83508 -0.19405,2.43873 l -0.16167,2.43054 -1.36875,-0.0631 -1.36877,-0.0631 0.30296,-4.79382 c 0.35241,-5.57637 0.26251,-4.97525 0.69404,-4.64084 0.92112,0.71379 2.01903,1.56726 4.10045,3.18758 1.29877,1.01103 2.38617,1.83972 2.41643,1.84151 0.0519,0.003 0.0634,-0.12894 0.20543,-2.37674 0.13548,-2.14374 0.15547,-2.38149 0.20129,-2.39511 0.028,-0.008 0.62751,0.0114 1.33227,0.0439 0.95468,0.044 1.29047,0.0683 1.31699,0.0953 0.0274,0.0279 -0.033,1.12225 -0.26239,4.75116 -0.16388,2.59322 -0.30785,4.73499 -0.31994,4.75949 -0.037,0.0751 -0.14889,0.0422 -0.32203,-0.0947 z"
           id="path6470"
           inkscape:connector-curvature="0" />
        <path
           style="fill:#e6e6e6"
           d="m 242.50331,753.81889 c -0.32703,-0.0787 -0.62699,-0.32066 -0.75759,-0.61113 -0.0618,-0.13755 -0.0703,-0.20035 -0.0564,-0.42013 0.0139,-0.22004 0.0304,-0.2821 0.1107,-0.41809 0.12032,-0.2036 0.33443,-0.37883 0.57885,-0.47374 0.16579,-0.0644 0.22889,-0.0729 0.46029,-0.0626 0.23853,0.0107 0.2901,0.0231 0.46628,0.11309 0.32545,0.16611 0.52293,0.4272 0.58536,0.77391 0.0742,0.41224 -0.24866,0.89215 -0.71206,1.05837 -0.19038,0.0683 -0.48597,0.0859 -0.67545,0.0403 z"
           id="path6468"
           inkscape:connector-curvature="0" />
        <path
           style="fill:#1a1a1a;fill-opacity:1"
           d="m 243.15007,753.55077 c 0.19723,-0.0932 0.36452,-0.2587 0.43897,-0.43424 0.0801,-0.18898 0.0849,-0.30426 0.0211,-0.5061 -0.18313,-0.57875 -0.98548,-0.75774 -1.45217,-0.32395 -0.41735,0.38793 -0.27607,1.06973 0.26554,1.28145 0.19959,0.078 0.54232,0.0699 0.72656,-0.0172 z"
           id="path6466"
           inkscape:connector-curvature="0" />
        <path
           style="fill:#e6e6e6"
           d="m 242.40567,753.30098 c -0.0293,-0.0195 -0.0294,-0.13937 -1.9e-4,-0.49689 l 0.0384,-0.47119 0.25819,0.004 c 0.32071,0.004 0.44811,0.0537 0.51265,0.19835 0.0721,0.16172 0.0595,0.20036 -0.13844,0.42379 -0.0349,0.0394 -0.0291,0.0756 0.0337,0.21118 0.0637,0.13752 0.068,0.16597 0.0273,0.17808 -0.0997,0.0297 -0.18847,-0.0258 -0.25815,-0.16106 -0.12597,-0.24464 -0.25746,-0.24585 -0.29015,-0.003 -0.0146,0.10868 -0.0298,0.13448 -0.0814,0.1381 -0.0349,0.003 -0.0808,-0.007 -0.10204,-0.0213 z"
           id="path6464"
           inkscape:connector-curvature="0" />
        <path
           style="fill:#1a1a1a;fill-opacity:1"
           d="m 242.94936,752.79307 c 0.0334,-0.0199 0.0618,-0.0714 0.0647,-0.11715 0.006,-0.0987 -0.0695,-0.16157 -0.20217,-0.16769 -0.1238,-0.006 -0.17621,0.0372 -0.18334,0.14992 -0.003,0.049 0.0105,0.1053 0.03,0.12521 0.0475,0.0483 0.2166,0.0539 0.29082,0.01 z"
           id="path4157"
           inkscape:connector-curvature="0" />
        <path
           inkscape:connector-curvature="0"
           id="path4151"
           d="m 150.44441,759.15733 c -0.0847,-0.0425 -0.1077,-0.13332 -0.059,-0.23302 0.0201,-0.041 0.29603,-0.43592 0.61328,-0.87765 0.31726,-0.44174 0.72539,-1.01011 0.90696,-1.26306 0.18157,-0.25295 0.43408,-0.60413 0.56113,-0.7804 0.12705,-0.17627 0.38376,-0.53375 0.57045,-0.79437 0.18671,-0.26063 0.44356,-0.61809 0.57079,-0.79435 0.12724,-0.17627 0.50135,-0.69677 0.83139,-1.15668 0.33001,-0.45991 0.87487,-1.21875 1.21076,-1.6863 0.3359,-0.46756 0.72505,-1.01068 0.8648,-1.20695 0.13974,-0.19626 0.26451,-0.34601 0.27729,-0.33276 0.0407,0.0422 0.82076,1.45301 0.81899,1.48117 -0.001,0.0242 -0.23051,0.34981 -0.7781,1.1065 -0.0998,0.13794 -0.45111,0.6271 -0.78065,1.08704 -0.32955,0.45992 -0.93735,1.30656 -1.35068,1.88141 -1.34192,1.8663 -1.52217,2.1237 -1.52564,2.17861 -0.004,0.0528 0.14768,0.0612 6.20809,0.34783 6.14946,0.29089 6.21216,0.2943 6.27705,0.35402 0.0984,0.0905 0.0589,0.18758 -0.25324,0.62241 -0.31246,0.43528 -0.4446,0.56323 -0.6876,0.66574 l -0.17046,0.0719 -7.0181,-0.31815 c -5.04909,-0.22876 -7.03759,-0.32785 -7.08759,-0.35297 z m -0.79538,-0.36852 c -0.11826,-0.13361 -0.49086,-0.83703 -0.53432,-1.0087 -0.0487,-0.19231 -0.017,-0.40411 0.0885,-0.59237 0.0414,-0.0739 0.28307,-0.42337 0.53695,-0.77649 0.50289,-0.69949 1.20387,-1.67604 2.32158,-3.23426 0.39588,-0.55189 1.02609,-1.4299 1.40047,-1.95111 0.74086,-1.03142 1.65946,-2.31184 2.65959,-3.70716 0.35164,-0.49059 0.66999,-0.91972 0.70746,-0.95363 0.0818,-0.0741 0.21555,-0.0744 0.2996,-5.7e-4 0.0334,0.0292 0.29249,0.47205 0.57591,0.98399 0.28341,0.51194 0.70649,1.27652 0.94015,1.69906 0.43022,0.77795 0.58172,1.05049 0.74747,1.34464 0.0503,0.0894 0.34542,0.62134 0.65561,1.18203 0.99467,1.79789 1.65184,2.98333 2.00677,3.61991 0.19033,0.34135 0.33919,0.63005 0.33079,0.64154 -0.008,0.0115 -0.42416,0.002 -0.92391,-0.021 l -0.90861,-0.0419 -0.0552,-0.0817 c -0.0303,-0.045 -0.22422,-0.38755 -0.43081,-0.76133 -0.20659,-0.37378 -0.42409,-0.76607 -0.48334,-0.87174 -0.0592,-0.10567 -0.36545,-0.65754 -0.68045,-1.22637 -2.23016,-4.02721 -2.03304,-3.67871 -2.08198,-3.68097 -0.0211,-10e-4 -0.0856,0.0641 -0.14343,0.14457 -0.0578,0.0805 -0.25832,0.35955 -0.44558,0.62015 -0.18725,0.2606 -0.38987,0.54281 -0.45026,0.62714 -0.0604,0.0843 -0.22689,0.31636 -0.36999,0.51565 -1.55832,2.17025 -1.97714,2.75365 -2.19108,3.05208 -0.3067,0.42781 -0.6132,0.85471 -1.78103,2.48067 -0.50098,0.69752 -1.02659,1.43132 -1.16804,1.63068 -0.14143,0.19937 -0.28752,0.38376 -0.32465,0.40976 -0.0988,0.0692 -0.21377,0.0529 -0.29818,-0.0426 z"
           style="fill:#0e6936" />
        <path
           style="fill:#1a1a1a;fill-opacity:1"
           d="m 173.82265,756.27306 c 0.86634,-0.12564 1.56506,-0.53727 2.00617,-1.18186 0.53927,-0.78801 0.65923,-1.78313 0.32191,-2.67033 -0.28284,-0.74393 -0.83863,-1.27074 -1.63524,-1.54996 -0.43721,-0.15326 -0.71619,-0.19027 -1.81722,-0.24115 l -1.01489,-0.0469 -0.17751,2.80895 c -0.0976,1.54492 -0.16751,2.81923 -0.1553,2.8318 0.0122,0.0126 0.50411,0.0389 1.09307,0.0585 0.91992,0.0306 1.11427,0.0293 1.37901,-0.009 z"
           id="path6484"
           inkscape:connector-curvature="0" />
        <path
           style="fill:#deaa87;fill-rule:evenodd;stroke:#000000;stroke-width:1px;stroke-linecap:butt;stroke-linejoin:miter;stroke-opacity:1"
           d="m 38.596783,623.42815 c 0,0 10.479857,22.05218 9.467135,34.22733 -0.396869,4.77124 -5.301035,12.50202 -4.671095,16.75713 1.2325,8.32527 6.342397,15.74448 13.836583,19.57416 18.825648,9.62028 44.233364,4.5037 64.386874,-1.88308 15.91993,-5.04513 31.74881,-17.81183 42.23799,-30.807 10.08238,-12.49118 14.90058,-29.20526 16.74954,-45.15096 1.35253,-11.66438 -4.36944,-34.95557 -4.36944,-34.95557 z"
           id="path6430"
           inkscape:connector-curvature="0"
           sodipodi:nodetypes="csssssscc" />
        <path
           style="fill:#ececec;fill-rule:evenodd;stroke:#000000;stroke-width:1px;stroke-linecap:butt;stroke-linejoin:miter;stroke-opacity:1"
           d="m 43.876913,670.30478 c 0,0 -0.21725,7.85007 4.012905,12.5849 8.808123,9.85897 24.122524,12.88512 37.333461,13.38855 19.744781,0.75241 39.844501,-6.18544 57.158811,-15.7058 9.95579,-5.47424 25.23227,-22.91502 25.23227,-22.91502 L 70.289895,769.40032 c 0,0 -3.173189,-30.6543 -8.239109,-45.05762 -4.790737,-13.62092 -17.717111,-23.95729 -20.597771,-38.10588 -1.461847,-7.17998 2.423898,-15.93204 2.423898,-15.93204 z"
           id="path6436"
           inkscape:connector-curvature="0"
           sodipodi:nodetypes="csssccssc" />
        <path
           style="fill:#ffccaa;fill-rule:evenodd;stroke:#000000;stroke-width:1px;stroke-linecap:butt;stroke-linejoin:miter;stroke-opacity:1"
           d="m 0,483.14124 c -8.0401205,36.55494 8.5862966,99.50003 16.162441,111.11678 7.576144,11.61676 48.992398,56.06347 59.599,56.56855 10.606602,0.50507 50.507629,-3.03046 58.588849,-10.10153 8.08122,-7.07107 42.42641,-47.98225 43.94163,-56.06347 1.51523,-8.08122 0,-91.92388 -3.03045,-104.55079 -3.03046,-12.6269 -27.77919,-66.67006 -41.41625,-70.71067 -13.63706,-4.04061 -78.791906,0.50507 -90.408661,7.07106 C 31.819805,423.03717 5.6976335,457.23657 0,483.14124 Z"
           id="path6241"
           inkscape:connector-curvature="0"
           sodipodi:nodetypes="sssssssss" />
        <path
           style="fill:#ac9d93;fill-rule:evenodd;stroke:#000000;stroke-width:1px;stroke-linecap:butt;stroke-linejoin:miter;stroke-opacity:1"
           d="m 6.6189172,534.27145 c 0,0 4.8525338,42.88384 13.6605218,55.15898 7.595824,10.58582 39.384128,27.94943 39.384128,27.94943 0,0 -15.018367,-39.04359 -8.145787,-52.92133 4.879424,-9.85299 12.686152,-12.8812 23.638733,-11.91632 20.870103,1.83858 33.962307,-6.39468 55.517287,-5.90231 3.78241,0.0864 14.05701,-1.82519 16.27379,3.17141 6.60329,14.88379 1.00028,36.87057 1.00028,36.87057 0,0 14.99173,-12.93136 18.22222,-21.2132 5.28435,-13.54721 10.6066,-41.41625 10.6066,-41.41625 l 6.566,1.51522 c 0,0 -1.4194,1.95429 -1.95299,5.14608 -2.40848,14.40682 2.80841,42.41943 -4.15727,56.98817 -10.36883,21.68646 -31.84551,46.10857 -45.53581,55.04345 -9.83545,6.41905 -50.178059,13.32624 -59.3819,7.57614 C 46.417854,634.14242 26.955188,614.74798 13.191191,590.25689 3.8759207,573.68169 -0.72824119,534.94094 -0.72824119,534.94094 Z"
           id="path6277"
           inkscape:connector-curvature="0"
           sodipodi:nodetypes="cscsssscsccssssacc" />
        <path
           style="fill:#e9afaf;fill-rule:evenodd;stroke:#000000;stroke-width:0.84068364px;stroke-linecap:butt;stroke-linejoin:miter;stroke-opacity:1"
           d="m 58.413032,568.92994 85.838278,-11.63213 c 0,0 1.66159,4.04671 0.96443,5.98223 -2.37013,6.58015 -8.66555,12.7976 -16.39513,16.07727 -15.58788,6.61395 -35.983736,7.96823 -53.043031,4.11278 -9.230558,-2.08613 -16.805934,-3.60015 -19.293385,-10.80125 -0.447882,-1.29661 1.928838,-3.7389 1.928838,-3.7389 z"
           id="path6281"
           inkscape:connector-curvature="0"
           sodipodi:nodetypes="ccssssc" />
        <path
           style="fill:#ececec;fill-rule:evenodd;stroke:#000000;stroke-width:0.79633224px;stroke-linecap:butt;stroke-linejoin:miter;stroke-opacity:1"
           d="m 140.25822,563.32688 c 0,0 -5.38595,9.25104 -18.60602,12.22458 -13.22007,2.97355 -34.763892,5.9471 -42.108375,3.96474 -7.344483,-1.98237 -20.074921,-5.61671 -20.074921,-5.61671 z"
           id="path6247"
           inkscape:connector-curvature="0"
           sodipodi:nodetypes="csscc" />
        <path
           style="fill:none;fill-rule:evenodd;stroke:#000000;stroke-width:1px;stroke-linecap:butt;stroke-linejoin:miter;stroke-opacity:1"
           d="m 129.29953,526.07273 c 4.54568,1.51523 22.82034,10.69326 24.33557,22.81509 1.51523,12.12183 1.66317,26.67713 1.66317,26.67713"
           id="path6257"
           inkscape:connector-curvature="0"
           sodipodi:nodetypes="csc" />
        <path
           style="fill:none;fill-rule:evenodd;stroke:#000000;stroke-width:1px;stroke-linecap:butt;stroke-linejoin:miter;stroke-opacity:1"
           d="m 54.548237,549.81131 c 0,0 -8.828647,8.85451 -10.101525,14.64722 -2.970146,13.51677 -0.735598,23.87844 7.071068,40.91117"
           id="path6259"
           inkscape:connector-curvature="0"
           sodipodi:nodetypes="csc" />
        <path
           style="fill:#e8fcff;fill-opacity:0.49112429;fill-rule:evenodd;stroke:#000000;stroke-width:1px;stroke-linecap:butt;stroke-linejoin:miter;stroke-opacity:1"
           d="m 104.55079,482.13109 c 1.95863,-4.10553 6.4974,-6.63539 10.6066,-8.58629 10.41001,-4.94231 22.3387,-7.78684 33.84011,-7.07107 6.21725,0.38692 13.72496,1.24636 17.67767,6.06091 3.98864,4.85832 4.10847,12.60455 2.52538,18.68783 -1.27203,4.88796 -4.68229,9.65806 -9.09137,12.12183 -11.21696,6.26798 -26.00564,6.97635 -38.3858,3.53553 -6.84558,-1.90259 -13.96503,-6.28708 -17.17259,-12.62691 -1.82412,-3.60543 -1.73981,-8.47497 0,-12.12183 z"
           id="path6271"
           inkscape:connector-curvature="0"
           sodipodi:nodetypes="sssssssss" />
        <path
           style="fill:#e8fcff;fill-opacity:0.49112429;fill-rule:evenodd;stroke:#000000;stroke-width:1px;stroke-linecap:butt;stroke-linejoin:miter;stroke-opacity:1"
           d="m 82.832509,492.73769 c -1.115172,-4.65391 -4.709476,-9.18775 -9.091373,-11.11167 -8.029372,-3.52538 -15.0732,-3.36574 -23.738585,-2.0203 -7.384074,1.14649 -18.351455,4.49561 -24.243661,9.09136 -3.623456,2.82619 -6.21388,7.54004 -6.565992,12.12183 -0.383556,4.99095 1.521408,10.59244 5.050763,14.14214 4.16822,4.19225 10.773623,5.60157 16.667517,6.06092 7.867482,0.61317 18.289341,-1.4952 25.75889,-4.04061 5.345096,-1.82145 9.159095,-3.62454 12.626907,-8.08122 3.386721,-4.35247 4.820633,-10.79939 3.535534,-16.16245 z"
           id="path6273"
           inkscape:connector-curvature="0"
           sodipodi:nodetypes="ssssssssss" />
        <path
           style="fill:#552200;fill-rule:evenodd;stroke:#000000;stroke-width:1px;stroke-linecap:butt;stroke-linejoin:miter;stroke-opacity:1"
           d="m 147.48227,412.93564 c 0,0 -20.8247,-5.33304 -31.37439,-4.64481 -8.71301,0.56841 -19.63493,1.72079 -25.194151,7.17019 -11.209081,10.98765 -22.11687,34.83229 -36.365492,41.41625 -11.068422,5.11448 -16.667517,-9.09136 -16.667517,-9.09136 l 52.022857,-60.60916 46.972093,2.52538 20.70813,21.21321 z"
           id="path6283"
           inkscape:connector-curvature="0"
           sodipodi:nodetypes="cassccccc" />
        <path
           style="fill:none;fill-rule:evenodd;stroke:#000000;stroke-width:3.79590559;stroke-linecap:butt;stroke-linejoin:miter;stroke-miterlimit:4;stroke-dasharray:none;stroke-opacity:1"
           d="m 160.06858,476.56762 c 11.68293,-0.48989 11.68293,-0.48989 11.68293,-0.48989 l -0.64905,0"
           id="path6265"
           inkscape:connector-curvature="0" />
        <path
           style="fill:#784421;fill-rule:evenodd;stroke:#000000;stroke-width:1px;stroke-linecap:butt;stroke-linejoin:miter;stroke-opacity:1"
           d="m 184.00276,527.82166 c 8.08123,-27.27412 20.04805,-50.74133 8.4313,-74.98499 -11.61675,-24.24366 -13.63706,-44.95179 -28.28427,-47.47717 -14.64721,-2.52538 -30.92852,0.327 -30.92852,0.327 0,0 23.35237,29.97758 28.40314,42.60448 5.05076,12.62691 17.67767,53.03301 15.15229,66.67007 -2.52539,13.63706 -2.02031,22.22336 -2.02031,22.22336 z"
           id="path6243"
           inkscape:connector-curvature="0"
           sodipodi:nodetypes="csscsscc" />
        <path
           style="fill:none;fill-rule:evenodd;stroke:#000000;stroke-width:4.0999999;stroke-linecap:butt;stroke-linejoin:miter;stroke-miterlimit:4;stroke-dasharray:none;stroke-opacity:1"
           d="M -5.555839,519.50674 15.657364,499.30369 27.779195,496.7783"
           id="path6267"
           inkscape:connector-curvature="0" />
        <path
           style="fill:#784421;fill-rule:evenodd;stroke:#000000;stroke-width:1px;stroke-linecap:butt;stroke-linejoin:miter;stroke-opacity:1"
           d="m 113.64216,367.98385 c -13.63706,-0.50507 -60.104075,16.16245 -70.205601,22.22336 -10.101525,6.06092 -27.779195,27.27412 -28.789347,31.81981 -1.010153,4.54568 -18.6878222,42.4264 -19.1928985,51.51778 -0.5050762,9.09137 -2.020305,50.00255 -2.020305,50.00255 0,0 8.0812203,15.65736 10.1015254,16.66751 2.0203051,1.01016 10.1015251,1.51523 10.1015251,1.51523 0,0 -3.030457,-24.24366 -3.030457,-38.89087 0,-14.64721 6.060915,-28.78935 7.576144,-31.31473 1.515229,-2.52538 8.586296,10.10153 8.586296,10.10153 0,0 13.63706,2.0203 20.203051,-7.07107 6.565992,-9.09137 24.243661,-39.39595 24.243661,-45.45686 0,-6.06092 20.203052,-30.30458 23.738585,-30.30458 3.535534,0 34.345191,-5.05077 36.870571,4.54568 2.52538,9.59645 35.15214,2.19839 35.15214,2.19839 -27.52666,-35.35534 -39.69783,-37.04865 -53.33489,-37.55373 z"
           id="path6245"
           inkscape:connector-curvature="0"
           sodipodi:nodetypes="sssscscsscsssscs" />
        <ellipse
           style="opacity:1;fill:#000000;fill-opacity:1;fill-rule:evenodd;stroke:#000000;stroke-width:0.5;stroke-linecap:butt;stroke-miterlimit:4;stroke-dasharray:none;stroke-opacity:1"
           id="path6359"
           cx="55.053314"
           cy="499.55621"
           rx="6.0609155"
           ry="5.8083773" />
        <ellipse
           style="opacity:1;fill:#000000;fill-opacity:1;fill-rule:evenodd;stroke:#000000;stroke-width:0.5;stroke-linecap:butt;stroke-miterlimit:4;stroke-dasharray:none;stroke-opacity:1"
           id="path6359-1"
           cx="132.32999"
           cy="488.69708"
           rx="6.0609155"
           ry="5.8083773" />
        <path
           style="fill:none;fill-rule:evenodd;stroke:#000000;stroke-width:1px;stroke-linecap:butt;stroke-linejoin:miter;stroke-opacity:1"
           d="M 88.928572,494.8622 77.5,526.64792 c 0,0 -6.773809,5.19042 -6.785714,8.92857 -0.0095,2.97618 2.652338,5.90119 5.357143,7.14286 3.25297,1.49331 7.200073,-1.39407 10.714285,-0.71429 3.502532,0.67752 4.512741,3.36695 8.035715,3.92857 3.558107,0.56722 6.836471,0.23218 9.821431,-1.78571 2.60567,-1.76148 4.48908,-5.45473 7.14285,-7.14286 4.95561,-1.86196 14.18851,2.53131 11.07143,-7.85715"
           id="path6376"
           inkscape:connector-curvature="0"
           sodipodi:nodetypes="ccssssscc" />
        <path
           transform="matrix(0.97438871,0.22487029,-0.22487029,0.97438871,0,0)"
           style="opacity:1;fill:#333333;fill-opacity:1;fill-rule:evenodd;stroke:#000000;stroke-width:1.29999995;stroke-linecap:butt;stroke-miterlimit:4;stroke-dasharray:none;stroke-opacity:1"
           d="m 239.6377,727.92725 4.89233,0 0.12544,5.74786 -4.97434,1.07589 z"
           id="rect6494"
           inkscape:connector-curvature="0"
           sodipodi:nodetypes="ccccc" />
        <path
           style="fill:none;fill-rule:evenodd;stroke:#000000;stroke-width:1px;stroke-linecap:butt;stroke-linejoin:miter;stroke-opacity:1"
           d="m 41.211635,680.50806 c 0,0 3.594843,9.89355 8.73796,13.7104 8.728505,6.47766 20.586973,7.76698 31.411602,8.75405 10.469571,0.95469 21.182143,-0.40701 31.411603,-2.83219 12.74713,-3.02207 26.87365,-10.36325 26.87365,-10.36325"
           id="path6496"
           inkscape:connector-curvature="0"
           sodipodi:nodetypes="csssc" />
        <path
           style="fill:none;fill-rule:evenodd;stroke:#000000;stroke-width:3.4000001;stroke-linecap:butt;stroke-linejoin:miter;stroke-miterlimit:4;stroke-dasharray:none;stroke-opacity:1"
           d="m 74.751288,489.70724 c 0,0 5.050763,2.0203 8.586297,-1.01016 3.535534,-3.03045 3.535534,-4.54568 8.586297,-5.05076 5.050762,-0.50507 2.020305,-0.50507 7.071067,1.51523 5.050761,2.02031 13.131981,0 13.131981,0"
           id="path6263"
           inkscape:connector-curvature="0" />
        <path
           sodipodi:nodetypes="csscsscc"
           inkscape:connector-curvature="0"
           id="path7225"
           d="m 184.00276,527.82166 c 8.08123,-27.27412 20.04805,-50.74133 8.4313,-74.98499 -11.61675,-24.24366 -13.63706,-44.95179 -28.28427,-47.47717 -14.64721,-2.52538 -30.92852,0.327 -30.92852,0.327 0,0 23.35237,29.97758 28.40314,42.60448 5.05076,12.62691 17.67767,53.03301 15.15229,66.67007 -2.52539,13.63706 -2.02031,22.22336 -2.02031,22.22336 z"
           style="fill:#784421;fill-rule:evenodd;stroke:#000000;stroke-width:1px;stroke-linecap:butt;stroke-linejoin:miter;stroke-opacity:1" />
      </g>
    </g>
  </g>
</svg>
