<?xml version="1.0" encoding="utf-8"?>
<!-- Generator: Adobe Illustrator 21.1.0, SVG Export Plug-In . SVG Version: 6.00 Build 0)  -->
<svg version="1.1" id="Layer_1" xmlns="http://www.w3.org/2000/svg" xmlns:xlink="http://www.w3.org/1999/xlink" x="0px" y="0px"
	 viewBox="0 0 500 500" style="enable-background:new 0 0 500 500;" xml:space="preserve">
<style type="text/css">
	.st0{fill:#4A0D66;}
	.st1{fill:#231F20;}
</style>
<g>
	<path class="st0" d="M281,299.8v-208h54.1v174.4H498v33.7H281z"/>
	<g>
		<path class="st0" d="M198.9,152.2c-7.7-7.6-17.3-13.6-28.6-18c-11.1-4.3-24.1-6.4-38.5-6.4c-14.4,0-27.4,2.2-38.5,6.4
			c-11.3,4.3-21,10.4-28.7,18c-7.7,7.6-13.5,16.5-17.3,26.5c-3.7,9.7-5.5,20-5.5,30.6c0,10.7,1.9,21,5.5,30.7
			c3.8,10,9.7,18.9,17.3,26.4c7.7,7.6,17.3,13.6,28.6,18c11.1,4.3,24.1,6.4,38.5,6.4c14.4,0,27.4-2.2,38.5-6.4
			c11.3-4.3,21-10.3,28.7-18c7.7-7.6,13.5-16.5,17.3-26.5c3.7-9.7,5.6-20,5.6-30.6c0-10.6-1.9-20.9-5.6-30.7
			C212.5,168.8,206.7,159.9,198.9,152.2z M201.2,234.2c-3,7.8-7.5,14.8-13.6,20.7c-6.1,6-13.9,10.9-23.1,14.4
			c-9.3,3.6-20.3,5.4-32.7,5.4c-12.4,0-23.4-1.8-32.7-5.4c-9.2-3.5-17-8.3-23.1-14.4c-6-5.9-10.6-12.9-13.6-20.7
			c-3-7.8-4.5-16.2-4.5-24.9c0-8.7,1.5-17.1,4.5-24.9c3-7.8,7.5-14.8,13.6-20.7c6.1-6,13.8-10.8,23.1-14.4
			c9.3-3.5,20.3-5.3,32.7-5.3c12.4,0,23.4,1.8,32.7,5.3c9.2,3.5,17,8.4,23.1,14.4c6.1,6,10.6,13,13.6,20.7c3,7.9,4.5,16.3,4.5,24.9
			C205.7,218,204.2,226.4,201.2,234.2z"/>
		<g>
			<path class="st0" d="M107.8,309.1c-8.7-1.4-16.9-3.5-24.4-6.4c-13.9-5.4-25.9-12.9-35.5-22.1c-9.6-9.2-17-19.9-22-32
				c-5.1-12.2-7.7-25.4-7.7-39.2c0-13.8,2.6-27,7.7-39.2c5.1-12.1,12.5-22.9,22-32c9.6-9.2,21.6-16.6,35.6-22.1
				c14-5.5,30.3-8.3,48.4-8.3c18,0,34.3,2.8,48.4,8.3c13.9,5.4,25.9,12.9,35.5,22.1c9.6,9.1,17,19.9,22,32.1
				c5.1,12.2,7.7,25.4,7.7,39.2c0,13.9-2.6,27.1-7.7,39.2c-5.1,12.1-12.5,22.9-22,32c-9.7,9.2-21.6,16.7-35.6,22.1
				c-0.5,0.2-1.1,0.3-1.6,0.5l1.5,2.9l6.2,11.5c15.8-6.2,29.4-14.7,40.6-25.3c11.2-10.7,19.8-23.3,25.8-37.5
				c5.9-14.2,8.9-29.5,8.9-45.5c0-16-3-31.3-8.9-45.4c-5.9-14.2-14.6-26.8-25.8-37.5c-11.2-10.7-24.9-19.2-40.8-25.4
				c-15.9-6.2-34.2-9.4-54.3-9.4s-38.3,3.2-54.2,9.4c-15.9,6.2-29.7,14.8-40.8,25.4c-11.2,10.7-19.9,23.3-25.8,37.5
				C5,178.1,2,193.4,2,209.3c0,15.9,3,31.3,8.9,45.5c5.9,14.2,14.6,26.8,25.8,37.5c11.2,10.7,24.9,19.2,40.8,25.4
				c8.9,3.5,18.5,5.9,28.7,7.5L107.8,309.1z"/>
		</g>
	</g>
	<g>
		<polygon class="st1" points="174.4,309.1 114.3,309.1 104.5,408.5 144.4,408.5 151,341.5 188.6,408.5 224.6,408.5 275.2,342 
			268.6,408.5 308.3,408.5 318.1,309.1 257.9,309.1 209.7,374.6 		"/>
		<polygon class="st1" points="429.1,335.3 322.7,383.4 320.3,408.5 488.2,408.5 490.8,382.3 389.2,382.3 495.5,334.2 498,309.1 
			330.1,309.1 327.5,335.3 		"/>
	</g>
</g>
</svg>
