<?xml version="1.0" encoding="UTF-8" standalone="no"?>
<!-- Created with Inkscape (http://www.inkscape.org/) -->

<svg
   xmlns:dc="http://purl.org/dc/elements/1.1/"
   xmlns:cc="http://creativecommons.org/ns#"
   xmlns:rdf="http://www.w3.org/1999/02/22-rdf-syntax-ns#"
   xmlns:svg="http://www.w3.org/2000/svg"
   xmlns="http://www.w3.org/2000/svg"
   xmlns:sodipodi="http://sodipodi.sourceforge.net/DTD/sodipodi-0.dtd"
   xmlns:inkscape="http://www.inkscape.org/namespaces/inkscape"
   width="256"
   height="256"
   viewBox="0 0 256 256"
   id="svg4465"
   version="1.1"
   inkscape:version="0.91 r13725"
   sodipodi:docname="osmz5.svg">
  <defs
     id="defs4467" />
  <sodipodi:namedview
     id="base"
     pagecolor="#ffffff"
     bordercolor="#666666"
     borderopacity="1.0"
     inkscape:pageopacity="0.0"
     inkscape:pageshadow="2"
     inkscape:zoom="3.959798"
     inkscape:cx="77.525172"
     inkscape:cy="158.20574"
     inkscape:document-units="px"
     inkscape:current-layer="g5013"
     showgrid="false"
     units="px"
     inkscape:window-width="1920"
     inkscape:window-height="1017"
     inkscape:window-x="1912"
     inkscape:window-y="-8"
     inkscape:window-maximized="1" />
  <metadata
     id="metadata4470">
    <rdf:RDF>
      <cc:Work
         rdf:about="">
        <dc:format>image/svg+xml</dc:format>
        <dc:type
           rdf:resource="http://purl.org/dc/dcmitype/StillImage" />
        <dc:title></dc:title>
      </cc:Work>
    </rdf:RDF>
  </metadata>
  <g
     inkscape:label="Layer 1"
     inkscape:groupmode="layer"
     id="layer1"
     transform="translate(0,-796.36219)">
    <g
       transform="matrix(0.73782592,0,0,0.73782592,-1240.667,800.351)"
       id="g5013">
      <ellipse
         ry="82.892014"
         rx="70.102402"
         cy="139.50032"
         cx="1776.4724"
         id="path4332-9-4"
         style="fill:none;fill-opacity:1;stroke:#ffffff;stroke-width:32.38627625;stroke-linecap:round;stroke-linejoin:miter;stroke-miterlimit:4;stroke-dasharray:none;stroke-dashoffset:0;stroke-opacity:1" />
      <path
         id="path4185-6-8-9-5"
         d="m 1905.7823,296.14749 c 0.3134,-3.48046 0.8821,-7.17798 1.2638,-8.2167 0.5052,-1.37464 9.7164,-5.94388 33.8481,-16.79029 18.2347,-8.19593 33.5547,-15.25622 34.0446,-15.68953 0.4898,-0.43332 -13.9738,-0.78785 -32.1416,-0.78785 l -33.0323,0 0.5477,-4.92188 c 0.3012,-2.70703 0.7567,-6.29296 1.0123,-7.96875 l 0.4645,-3.04687 54.1468,0 54.1468,0 -0.7037,6.32812 c -0.387,3.48047 -0.7253,7.00105 -0.7518,7.8235 -0.034,1.04437 -10.3168,6.13382 -34.096,16.875 l -34.0478,15.37963 32.6564,0.24638 32.6565,0.24639 -0.4357,2.09736 c -0.2396,1.15355 -0.7017,4.94503 -1.0269,8.42549 l -0.5913,6.32813 -54.2651,0 -54.2651,0 z"
         style="fill:#000000;fill-opacity:1"
         inkscape:connector-curvature="0" />
      <path
         id="path4181-8-5-4-1"
         d="m 1873.5745,225.21516 c -0.3141,-1.15944 1.4608,-9.67466 3.9442,-18.92272 2.4834,-9.24804 4.9555,-18.45793 5.4935,-20.46639 1.2346,-4.60831 2.1475,-4.57106 9.0573,0.36952 15.0345,10.74994 32.3915,16.09576 52.0858,16.04204 29.0571,-0.0793 46.2991,-9.33755 46.2991,-24.8608 0,-9.92408 -4.0192,-11.88235 -28.2067,-13.74339 -10.5253,-0.80982 -26.5198,-2.03428 -35.5432,-2.72101 -25.4678,-1.93821 -37.5001,-7.61872 -46.8582,-22.12192 -6.6332,-10.28015 -8.8287,-19.09281 -8.8811,-35.6473 -0.039,-12.385129 0.1679,-13.903805 3.0102,-22.088726 5.5489,-15.978846 18.2646,-30.076167 33.9404,-37.628173 13.8957,-6.694409 20.6951,-7.978778 42.2262,-7.976285 17.5819,0.0028 21.4732,0.399945 30.4686,3.115581 15.9852,4.825761 32.2918,12.678972 36.7114,17.68003 0.7982,0.903178 -0.1662,6.58533 -3.6352,21.417839 -2.5969,11.103689 -5.0341,20.67756 -5.4161,21.275282 -0.382,0.597737 -2.3321,0.08867 -4.3336,-1.131266 -8.0892,-4.93052 -20.0916,-10.108519 -29.8668,-12.884978 -8.2023,-2.329685 -13.4294,-2.918649 -25.3346,-2.854484 -15.4986,0.08357 -23.0379,1.47629 -32.9578,6.088452 -13.5241,6.287863 -16.7237,17.792818 -6.9457,24.974908 1.4506,1.0655 11.1995,2.32181 26.7187,3.44318 44.8961,3.24399 52.2028,4.18843 60.1938,7.78045 17.9877,8.08564 27.5222,26.01069 27.5222,51.74253 0,17.17266 -3.7325,30.01823 -12.4651,42.89946 l -5.6446,8.32623 -65.5058,0 c -58.9675,0 -65.5628,-0.21041 -66.0769,-2.10808 z"
         style="fill:#482365;fill-opacity:1"
         inkscape:connector-curvature="0" />
      <path
         inkscape:connector-curvature="0"
         id="path4183-4-2-6-4"
         d="m 1748.2768,244.59696 c -39.1579,-13.22515 -63.2653,-56.31852 -61.4478,-108.82198 2.1773,-62.888607 42.6064,-105.868831 95.8477,-101.895568 43.9053,3.276545 75.8126,37.256981 82.5012,87.861858 6.4162,48.54422 -10.3655,92.83085 -43.4715,114.72068 -3.4441,2.27716 -6.5174,3.98752 -6.7745,4.1403 -3.8306,2.27641 -13.879,6.39027 -26.1384,8.06779 -11.0613,1.51357 -17.4172,3.72849 -40.5167,-4.07308 z m 70.5544,-22.38161 c 11.0849,-7.42522 23.4166,-22.77191 28.4403,-35.39346 6.4354,-16.16857 7.8715,-24.52678 7.8715,-45.8129 0,-21.36001 -0.8371,-26.26787 -7.3612,-43.157084 -2.5384,-6.571151 -6.1154,-12.619169 -12.2054,-20.63656 -7.1386,-9.397808 -10.2532,-12.400585 -18.1762,-17.523499 -5.259,-3.400272 -12.2791,-7.147004 -15.6005,-8.326075 -8.3104,-2.950199 -31.6642,-4.111762 -41.3257,-2.055449 -31.58,6.721392 -53.8638,31.838753 -61.394,69.201007 -2.3039,11.43113 -2.3584,33.59339 -0.1109,45.07213 6.3915,32.6432 24.9276,56.9091 51.0606,66.84405 22.1635,6.75278 49.52,7.35063 68.8015,-8.21216 z"
         style="fill:#482365;fill-opacity:1;stroke:none;stroke-opacity:1"
         sodipodi:nodetypes="sssssssscssssssssscc" />
      <path
         inkscape:connector-curvature="0"
         id="path4179-8-3-5-4"
         d="m 1776.6381,67.473075 c -10.6043,-0.01275 -14.6548,0.563062 -21.3709,3.037592 -18.6034,6.854552 -33.0718,24.762784 -38.6382,47.826893 -2.7813,11.52401 -3.0052,31.92119 -0.4739,43.18476 6.0682,27.00074 21.4225,45.90808 42.0897,51.82998 3.4736,0.99536 11.7909,1.85633 18.4835,1.91442 20.5633,0.17838 34.5468,-6.42039 46.2077,-21.80541 10.6132,-14.0027 15.6004,-30.63606 15.6004,-52.03194 0,-21.7854 -4.6298,-37.11728 -15.5794,-51.59484 -12.2368,-16.179513 -24.9875,-22.335535 -46.3189,-22.361455 z m 0.453,13.779826 c 16.0311,0 27.7967,5.441316 37.7679,17.464788 14.0839,16.982721 17.4231,46.155651 8.1232,70.982331 -5.8669,15.66168 -16.9893,26.14003 -32.2534,30.38702 -27.979,7.7847 -54.7175,-7.7061 -63.0096,-36.50371 -2.6136,-9.07623 -3.5347,-24.87818 -2.013,-34.52566 4.7599,-30.179017 23.7058,-47.804769 51.3849,-47.804769 z"
         style="fill:#482365;fill-opacity:1;stroke:none" />
      <path
         id="path4187-0-7-0-1"
         d="m 1765.4287,301.77249 c -0.014,-0.38671 1.3359,-14.73861 3.0002,-31.89309 l 3.026,-31.18998 19.6451,0.25248 19.6452,0.25247 10.8703,20.3585 c 5.9786,11.19718 11.2795,20.23652 11.7798,20.08742 0.5003,-0.14909 7.6309,-9.41589 15.8458,-20.59288 l 14.9362,-20.32179 19.5448,0 c 15.0314,0 19.536,0.27062 19.5064,1.17187 -0.021,0.64454 -1.4109,14.88282 -3.0883,31.64063 l -3.0499,30.46875 -12.7945,0.26047 -12.7944,0.26048 0.4314,-3.07298 c 0.7132,-5.08109 4.0609,-39.56502 3.8603,-39.76557 -0.1024,-0.10235 -7.5292,9.4827 -16.504,21.30013 l -16.318,21.48622 -11.8052,-0.0306 -11.8052,-0.0306 -11.7034,-21.06312 c -6.4369,-11.5847 -12.0267,-21.06311 -12.4219,-21.06311 -0.3951,0 -0.7205,0.73828 -0.7229,1.64062 0,0.90235 -0.8442,10.07813 -1.8705,20.39063 -1.0264,10.3125 -1.8681,19.06641 -1.8705,19.45312 0,0.38672 -5.6999,0.70313 -12.6608,0.70313 -6.9609,0 -12.6678,-0.31641 -12.682,-0.70313 z"
         style="fill:#000000;fill-opacity:1"
         inkscape:connector-curvature="0" />
    </g>
  </g>
</svg>
