<?xml version="1.0" encoding="utf-8"?>
<!-- Generator: Adobe Illustrator 20.0.0, SVG Export Plug-In . SVG Version: 6.00 Build 0)  -->
<svg version="1.1" id="Layer_1" xmlns="http://www.w3.org/2000/svg" xmlns:xlink="http://www.w3.org/1999/xlink" x="0px" y="0px"
	 viewBox="0 0 792 274.6" style="enable-background:new 0 0 792 274.6;" xml:space="preserve">
<style type="text/css">
	.st0{fill:url(#SVGID_1_);}
	.st1{fill:#FFFFFF;}
	.st2{fill:#231F20;}
</style>
<g>
	<linearGradient id="SVGID_1_" gradientUnits="userSpaceOnUse" x1="91.4701" y1="70.3554" x2="699.4608" y2="262.1907">
		<stop  offset="0" style="stop-color:#F2A73A;stop-opacity:0"/>
		<stop  offset="0.2" style="stop-color:#F2A73A"/>
		<stop  offset="0.4618" style="stop-color:#F3A637"/>
		<stop  offset="0.6606" style="stop-color:#F8A52C"/>
		<stop  offset="0.7046" style="stop-color:#FAA428"/>
		<stop  offset="1" style="stop-color:#FAA428;stop-opacity:0"/>
	</linearGradient>
	<path class="st0" d="M739.9,139.6c-1.2-6.7-1.8-10.8-1.2-10.7l-2.2-8.6c-1.5-0.2,0,8.2,1.1,15.1c1.2,6.8,1.8,11,1.2,11.1
		c-0.7,0.1-2.1-4.1-4.5-11c-2.4-7.1-5.5-16.1-7.2-16.3c-1.8-0.2-0.2,9,1,16.6c1.2,7.5,1.9,12.1,1.1,12.3c-0.8,0.1-2.5-4.5-5.2-12.1
		c-2.8-7.9-6.3-17.8-8.4-18.1c-2.2-0.3-0.6,10,0.8,18.4c1.3,8.4,2,13.5,1.1,13.7c-1,0.2-3-4.9-6.1-13.5c-3.2-8.8-7.3-20-9.9-20.3
		c-2.7-0.3-1,11.2,0.4,20.6c1.4,9.4,2.1,15.2,0.9,15.4c-1.3,0.2-3.6-5.5-7.3-15.2c-3.8-10-8.7-22.7-12.1-23.1
		c-3.5-0.4-1.8,12.8-0.3,23.5c1.5,10.8,2.3,17.5,0.6,17.7c-1.7,0.3-4.5-6.3-9-17.4c-4.7-11.4-10.6-26-15.2-26.7l0,0c0,0,0,0,0,0
		c0,0,0,0,0,0l0,0c-4.7-0.4-2.9,14.8-1.4,27.3c1.5,12.7,2.3,20.5,0,20.8c-2.3,0.4-5.9-7.3-11.7-20.4c-6-13.6-13.6-31-20.1-31.8
		c-6.9-0.8-5.1,17.6-3.6,32.7c1.5,15.3,2.2,24.7-1.1,25.2c-3.4,0.5-8.2-8.8-15.9-24.6c-8.1-16.6-18.5-38-28.3-39.2
		c-10.6-1.3-9.1,21.6-7.9,40.6c1.3,19.2,1.7,31.2-3.6,32c-5.5,0.9-12.5-10.9-23.8-31C530.8,122,516,95.5,500.1,91.5
		c-2.6,6.2-8.2,10.6-14.6,10.6c-0.6,0-1.3-0.1-1.9-0.1c-3.8,10.7-3.6,27.6-3.5,42.6c0.3,25.9-0.3,42.2-10,43.7
		c-10.3,1.6-22-14.2-41.1-41.9c-20.5-29.7-48.1-69.6-82.5-73.8c-40-4.9-44.7,40.3-48.6,78.5c-4.1,39.8-8.3,65.3-31.6,68.9
		c-25.5,4-51.9-20.3-95.6-64.3c-27.3-27.5-61-61.3-104.2-88.2l-28,54.1c26.9,15.2,54.1,39.1,86.3,68.7c50,45.8,105,96.2,161.2,81.8
		c46.6-12,50.4-61.6,53.3-99.5c2.7-35.9,5.6-57,22.3-56.4c15.6,0.5,30.8,20,52.7,50.2c20.6,28.5,44.4,61.4,66.8,55.6
		c19.9-5.1,19.2-37.5,18.6-62.7c-0.5-24.2-0.2-38.6,7.6-38.3c7.5,0.2,15.9,13.8,28.3,35.3c11.9,20.6,25.9,45,37.9,41.9
		c11-2.8,9.2-26.9,7.9-45.7c-1.3-18.3-1.8-29.1,2.8-29c4.4,0.1,9.9,10.6,18.2,27.3c8,16.2,17.6,35.5,25,33.6
		c6.9-1.8,5-20.9,3.4-35.9c-1.5-14.7-2.2-23.4,0.8-23.3c2.9,0.1,6.9,8.6,13,22.2c5.9,13.3,13.1,29.3,18.1,28
		c4.8-1.2,2.8-17.1,1.3-29.6c-1.5-12.2-2.2-19.5-0.2-19.5c2.1,0.1,5.1,7.3,9.8,18.7c4.7,11.3,10.3,25,14,24
		c3.5-0.9,1.6-14.5,0.1-25.2c-1.5-10.5-2.2-16.8-0.7-16.8c1.5,0.1,4,6.2,7.9,16.2c3.8,9.8,8.4,21.7,11.2,21
		c2.7-0.7,0.9-12.5-0.5-21.9c-1.4-9.2-2.1-14.7-0.9-14.7c1.2,0,3.3,5.5,6.5,14.2c3.2,8.7,7.1,19.2,9.3,18.7c2.1-0.5,0.4-11-0.9-19.4
		c-1.3-8.2-2-13.1-1.1-13.1c0.9,0,2.7,4.9,5.5,12.7c2.7,7.8,6.1,17.3,7.9,16.8c1.7-0.4,0.1-9.9-1.1-17.4c-1.2-7.4-1.9-11.8-1.1-11.8
		c0.8,0,2.3,4.4,4.7,11.5c2.4,7.1,5.4,15.7,6.8,15.3C742.5,155,741.1,146.4,739.9,139.6z"/>
	<g>
		<path class="st1" d="M790.5,90.4c0-0.1-0.1-0.2-0.1-0.3c-1.2-3.6-2.9-6.8-5-9.5c-2.1-2.6-4.8-5.1-8-7.3c-0.3-0.2-0.6-0.5-1-0.7
			l7.6-5.8l2.3-1.8c3.2-2.5,4.2-6.8,2.6-10.5l-1.1-2.5c-1.5-3.2-3.3-6-5.3-8.4c-0.1-0.1-0.2-0.2-0.2-0.2c-2.2-2.3-4.7-4.3-7.5-6
			c-0.3-0.2-0.7-0.4-1-0.5c-2.5-1.3-5.2-2.3-8.1-3.1c-0.3-0.1-0.5-0.1-0.8-0.2c-3-0.7-6.2-1-9.4-1c-4.8,0-9.5,0.7-14,2.1
			c-4.9,1.6-9.1,4-12.5,7.1c-3.7,3.2-6.5,7-8.4,11.3c-0.5,1.1-0.9,2.3-1.3,3.5c-0.2-0.7-0.4-1.5-0.6-2.2c-0.1-0.2-0.2-0.5-0.2-0.7
			c-0.7-1.8-1.3-3.1-1.8-4.1c-1.5-2.7-3.3-5.2-5.4-7.4c-1.9-2-4.3-3.7-7.1-5.3c0,0-0.1-0.1-0.2-0.1c-2.7-1.4-5.5-2.4-8.2-3
			c-2.8-0.7-5.8-1-8.9-1c-3.5,0-6.9,0.4-10.1,1.3c-3.5,0.9-6.7,2.3-9.5,4c-1.3,0.7-2.6,1.6-3.9,2.6c-0.9-0.8-1.9-1.5-2.8-2.2
			c-2.5-1.8-5.6-3.2-9-4.3c-0.1,0-0.3-0.1-0.4-0.1c-3.2-0.8-6.6-1.3-10.2-1.3c-3.6,0-7.1,0.4-10.3,1.2c-2.4,0.6-4.7,1.5-6.9,2.5
			c-1.3-0.7-2.7-1-4.1-1h-20.5c-2.7,0-5.2,1.2-6.8,3.2l-1.9-1c-0.6-0.3-1.7-0.9-3.8-1.9c-0.3-0.2-0.7-0.3-1-0.4
			c-1.4-0.4-2.7-0.9-3.1-1c-0.3-0.1-0.7-0.2-0.9-0.3c-1.6-0.4-3-0.7-4.4-0.9c-1.7-0.2-3.3-0.3-4.9-0.3c-3.2,0-6.3,0.5-9.2,1.5
			l-0.1,0l-0.1,0c-0.9,0.3-1.7,0.7-2.5,1c-0.6-0.1-1.2-0.2-1.8-0.2h-21.5c-4.9,0-8.9,4-8.9,8.9v13.1c-0.2-0.3-0.4-0.6-0.6-1
			c-1.8-2.8-3.8-5.4-6-7.8c-2.2-2.4-4.7-4.6-7.5-6.7l-0.1-0.1l0,0l-0.1-0.1c-2.9-2-5.6-3.5-8.3-4.7c-6-2.7-12.5-4-19.1-4
			c-2.9,0-6.1,0.3-9.5,1c-0.1,0-0.2,0-0.3,0.1c-3.5,0.8-6.6,1.8-9.2,3c-2.6,1.2-5.4,2.7-8.1,4.6c-0.1,0.1-0.3,0.2-0.4,0.3
			c-2.6,2-5,4.1-7.1,6.2c-1.5,1.7-2.9,3.4-4.2,5.1c-1.2-3.4-4.5-5.9-8.3-5.9h-33.1v-5.5h33.1c4.9,0,8.9-4,8.9-8.9V8.9
			c0-4.9-4-8.9-8.9-8.9h-65.4c-4.9,0-8.9,4-8.9,8.9v44c-1.3-2.1-2.8-4-4.3-5.8c-8.4-9.4-19.9-14.2-34.2-14.2
			c-6.9,0-13.3,1.3-18.9,3.9c-3.2,1.4-6.1,3.2-8.9,5.3c-0.2-0.9-0.6-1.7-1.1-2.5c-1.6-2.6-4.4-4.1-7.5-4.1h-23.7
			c-3.6,0-6.9,2.2-8.2,5.6l-0.8,2l-7.5,19.1L242.3,43l-0.8-2.1c-1.4-3.4-4.6-5.6-8.2-5.6h-23.7c-1.5,0-2.9,0.4-4.2,1
			c-1.3-0.7-2.7-1-4.2-1h-21.5c-1.2,0-2.5,0.3-3.6,0.7c-1.7-0.8-3.5-1.4-5.3-1.9l-0.1,0l0,0l0,0c-3.5-0.9-7-1.3-10.5-1.3
			c-6.3,0-12.2,1.3-17.4,3.9c-0.7,0.4-1.4,0.7-2.1,1.1l8.2-25.2c0.9-2.7,0.4-5.7-1.3-7.9c-1.7-2.3-4.3-3.7-7.2-3.7h-20.4
			c-3.9,0-7.3,2.5-8.5,6.2l-13.6,44L82.5,7.3c-1.2-3.6-4.6-5.9-8.4-5.9h0l-0.1,0c-3.8,0-7.1,2.5-8.3,6.1L51.3,51.1L37.6,7.3
			c-1.2-3.7-4.6-6.2-8.5-6.2H8.9C6,1.1,3.4,2.5,1.7,4.8C0,7.1-0.4,10,0.4,12.7l40.7,125.6c1.2,3.6,4.5,6.1,8.3,6.1l0.1,0
			c3.7,0,7.1-2.4,8.4-5.9l16.5-46.5l16.7,46.6c1.3,3.5,4.6,5.9,8.3,5.9h0.1c3.8-0.1,7.2-2.5,8.3-6.1l11.8-36.5
			c0.2,0.9,0.4,1.8,0.7,2.6c1.7,6.2,4.4,11.9,8.1,16.9c4,5.2,8.8,9.1,14.3,11.6c5.4,2.5,11.3,3.8,17.7,3.8c3.2,0,6.4-0.4,9.4-1.1
			c2.2-0.5,4.5-1.3,6.7-2.4c1,0.4,2,0.5,3,0.5h21.5c4.9,0,8.9-4,8.9-8.9V67.1l28.8,64l2.7,6c1.4,3.2,4.6,5.2,8.1,5.2
			c3.5,0,6.7-2.1,8.1-5.2l2.7-6l18.8-41.5c0.3,5.5,1.3,10.7,2.9,15.5c2.1,6.4,5.3,12.1,9.7,17c4.4,5.1,9.7,8.9,15.7,11.2
			c5.7,2.4,12.1,3.6,18.8,3.6c4.7,0,9.3-0.6,13.6-1.7c4.9-1.4,9.2-3.3,12.6-5.7c3.6-2.3,7-5.4,10.2-9c0.7-0.8,1.4-1.7,2.1-2.6v7.3
			c0,4.9,4,8.9,8.9,8.9h23.4c4.9,0,8.9-4,8.9-8.9V89.3h31.6c0.1,1.7,0.4,3.5,0.6,5.3c0.7,3.6,1.6,6.9,2.8,9.9
			c1.1,3.1,2.6,6.1,4.5,8.9c1.6,2.6,3.6,5.3,6,7.8c2,2.3,4.5,4.5,7.3,6.6c2.5,1.9,5.4,3.5,8.6,4.9c0.3,0.1,0.7,0.3,1,0.4
			c3,1.2,5.7,2,8.1,2.6l0.1,0l0.1,0l0.2,0c3.3,0.6,6.5,1,9.4,1c2.9,0,6.1-0.3,9.5-1c0.2,0,0.3-0.1,0.4-0.1c2.8-0.7,5.6-1.5,8.3-2.6
			c0.3-0.1,0.5-0.2,0.7-0.3c2.8-1.2,5.7-2.9,8.4-4.9c2.6-1.7,5.2-4,7.7-6.7c2.1-2.3,4.1-4.8,6-7.6c0,0,0.1-0.1,0.1-0.2
			c0.2-0.3,0.3-0.5,0.5-0.8V125c0,4.9,4,8.9,8.9,8.9h21.5c4.9,0,8.9-4,8.9-8.9V89.1c0-4.5,0.2-8.5,0.7-11.9c0.5-3.3,1.1-4.7,1.3-5.2
			l0.1-0.1c0.1,0,0.2,0,0.4,0c0.3,0,0.7,0,1,0.1c0.1,0,0.2,0,0.3,0l0,0c0,0,0.1,0,0.2,0c0,0,0.1,0,0.1,0l0,0
			c0.1,0.1,0.3,0.1,0.4,0.2l0.2,0.1c0,0,0.1,0,0.1,0.1l2.9,2.3c1.6,1.3,3.5,2,5.6,2c0.8,0,1.5-0.1,2.2-0.3c2.7-0.7,4.9-2.6,6-5.2
			l1.4-3.5V125c0,4.9,4,8.9,8.9,8.9h21.5c4.9,0,8.9-4,8.9-8.9V87.9c0-5.1,0.1-7.1,0.1-7.8l0-0.1l0-0.1l0-0.2c0-1.6,0.1-2.9,0.3-4
			l0,0l0,0l0-0.1l0,0l0-0.1c0-0.2,0.1-0.6,0.3-1.1c0.1-0.4,0.3-0.7,0.4-1c0,0,0.2-0.3,0.5-0.6c0.3-0.3,0.7-0.6,1.1-0.9
			c0.6-0.3,0.9-0.4,1-0.4c0.1,0,0.2,0,0.3-0.1c0.1,0,0.4-0.1,1-0.1c0.2,0,0.3,0,0.4,0c0.2,0.5,0.3,1.3,0.5,2.3c0,0.1,0,0.2,0,0.3
			c0.4,2.4,0.6,5.6,0.6,9.5V125c0,4.9,4,8.9,8.9,8.9h21.6c4.9,0,8.9-4,8.9-8.9V87.9c0-4.6,0.3-8.4,0.8-11.4c0-0.2,0-0.3,0.1-0.4
			c0.4-2.5,0.9-3.7,1.2-4.1c0.1-0.2,0.3-0.3,0.4-0.4c0.2-0.1,1.1-0.3,2.5-0.3c0.1,0,0.3,0,0.4,0c0.1,0.5,0.2,1,0.3,1.7
			c0.4,2.5,0.6,6.1,0.6,10.4V125c0,4.9,4,8.9,8.9,8.9h21.5c4.9,0,8.9-4,8.9-8.9v-2.5c0.2,0.3,0.5,0.6,0.8,0.9
			c2.5,3.1,5.5,5.7,8.8,7.7c3.3,1.9,6.8,3.3,10.5,4.3c3.8,0.9,7.8,1.4,12,1.4c5.4,0,10.4-0.7,14.9-2.1c5-1.6,9.3-3.9,12.8-6.9
			c0.1,0,0.1-0.1,0.2-0.2c3.8-3.4,6.7-7.4,8.6-11.8c1.9-4.6,2.9-9.6,2.9-14.8C792,97.5,791.5,93.9,790.5,90.4z M720.5,80.7
			c1.1,2.4,2.5,4.6,4.3,6.7c1.3,1.6,2.8,3.1,4.6,4.6l-8.9,5.4V80.7z M512.2,44L512.2,44L512.2,44L512.2,44z M492.4,94.1
			c-0.1,0.1-0.1,0.2-0.2,0.2c-0.9,1.1-1.8,1.9-2.7,2.2l-0.1,0l0,0l-0.1,0.1c-0.8,0.4-1.7,0.6-2.8,0.6c-1.1,0-2.1-0.2-2.7-0.5
			l-0.2-0.1l-0.1,0l-0.1,0c-0.9-0.4-1.8-1.2-2.7-2.3l-0.2-0.2l0,0l-0.1-0.1c-0.9-1-1.6-2.2-2.1-3.7c-0.6-1.7-0.9-3.4-0.9-5.5
			c0-2,0.3-3.9,0.8-5.5c0.5-1.4,1.3-2.7,2.3-4c0.9-1,1.9-1.8,2.9-2.4c0.9-0.4,1.8-0.6,2.9-0.6c1,0,2,0.2,2.9,0.6
			c1,0.5,2,1.4,2.9,2.4c2.1,2.5,3.1,5.6,3.1,9.5c0,2-0.3,3.7-0.8,5.1c-0.1,0.2-0.1,0.3-0.2,0.5C494,91.8,493.3,93.1,492.4,94.1z
			 M158.6,92.4c-0.6-2.1-0.8-4.4-0.8-7.4c0-2.8,0.3-5.2,0.8-7c0.4-1.6,1-2.9,1.7-3.8c0.5-0.6,1-1.1,1.6-1.4c0.8-0.3,1.7-0.5,2.8-0.5
			c1.4,0,2.2,0.2,2.7,0.4c0.6,0.3,1.1,0.8,1.6,1.4c0.6,0.9,1.1,2.1,1.5,3.5c0.5,1.8,0.8,4.2,0.8,6.8c0,2.7-0.3,4.9-0.8,6.8
			c-0.5,1.6-1.2,3-2.1,4.3c-0.7,0.9-1.2,1.3-1.4,1.4c-0.1,0-0.2,0.1-0.4,0.2c-0.6,0.3-1.4,0.5-2.3,0.5c-1.2,0-2.2-0.2-2.9-0.5
			c-0.3-0.1-0.7-0.4-1.3-1.1c-0.1-0.1-0.1-0.2-0.2-0.3C159.4,94.8,159,93.7,158.6,92.4z M170,37L170,37L170,37L170,37z"/>
		<g>
			<g>
				<path class="st1" d="M99.5,138.7c-1.3,0-2.4-0.8-2.8-2L74.4,74.6l-22,62c-0.4,1.2-1.5,2-2.8,2c0,0,0,0,0,0
					c-1.3,0-2.4-0.8-2.8-2.1L6,10.9C5.7,10,5.9,9,6.4,8.2C7,7.5,7.9,7,8.9,7h20.3c1.3,0,2.4,0.8,2.8,2.1l19.2,61.2l20.1-61
					c0.4-1.2,1.5-2,2.8-2c0,0,0,0,0,0c1.3,0,2.4,0.8,2.8,2l21.3,60.9l18.9-61.1c0.4-1.2,1.5-2.1,2.8-2.1h20.4c1,0,1.8,0.5,2.4,1.2
					c0.6,0.8,0.7,1.8,0.4,2.7l-40.8,125.7C101.9,137.8,100.8,138.6,99.5,138.7C99.5,138.7,99.5,138.7,99.5,138.7L99.5,138.7z"/>
				<path class="st1" d="M160.5,130.9c-5.5,0-10.6-1.1-15.3-3.3c-4.6-2.1-8.6-5.4-12-9.8c-3.3-4.4-5.7-9.4-7.2-15
					c-1.6-5.2-2.4-11.5-2.4-18.4c0-6.3,0.8-12.3,2.4-17.9c1.7-5.6,4.2-10.5,7.4-14.7c3.3-4.4,7.3-7.7,11.7-9.9
					c4.4-2.2,9.4-3.3,14.8-3.3c3,0,6.1,0.4,9.1,1.1c2.9,0.8,5.5,1.9,7.8,3.4c0.4-1.1,1.5-1.9,2.8-1.9h21.5c1.6,0,3,1.3,3,3V125
					c0,1.6-1.3,3-3,3h-21.5c-1.1,0-2.1-0.6-2.6-1.6c-0.4,0.2-0.7,0.5-1.1,0.7c-2.5,1.3-5,2.3-7.5,2.9
					C165.9,130.6,163.2,130.9,160.5,130.9L160.5,130.9z M164.7,66.4c-2,0-3.8,0.4-5.4,1.1c-1.3,0.7-2.5,1.7-3.7,3.2
					c-1.2,1.5-2.1,3.4-2.6,5.6c-0.7,2.5-1.1,5.4-1.1,8.7c0,3.4,0.3,6.3,1,8.7c0.6,2.2,1.4,4,2.5,5.5c1.1,1.4,2.2,2.4,3.5,3
					c1.6,0.7,3.4,1.1,5.4,1.1c1.8,0,3.5-0.4,4.9-1.1c1.4-0.7,2.7-1.8,3.9-3.4c1.3-1.8,2.3-3.8,2.9-6c0.7-2.4,1.1-5.2,1.1-8.4
					c0-3.2-0.3-6-1-8.5c-0.6-2.2-1.5-4.1-2.6-5.5c-1-1.2-2.3-2.3-3.7-3C168.6,66.7,166.8,66.4,164.7,66.4L164.7,66.4z"/>
				<path class="st1" d="M249.7,136.5c-1.2,0-2.2-0.7-2.7-1.8l-38.1-84.5l-2.1-4.8c-0.4-0.9-0.3-2,0.2-2.8c0.5-0.8,1.5-1.4,2.5-1.4
					h23.7c1.2,0,2.3,0.7,2.8,1.9l0.8,2l13,33l13.8-35c0.5-1.1,1.5-1.9,2.8-1.9H290c1,0,2,0.5,2.5,1.4c0.5,0.9,0.6,1.9,0.2,2.8
					l-2.2,4.8l-35.4,78.4l-2.7,6C251.9,135.8,250.9,136.5,249.7,136.5L249.7,136.5z"/>
				<path class="st1" d="M373.8,128c-1.6,0-3-1.3-3-3V8.9c0-1.6,1.3-3,3-3h65.4c1.6,0,3,1.3,3,3v23.9c0,1.6-1.3,3-3,3h-39V53h39
					c1.6,0,3,1.3,3,3v24.4c0,1.6-1.3,3-3,3h-39V125c0,1.6-1.3,3-3,3H373.8z"/>
				<path class="st1" d="M326.4,130.9c-6,0-11.6-1.1-16.8-3.2c-5.1-2-9.6-5.2-13.4-9.7c-3.8-4.2-6.7-9.2-8.5-14.9
					c-1.8-5.5-2.7-11.6-2.7-18.3c0-6.5,0.9-12.6,2.8-18c1.9-5.5,4.9-10.5,8.7-14.9c3.8-4.3,8.3-7.7,13.4-9.9
					c4.8-2.2,10.4-3.3,16.5-3.3c12.5,0,22.5,4.1,29.8,12.3c3.5,3.9,6.3,8.8,8.2,14.5c1.7,5.5,2.6,11.7,2.6,18.4v6.5c0,1.6-1.3,3-3,3
					h-13.2l13.6,8.3c1.3,0.8,1.8,2.5,1.1,3.9c-2,4.1-4.4,7.8-7.1,11c-2.8,3.3-5.9,6-9.1,8.1c-2.9,2-6.5,3.6-10.7,4.8
					C334.7,130.4,330.6,130.9,326.4,130.9L326.4,130.9z M314.3,94.2c0.7,1.9,1.6,3.6,2.7,4.9c1.1,1.3,2.4,2.2,3.8,2.8
					c1.5,0.7,3.2,1,5.3,1c2,0,3.8-0.2,5.2-0.7c1.4-0.3,2.7-0.9,3.9-1.7c1.1-0.7,2.2-1.9,3.4-3.3c0.8-1.1,1.6-2.4,2.4-3.8h-26.9
					C314.1,93.4,314.3,94,314.3,94.2z M336.4,69.4c-0.3-0.4-0.6-0.7-1-1c-1-0.9-2.1-1.5-3.4-1.9c-1.6-0.5-3.3-0.7-5.3-0.7
					c-1.9,0-3.6,0.3-5.1,0.7c-1.3,0.5-2.4,1.1-3.2,1.8c-0.1,0.1-0.3,0.2-0.4,0.3c-0.3,0.3-0.5,0.6-0.8,0.9H336.4z"/>
				<path class="st1" d="M486.3,130.9c-2.5,0-5.3-0.3-8.3-0.9c-2.3-0.5-4.8-1.3-7.7-2.5c-0.2,0-0.3-0.1-0.4-0.1
					c-2.8-1.2-5.3-2.7-7.5-4.3c-2.5-1.9-4.7-3.8-6.5-5.9c-2.1-2.2-3.9-4.6-5.4-7c-1.6-2.5-2.9-5.2-3.9-7.9c-1.1-2.5-1.9-5.4-2.5-8.5
					c-0.5-3.3-0.8-6.3-0.8-9.1c0-2.9,0.3-6,0.9-9.1c0.6-3.2,1.4-6.1,2.4-8.7c1-2.7,2.3-5.3,3.9-7.8c1.5-2.5,3.3-4.8,5.4-7.1
					c1.9-2,4.1-3.9,6.5-5.7c2.6-1.7,5-3.1,7.4-4.2c2.3-1,5-1.9,8.1-2.6c3.1-0.6,5.9-0.9,8.5-0.9c5.8,0,11.4,1.2,16.7,3.5
					c2.3,1,4.8,2.5,7.4,4.2c2.6,1.9,4.8,3.8,6.7,5.9c2,2.2,3.8,4.6,5.4,7c1.6,2.5,2.9,5.2,3.9,8c1,2.5,1.8,5.3,2.4,8.4
					c0.5,2.8,0.8,5.8,0.8,9c0,3.1-0.2,6.1-0.7,9c-0.5,2.7-1.3,5.6-2.4,8.6c-1.3,3.2-2.6,5.8-4,8c-1.7,2.6-3.5,4.9-5.4,6.9
					c-2.3,2.5-4.6,4.5-6.9,5.9c-2.3,1.7-4.8,3.2-7.4,4.3c-0.1,0.1-0.3,0.1-0.4,0.1c-2.5,1-5,1.8-7.6,2.4
					C491.7,130.6,488.9,130.9,486.3,130.9L486.3,130.9z M486.5,66.5c-2,0-3.8,0.4-5.5,1.2c-1.6,0.9-3.3,2.2-4.8,3.9
					c-1.5,1.8-2.7,3.8-3.4,5.8c-0.8,2.3-1.2,4.8-1.2,7.4c0,2.7,0.4,5.1,1.2,7.3c0.8,2.3,1.9,4.2,3.4,5.8c1.5,1.8,3.1,3.1,4.8,3.9
					c1.6,0.8,3.5,1.2,5.5,1.2c2.1,0,3.9-0.4,5.5-1.2c1.7-0.8,3.3-2.1,4.8-3.9c1.5-1.7,2.6-3.7,3.3-5.8c0.9-2.2,1.3-4.6,1.3-7.4
					c0-5.3-1.5-9.7-4.6-13.3c-1.4-1.7-3.1-3-4.8-3.9C490.2,66.9,488.4,66.5,486.5,66.5L486.5,66.5z"/>
				<path class="st1" d="M536.8,127.9c-1.6,0-3-1.3-3-3V44.1c0-1.6,1.3-3,3-3h21.5c0.8,0,1.5,0.3,2.1,0.8c1.3-0.8,2.7-1.5,4.2-2
					c2.5-0.8,5-1.2,7.5-1.2c1.3,0,2.7,0.1,4,0.3c1.2,0.2,2.5,0.4,3.9,0.8c0.1,0,0.2,0.1,0.4,0.1c0.3,0.1,1.4,0.5,3.3,1.1
					c0.1,0,0.2,0.1,0.3,0.1c1.8,0.8,3,1.4,3.6,1.7l2.5,1.3c1.3,0.7,1.9,2.3,1.4,3.7l-1.1,2.9l-5.6,14.4l-1.6,3.8
					c-0.4,0.9-1.1,1.5-2,1.8c-0.2,0.1-0.5,0.1-0.7,0.1c-0.7,0-1.3-0.2-1.9-0.7l-3-2.4c-0.5-0.4-0.9-0.6-1-0.7
					c-0.1,0-0.2-0.1-0.3-0.2c-0.2-0.1-0.6-0.3-1.1-0.5c-0.6-0.1-1.1-0.2-1.4-0.3c-0.8-0.1-1.4-0.2-2-0.2c-1.5,0-2.7,0.3-3.5,0.8
					c-1,0.6-1.7,1.4-2.1,2.4c-0.9,1.8-1.5,4.1-2,7.2c-0.5,3.6-0.8,7.9-0.8,12.7V125c0,1.6-1.3,3-3,3H536.8z"/>
				<path class="st1" d="M690.2,127.9c-1.6,0-3-1.3-3-3V83.6c0-4.7-0.2-8.5-0.6-11.4c-0.5-2.9-1-4.3-1.4-5c-0.2-0.3-0.7-0.7-1.4-1.1
					c-0.9-0.3-2.2-0.6-3.7-0.6c-2.1,0-3.9,0.3-5.2,1c-1.1,0.6-2,1.4-2.7,2.5c-0.9,1.5-1.6,3.6-2,6.3c-0.6,3.4-0.9,7.6-0.9,12.5V125
					c0,1.6-1.3,3-3,3h-21.6c-1.6,0-3-1.3-3-3V83.6c0-4.3-0.2-7.8-0.7-10.5c-0.3-2.3-0.8-4.1-1.5-5.3c-0.4-0.6-1-1.2-1.7-1.6
					c-0.7-0.3-2-0.6-3.6-0.6c-1,0-2,0.1-2.7,0.4c-0.5,0.1-1.3,0.4-2.7,1.2c-0.6,0.4-1.3,1-2,1.7c-0.7,0.6-1.2,1.3-1.6,2.1
					c-0.3,0.5-0.5,1.1-0.8,1.8c-0.3,0.8-0.4,1.6-0.5,2.3c-0.2,1.4-0.3,2.9-0.4,4.7c-0.1,1.5-0.1,4.3-0.1,8.3V125c0,1.6-1.3,3-3,3
					h-21.5c-1.6,0-3-1.3-3-3V44.2c0-1.6,1.3-3,3-3h20.5c1.5,0,2.8,1.2,3,2.7c0.5-0.3,1-0.7,1.4-1c2.6-1.5,5.3-2.6,8.1-3.4
					c2.8-0.7,5.8-1.1,8.9-1.1c3.1,0,6,0.4,8.7,1.1c3,0.9,5.5,2.1,7.7,3.7c2,1.4,3.9,3.2,5.6,5.4c0.1-0.1,0.2-0.2,0.3-0.3
					c2.4-2.3,4.8-4.1,7.1-5.5c2.3-1.4,5-2.5,7.9-3.3c2.7-0.7,5.7-1.1,8.7-1.1c2.7,0,5.3,0.3,7.6,0.9c2.2,0.5,4.5,1.3,6.7,2.5
					c2.5,1.4,4.4,2.8,5.9,4.3c1.8,1.8,3.2,3.8,4.4,6c0.4,0.8,0.9,2,1.5,3.6c0.4,1.5,0.8,2.8,1,4.1c0.3,1.9,0.4,3.4,0.6,4.9
					c0.1,2.4,0.2,4.4,0.2,5.9V125c0,1.6-1.3,3-3,3H690.2z"/>
				<path class="st1" d="M752.6,130.9c-3.7,0-7.2-0.4-10.5-1.2c-3.2-0.8-6.2-2-8.9-3.6c-2.8-1.7-5.3-3.9-7.4-6.5
					c-2.2-2.6-4-5.6-5.3-8.8l-1.2-2.8c-0.6-1.4-0.1-3,1.2-3.8l2.6-1.5l12.7-7.7l3.3-2c0.5-0.3,1-0.4,1.5-0.4c0.4,0,0.7,0.1,1.1,0.2
					c-1.9-1-3.6-2-5.1-3.1c-3.1-2-5.5-4.1-7.2-6.2c-2-2.3-3.4-4.9-4.3-7.6c-1-2.6-1.5-5.6-1.5-8.8c0-4.2,0.8-8.1,2.4-11.7
					c1.5-3.5,3.9-6.6,6.9-9.3c2.7-2.5,6.2-4.5,10.2-5.8c4-1.2,8.1-1.8,12.3-1.8c2.9,0,5.7,0.3,8.4,0.9c0.1,0,0.2,0,0.4,0.1
					c2.6,0.7,5,1.6,7.2,2.8c0.2,0.1,0.3,0.1,0.5,0.2c2.3,1.4,4.4,3,6.2,5c1.8,2,3.2,4.3,4.4,6.9l1.1,2.5c0.5,1.2,0.2,2.7-0.9,3.5
					l-2.1,1.7l-11,8.3l-3.3,2.4c-0.3,0.2-0.7,0.4-1.1,0.5c3.4,1.4,6.4,3,8.9,4.8c2.7,1.9,5,3.9,6.7,6c1.7,2.2,3.1,4.8,4.1,7.8
					c0.9,3.1,1.3,6.1,1.3,9.1c0,4.4-0.8,8.6-2.4,12.4c-1.6,3.7-4,7-7.1,9.8c-3,2.5-6.7,4.5-10.8,5.8
					C761.8,130.3,757.4,130.9,752.6,130.9L752.6,130.9z M742.2,93.2c0.6,0.4,1,1,1.2,1.7l1,4c0.3,1.2,0.7,2.2,1.2,2.9
					c0.6,0.9,1.1,1.6,1.7,2c0.8,0.6,1.6,1,2.5,1.3c1.3,0.3,2.6,0.4,4,0.4c1.2,0,2.1-0.1,2.8-0.3c0.5-0.2,1-0.4,1.3-0.7
					c0.3-0.3,0.5-0.6,0.7-0.9c0.1-0.2,0.2-0.6,0.2-1.5c0-0.1-0.1-0.5-0.7-1.1c-1.2-1.1-3.2-2.2-5.9-3.3c-1.4-0.6-2.5-1-3.2-1.3
					l-2.6-1.2C744.9,94.5,743.5,93.9,742.2,93.2L742.2,93.2z M751,66.1c0,0,0.8,1.8,8,4.7c0.6,0.2,1.2,0.5,1.7,0.7
					c0.3,0.1,0.7,0.3,1.1,0.4c-0.1-0.2-0.2-0.3-0.2-0.5l-1.3-3.9c-0.2-0.4-0.5-1-0.7-1.3c-0.3-0.3-0.6-0.7-0.9-0.9
					c-0.1-0.1-0.2-0.1-0.3-0.2c-0.4-0.3-0.9-0.6-1.6-0.8c-0.6-0.1-1.3-0.2-2.1-0.2c-1.3,0-1.9,0.2-2.1,0.2c-0.6,0.2-0.9,0.4-1.2,0.6
					c-0.2,0.2-0.2,0.3-0.2,0.4c0,0.1-0.1,0.2-0.1,0.3v0C751,65.4,751,65.6,751,66.1L751,66.1z"/>
			</g>
			<g>
				<path class="st2" d="M787.7,91.2c0-0.1,0-0.1-0.1-0.2c-1.1-3.3-2.6-6.2-4.6-8.6c-2-2.4-4.4-4.6-7.4-6.7c-1.4-1-2.9-1.9-4.5-2.8
					l0,0l11-8.4l2.2-1.8c2.1-1.7,2.8-4.6,1.7-7.1l-1.1-2.5c-1.3-2.9-3-5.5-4.9-7.6c0-0.1-0.1-0.1-0.1-0.2c-2-2.1-4.3-4-6.9-5.5
					c-0.2-0.1-0.5-0.3-0.8-0.4c-2.3-1.2-4.9-2.2-7.6-2.9c-0.2-0.1-0.4-0.1-0.6-0.1c-2.9-0.6-5.9-1-8.9-1c-4.5,0-8.9,0.7-13.1,2
					c-4.5,1.5-8.3,3.6-11.4,6.5c-3.4,2.9-5.9,6.4-7.6,10.3c-1.7,4-2.6,8.3-2.6,12.9c0,3.5,0.6,6.8,1.6,9.8c1,3.1,2.7,6,4.9,8.6
					c1.9,2.3,4.4,4.5,7.7,6.6l-0.5,0.3l-12.8,7.8l-2.5,1.5c-0.5,0.3-0.9,0.7-1.3,1.1v-32c0-1.6,0-3.6-0.2-6c0-0.1,0-0.1,0-0.2
					c-0.1-1.6-0.3-3.2-0.6-4.9c0-0.1,0-0.2,0-0.3c-0.3-1.4-0.6-2.9-1-4.2c0-0.2-0.1-0.3-0.2-0.5c-0.7-1.7-1.2-2.9-1.7-3.8
					c-1.3-2.5-3-4.7-4.9-6.7c-1.7-1.8-3.8-3.3-6.5-4.8c-0.1,0-0.1-0.1-0.2-0.1c-2.5-1.3-5-2.2-7.5-2.8c-2.6-0.6-5.3-1-8.3-1
					c-3.3,0-6.5,0.4-9.4,1.2c-3.2,0.8-6.1,2.1-8.8,3.6c-1.8,1.1-3.7,2.4-5.6,4c-1.3-1.4-2.8-2.6-4.3-3.6c-2.3-1.6-5.1-3-8.3-4
					c-0.1,0-0.2,0-0.2-0.1c-2.9-0.8-6.1-1.2-9.4-1.2c-3.4,0-6.6,0.4-9.6,1.2c-2.7,0.7-5.3,1.7-7.8,3.1c-1-0.9-2.4-1.5-3.9-1.5h-20.5
					c-2.8,0-5.1,1.9-5.8,4.6c-0.5-0.5-1-1-1.7-1.4l-2.6-1.4c-0.6-0.3-1.7-0.8-3.7-1.8c-0.2-0.1-0.4-0.2-0.7-0.3
					c-1.8-0.6-2.8-0.9-3.2-1c-0.2-0.1-0.5-0.2-0.7-0.2c-1.5-0.4-2.8-0.6-4.1-0.8c-1.5-0.2-3-0.3-4.5-0.3c-2.8,0-5.6,0.5-8.3,1.4
					c-0.1,0-0.1,0-0.2,0.1c-1.1,0.4-2.1,0.9-3.1,1.4c-0.7-0.2-1.4-0.4-2.1-0.4h-21.5c-3.3,0-5.9,2.7-5.9,5.9v27.7
					c-0.5-2-1.1-3.9-1.8-5.6c-1.1-2.9-2.5-5.8-4.2-8.4c-1.7-2.6-3.6-5.1-5.7-7.4c-2-2.2-4.4-4.4-7-6.3c-0.1,0-0.1-0.1-0.2-0.1
					c-2.7-1.9-5.4-3.4-7.8-4.5c-5.7-2.5-11.7-3.7-17.9-3.7c-2.7,0-5.7,0.3-8.9,0.9c-0.1,0-0.1,0-0.2,0c-3.3,0.7-6.2,1.7-8.7,2.8
					c-2.5,1.1-5.1,2.6-7.7,4.3c-0.1,0.1-0.2,0.1-0.2,0.2c-2.5,1.9-4.8,3.9-6.8,5.9c-2.3,2.5-4.2,5-5.8,7.6c-1.1,1.7-2,3.5-2.8,5.3
					V56c0-3.3-2.7-5.9-6-5.9h-36V38.7h36c3.3,0,6-2.7,6-5.9V8.9c0-3.3-2.7-5.9-6-5.9h-65.4c-3.3,0-6,2.7-6,5.9v58.1
					c-0.2-0.8-0.4-1.6-0.6-2.3c-2-6.2-5-11.4-8.8-15.7c-7.8-8.8-18.6-13.3-32-13.3c-6.5,0-12.5,1.2-17.7,3.6
					c-5.5,2.4-10.3,6-14.4,10.7c-0.3,0.3-0.5,0.6-0.7,0.9l1.9-4.1c0.8-1.8,0.7-4-0.4-5.7c-1.1-1.7-3-2.7-5-2.7h-23.7
					c-2.4,0-4.6,1.5-5.5,3.7l-0.8,2l-10.2,26l-10.2-26l-0.8-2.1c-0.9-2.3-3.1-3.7-5.5-3.7h-23.7c-1.6,0-3.1,0.6-4.2,1.7
					c-1.1-1-2.5-1.7-4.2-1.7h-21.5c-1.3,0-2.5,0.4-3.5,1.1c-2-1-4-1.8-6.2-2.4c0,0-0.1,0-0.2,0c-3.2-0.8-6.5-1.2-9.8-1.2
					c-5.9,0-11.3,1.2-16.1,3.6c-3.3,1.7-6.3,3.9-9.1,6.6L146,11.8c0.6-1.8,0.3-3.8-0.8-5.3C144,4.9,142.2,4,140.3,4h-20.4
					c-2.6,0-4.9,1.7-5.7,4.2L98,60.6L79.7,8.2c-0.8-2.4-3.1-4-5.6-4c0,0,0,0-0.1,0c-2.5,0-4.8,1.7-5.6,4.1L51.2,60.6L34.8,8.2
					C34,5.7,31.7,4,29.1,4H8.9C7,4,5.2,4.9,4,6.5C2.9,8,2.6,10,3.2,11.8l40.7,125.6c0.8,2.4,3,4.1,5.6,4.1c0,0,0.1,0,0.1,0
					c2.5,0,4.8-1.6,5.6-4l19.2-54.2l19.5,54.3c0.8,2.4,3.1,3.9,5.6,3.9c0,0,0.1,0,0.1,0c2.5,0,4.8-1.7,5.6-4.1L120.9,89
					c0.3,5.4,1.1,10.4,2.4,14.8c1.6,5.9,4.1,11.3,7.7,15.9c3.7,4.8,8.1,8.4,13.1,10.7c5,2.3,10.5,3.5,16.5,3.5c3,0,5.9-0.4,8.8-1.1
					c2.5-0.6,5-1.5,7.4-2.8c0.9,0.5,1.9,0.8,3.1,0.8h21.5c3.3,0,6-2.7,6-5.9V53.5l34.4,76.4l2.7,6c1,2.1,3.1,3.5,5.4,3.5
					c2.3,0,4.5-1.4,5.4-3.5l2.7-6l25-55.3c-0.5,3.3-0.8,6.7-0.8,10.3c0,7,1,13.5,2.9,19.3c1.9,6,5,11.4,9.1,15.9
					c4.1,4.8,9.1,8.3,14.6,10.5c5.4,2.2,11.4,3.4,17.8,3.4c4.4,0,8.8-0.6,12.9-1.7c4.6-1.3,8.5-3.1,11.7-5.3
					c3.3-2.2,6.6-5.1,9.6-8.5c2.7-3.2,5.1-6.9,7.2-10.9V125c0,3.3,2.7,5.9,6,5.9h23.4c3.3,0,5.9-2.7,5.9-5.9V86.4h36
					c0.4,0,0.8,0,1.2-0.1c0.1,2.5,0.3,5.1,0.8,7.9c0.6,3.4,1.5,6.5,2.7,9.3c1.1,2.9,2.5,5.8,4.2,8.4c1.5,2.5,3.4,5,5.7,7.4
					c1.9,2.2,4.3,4.3,6.9,6.3c2.3,1.8,5.1,3.3,8.1,4.6c0.2,0.1,0.5,0.2,0.7,0.3c3,1.2,5.5,2,7.8,2.5c0.1,0,0.1,0,0.2,0
					c3.2,0.6,6.2,0.9,8.9,0.9c2.7,0,5.7-0.3,8.9-0.9c0.1,0,0.2,0,0.3-0.1c2.7-0.6,5.4-1.5,8-2.5c0.2-0.1,0.4-0.1,0.6-0.2
					c2.7-1.2,5.4-2.7,7.9-4.6c2.4-1.6,4.8-3.7,7.3-6.3c2-2.2,3.9-4.6,5.7-7.2c0,0,0.1-0.1,0.1-0.1c1.5-2.3,2.9-5.1,4.1-8.3
					c0-0.1,0.1-0.2,0.1-0.3c0.6-1.8,1.2-3.6,1.6-5.3V125c0,3.3,2.7,5.9,5.9,5.9h21.5c3.3,0,6-2.7,6-5.9V89.1c0-4.6,0.2-8.8,0.7-12.3
					c0.5-3.4,1.2-5.2,1.6-6.1c0-0.1,0.1-0.2,0.1-0.3c0.3-0.6,0.6-0.9,0.9-1c0.1,0,0.1-0.1,0.2-0.1c0.1-0.1,0.6-0.3,1.9-0.3
					c0.4,0,0.9,0,1.4,0.1c0.1,0,0.2,0,0.2,0c0,0,0.2,0,0.8,0.2c0.4,0.2,0.5,0.2,0.5,0.2c0.2,0.1,0.4,0.2,0.6,0.3
					c0,0,0.2,0.1,0.5,0.3l2.9,2.4c1.1,0.9,2.4,1.3,3.7,1.3c0.5,0,1-0.1,1.5-0.2c1.8-0.5,3.3-1.8,4-3.5l1.5-3.8l5.5-14.2V125
					c0,3.3,2.7,5.9,5.9,5.9h21.5c3.3,0,6-2.7,6-5.9V87.9c0-4.9,0.1-7.1,0.1-8c0-0.1,0-0.2,0-0.2c0-1.7,0.1-3.1,0.3-4.3
					c0-0.1,0-0.2,0-0.2c0.1-0.5,0.2-1.1,0.4-1.7c0.2-0.5,0.4-1,0.6-1.4c0.2-0.4,0.6-0.9,1-1.3c0.5-0.5,1-0.9,1.6-1.3
					c1.1-0.6,1.6-0.7,1.7-0.7c0.1,0,0.1,0,0.2-0.1c0.5-0.1,1.1-0.2,1.9-0.2c1.2,0,1.9,0.2,2.3,0.3c0.1,0.1,0.3,0.2,0.4,0.5
					c0.3,0.7,0.8,1.9,1.1,4.1c0,0.1,0,0.1,0,0.2c0.4,2.5,0.7,5.9,0.7,10V125c0,3.3,2.7,5.9,5.9,5.9h21.6c3.3,0,5.9-2.7,5.9-5.9V87.9
					c0-4.8,0.3-8.8,0.9-11.9c0-0.1,0-0.2,0-0.2c0.4-2.8,1.1-4.4,1.6-5.2c0.4-0.6,0.9-1.1,1.6-1.4c0.8-0.4,2.2-0.6,3.8-0.6
					c1,0,1.9,0.1,2.6,0.4c0,0,0.1,0,0.1,0.1c0.2,0.5,0.6,1.6,0.9,3.8c0.4,2.7,0.6,6.4,0.6,10.9V125c0,3.3,2.7,5.9,5.9,5.9h21.5
					c3.3,0,6-2.7,6-5.9v-13.2l0.1,0.3c1.4,3.4,3.4,6.6,5.8,9.5c2.3,2.8,5,5.2,8.1,7.1c3,1.8,6.3,3.1,9.7,4c3.6,0.9,7.3,1.3,11.2,1.3
					c5.1,0,9.8-0.7,14.1-2c4.6-1.5,8.6-3.6,11.8-6.4c0,0,0.1-0.1,0.1-0.1c3.5-3.1,6.1-6.7,7.9-10.8c1.7-4.2,2.6-8.8,2.6-13.6
					C789.1,97.8,788.6,94.5,787.7,91.2z M99.5,135.7l-25.1-70l-24.8,69.9L8.9,10h20.3l22,70.1l23-69.8l24.2,69.5L119.9,10h20.4
					L99.5,135.7z M201.2,125h-21.5v-4.3c-1.6,1.5-3.3,2.8-5.2,3.9c-2.2,1.2-4.4,2-6.7,2.6c-2.4,0.6-4.8,0.9-7.3,0.9
					c-5.1,0-9.7-1-14-3c-4.2-1.9-7.8-4.8-10.8-8.9c-3.1-4.1-5.3-8.7-6.7-13.9c-1.5-5.1-2.3-11-2.3-17.6c0-6,0.8-11.7,2.3-17.1
					c1.6-5.2,3.9-9.8,6.9-13.7c3.1-4,6.6-7.1,10.7-9.1c4-2,8.5-3,13.5-3c2.8,0,5.6,0.3,8.4,1c2.7,0.8,5.1,1.8,7.3,3.2
					c1.2,0.8,2.6,1.9,4,3.2v-4.9h21.5V125z M252.4,127.5l-2.7,6l-2.7-6L211.7,49l-2.1-4.8h23.7l0.8,2l14.7,37.2
					c0.2,0.5,0.5,1.4,0.9,2.5l0.2,0.5c0.2-0.5,0.3-1,0.5-1.5c0.2-0.5,0.4-1,0.6-1.5l14.7-37.2l0.8-2H290l-2.2,4.8L252.4,127.5z
					 M356.1,114.6c-2.6,3.1-5.5,5.6-8.4,7.5c-2.7,1.8-6,3.3-9.9,4.4c-3.6,1-7.4,1.4-11.4,1.4c-5.6,0-10.8-1-15.6-3
					c-4.7-1.8-8.8-4.8-12.3-8.9c-3.6-3.9-6.2-8.5-7.9-13.9c-1.7-5.2-2.6-11-2.6-17.4c0-6.2,0.9-11.9,2.6-17.1
					c1.8-5.2,4.5-9.8,8.1-13.9c3.5-4,7.7-7.1,12.4-9.2c4.5-2,9.6-3.1,15.3-3.1c11.7,0,20.9,3.8,27.6,11.3c3.3,3.7,5.8,8.1,7.6,13.4
					c1.6,5.2,2.4,11,2.4,17.5v6.5h-53.5c0.2,1.7,0.6,3.3,1.1,4.8c0.8,2.4,1.9,4.3,3.3,5.9c1.4,1.6,3,2.8,4.8,3.6
					c1.8,0.8,4,1.2,6.5,1.2c2.3,0,4.3-0.3,6.1-0.8c1.6-0.3,3.1-1,4.7-2.1c1.3-0.9,2.7-2.2,4-3.9c1.3-1.8,2.5-3.8,3.6-6l18.3,11.1
					C360.9,108.1,358.6,111.6,356.1,114.6z M335.4,96.4c-0.7,0.7-1.3,1.2-1.8,1.6c-0.9,0.6-1.7,1-2.5,1.2c-0.2,0-0.4,0.1-0.5,0.1
					c-1.2,0.4-2.6,0.5-4.3,0.5c-1.6,0-3-0.2-4.1-0.7c-1.1-0.5-2-1.1-2.8-2c-0.2-0.2-0.4-0.5-0.6-0.7H335.4z M367.8,101
					c-0.5-0.7-1.1-1.4-1.9-1.9l-4.5-2.7h2.5c1.5,0,2.8-0.6,3.9-1.5V101z M439.2,80.4h-42V125h-23.4V8.9h65.4v23.9h-42V56h42V80.4z
					 M525.9,93.2c-0.5,2.5-1.2,5.2-2.3,8.1c-1.2,2.9-2.4,5.4-3.7,7.4c-1.6,2.4-3.3,4.5-5.1,6.4c-2.2,2.3-4.3,4.1-6.3,5.5
					c-2.3,1.7-4.5,3-6.9,4h-0.1c-2.4,1-4.9,1.8-7.5,2.4c-2.9,0.5-5.5,0.8-7.8,0.8c-2.3,0-4.9-0.3-7.8-0.8c-2.1-0.5-4.6-1.3-7.4-2.4
					h-0.1c-2.6-1.1-4.9-2.4-6.9-3.9c-2.4-1.8-4.4-3.6-6.1-5.5c-2-2.1-3.7-4.3-5.1-6.6c-1.5-2.4-2.7-4.8-3.7-7.4
					c-1-2.4-1.8-5.1-2.3-8.1c-0.5-3.1-0.7-6-0.7-8.5c0-2.7,0.3-5.6,0.8-8.5c0.5-3,1.3-5.7,2.3-8.1c1-2.6,2.2-5,3.7-7.4
					c1.4-2.3,3.1-4.5,5.1-6.6c1.8-1.8,3.8-3.6,6.1-5.3c2.3-1.6,4.6-2.8,6.8-3.9c2.1-1,4.6-1.8,7.5-2.4c2.8-0.5,5.5-0.8,7.8-0.8
					c5.4,0,10.6,1.1,15.5,3.2c2.1,1,4.5,2.3,6.9,3.9c2.3,1.7,4.4,3.5,6.2,5.5c1.9,2.1,3.6,4.3,5.1,6.6c1.5,2.3,2.7,4.8,3.7,7.4
					c0.9,2.4,1.7,5,2.3,8c0.5,2.6,0.7,5.4,0.7,8.4C526.6,87.6,526.4,90.5,525.9,93.2z M587.5,49.6l-5.6,14.4l-1.5,3.8l-3-2.4
					c-0.6-0.5-1.2-0.8-1.7-1c-0.3-0.2-0.9-0.5-1.7-0.8c-0.9-0.2-1.6-0.3-2.1-0.4c-0.8-0.1-1.5-0.2-2.3-0.2c-2.1,0-3.8,0.4-5.1,1.3
					c-1.4,0.9-2.5,2.1-3.2,3.7c-1,1.9-1.7,4.6-2.2,8c-0.5,3.8-0.8,8.2-0.8,13.1V125h-21.5V44.1h21.5v3.5c0.3-0.4,0.9-0.9,1.7-1.7
					c1.7-1.3,3.5-2.4,5.6-3.1c2.1-0.7,4.3-1,6.4-1c1.2,0,2.4,0.1,3.6,0.2c1.1,0.2,2.3,0.4,3.6,0.7c0.3,0.1,1.4,0.5,3.4,1.1
					c1.7,0.8,2.8,1.3,3.4,1.6l2.6,1.4L587.5,49.6z M711.6,125h-21.5V83.6c0-4.8-0.2-8.8-0.7-11.8c-0.4-2.7-1-4.7-1.7-6
					c-0.6-1-1.5-1.7-2.7-2.3c-1.4-0.6-3.1-0.9-5.1-0.9c-2.6,0-4.8,0.4-6.5,1.3c-1.6,0.8-2.9,2-4,3.6c-1.2,1.9-2,4.4-2.4,7.5
					c-0.6,3.4-1,7.8-1,13V125h-21.6V83.6c0-4.5-0.2-8.2-0.7-11c-0.3-2.6-1-4.7-1.8-6.3c-0.7-1.2-1.7-2.1-2.8-2.7c-1.3-0.6-3-1-5.1-1
					c-1.3,0-2.5,0.2-3.6,0.5c-0.8,0.2-1.9,0.7-3.2,1.4c-1,0.6-1.9,1.4-2.7,2.2c-0.9,0.9-1.6,1.8-2.1,2.8c-0.3,0.7-0.7,1.4-1,2.3
					c-0.3,1-0.6,2-0.7,3c-0.2,1.4-0.3,3-0.4,4.9c-0.1,1.5-0.1,4.2-0.1,8.4V125h-21.5V44.2h20.5v6.1c1.8-1.8,3.8-3.5,6-4.9
					c2.3-1.3,4.7-2.3,7.2-3c2.5-0.6,5.3-1,8.1-1c2.8,0,5.5,0.3,7.9,1c2.6,0.8,4.8,1.9,6.7,3.2c2,1.3,3.8,3.1,5.4,5.3
					c0.3,0.4,0.8,1.3,1.5,2.5c1.3-1.4,2.2-2.4,2.9-3.1c2.2-2.1,4.4-3.8,6.5-5c2.1-1.3,4.5-2.3,7.2-3c2.5-0.6,5.1-1,7.9-1
					c2.5,0,4.8,0.3,6.9,0.8c2,0.4,4,1.2,6.1,2.3c2.1,1.2,3.8,2.4,5.1,3.8c1.6,1.6,2.9,3.4,3.9,5.3c0.3,0.7,0.8,1.7,1.4,3.2
					c0.3,1.1,0.6,2.3,0.9,3.6c0.2,1.7,0.4,3.2,0.5,4.5c0.1,2.3,0.1,4.2,0.1,5.7V125z M781,112.3c-1.4,3.3-3.5,6.2-6.4,8.7
					c-2.7,2.2-5.9,4-9.8,5.2c-3.7,1.1-7.8,1.7-12.3,1.7c-3.4,0-6.7-0.4-9.8-1.1c-2.9-0.8-5.6-1.9-8.1-3.3c-2.5-1.5-4.7-3.4-6.6-5.8
					c-2.1-2.5-3.7-5.2-4.9-8.1l-1.2-2.8l2.6-1.5l12.8-7.7l3.3-1.9l1,4c0.3,1.5,0.9,2.8,1.6,3.9c0.7,1.2,1.6,2.1,2.5,2.7
					c0.9,0.7,2.1,1.3,3.4,1.7c1.6,0.4,3.2,0.6,4.8,0.6c1.5,0,2.7-0.2,3.7-0.5c1-0.3,1.8-0.8,2.4-1.4c0.6-0.5,1.1-1.1,1.4-1.9
					c0.3-0.7,0.4-1.6,0.4-2.7c0-1-0.5-2.1-1.5-3.1c-1.6-1.4-3.9-2.8-7-4c-1.4-0.5-2.4-1-3.2-1.3c-1.2-0.5-2.1-0.9-2.6-1.1
					c-3.8-1.7-7-3.4-9.5-5.1c-2.9-1.9-5.1-3.8-6.6-5.6c-1.8-2-3-4.3-3.8-6.7c-0.9-2.4-1.3-5-1.3-7.9c0-3.8,0.7-7.3,2.1-10.5
					c1.4-3.1,3.4-5.9,6.2-8.2c2.5-2.3,5.5-4.1,9.2-5.2c3.7-1.1,7.5-1.7,11.4-1.7c2.7,0,5.4,0.3,7.9,0.9h0.1c2.5,0.6,4.8,1.5,6.8,2.7
					h0.1c2.1,1.2,4,2.7,5.6,4.4c1.5,1.7,2.8,3.8,3.9,6.1l1.1,2.5l-2.1,1.7l-10.9,8.3l-3.2,2.3l-1.3-3.9c-0.3-0.9-0.7-1.6-1.2-2.2
					c-0.5-0.7-1.1-1.3-1.8-1.8H760c-0.6-0.4-1.4-0.8-2.3-1.2c-0.9-0.2-1.9-0.3-3-0.3c-1.3,0-2.3,0.1-3.1,0.4
					c-0.8,0.3-1.5,0.6-2.1,1.1c-0.5,0.5-0.9,1-1.1,1.5c-0.3,0.5-0.4,1.1-0.4,2c0,2.3,3.3,4.8,9.9,7.4c0.5,0.2,1.1,0.4,1.6,0.7
					c0.5,0.2,1.2,0.5,1.8,0.7c0.5,0.3,1.3,0.7,2.4,1.1c3.3,1.4,6.2,2.9,8.5,4.6c2.5,1.7,4.5,3.6,6.1,5.5c1.5,1.9,2.7,4.2,3.6,6.9
					c0.8,2.7,1.2,5.4,1.2,8.1C783.1,105.1,782.4,108.9,781,112.3z M747.5,99l0.3,0.1c0.8,0.3,1.9,0.8,3.4,1.4c1.9,0.8,3.2,1.5,4.1,2
					c-0.3,0-0.8,0.1-1.4,0.1c-1.1,0-2.1-0.1-3.3-0.4c-0.5-0.2-0.9-0.3-1.2-0.6c-0.1-0.1-0.2-0.2-0.3-0.2c-0.1-0.1-0.4-0.3-0.8-1
					c0-0.1-0.1-0.2-0.2-0.2C747.9,99.9,747.7,99.4,747.5,99z"/>
				<path class="st2" d="M176,68.6c-1.4-1.7-2.9-2.9-4.7-3.9c-1.9-0.9-4.1-1.3-6.6-1.3c-2.4,0-4.6,0.4-6.6,1.3
					c-1.9,1-3.5,2.3-4.8,4.1c-1.4,1.9-2.5,4.1-3.2,6.7c-0.8,2.7-1.2,5.9-1.2,9.5c0,3.7,0.4,6.9,1.1,9.5c0.6,2.6,1.7,4.8,3.1,6.5
					c1.3,1.8,2.9,3.1,4.6,3.9c1.9,0.9,4.2,1.4,6.7,1.4c2.3,0,4.4-0.5,6.3-1.5c1.8-0.8,3.4-2.2,4.9-4.3c1.5-2.1,2.6-4.4,3.4-6.9
					c0.8-2.6,1.2-5.7,1.2-9.3c0-3.5-0.4-6.6-1.1-9.3C178.3,72.5,177.3,70.4,176,68.6z M173.3,91.9c-0.6,1.9-1.4,3.6-2.5,5.1
					c-0.8,1.1-1.7,2-2.6,2.3c-0.1,0-0.2,0.1-0.3,0.1c-1,0.5-2.2,0.8-3.6,0.8c-1.6,0-3-0.3-4.1-0.8c-0.9-0.4-1.7-1.1-2.4-2
					c0-0.1-0.1-0.1-0.1-0.2c-0.9-1.1-1.5-2.5-2-4.2c-0.6-2.3-0.9-4.9-0.9-8.1c0-3.1,0.3-5.7,0.9-7.8c0.5-1.9,1.2-3.5,2.2-4.8
					c0.8-1,1.6-1.8,2.6-2.3c1.2-0.5,2.5-0.7,4.1-0.7c1.6,0,2.9,0.2,4,0.7c1,0.5,1.8,1.2,2.6,2.2c0.8,1.2,1.5,2.7,2,4.5
					c0.6,2.1,0.9,4.7,0.9,7.6C174.2,87.3,173.9,89.9,173.3,91.9z"/>
				<path class="st2" d="M340.4,70.2c-0.7-1.6-1.7-2.9-2.9-4c-1.3-1.2-2.8-2-4.5-2.6c-1.9-0.6-3.9-0.9-6.2-0.9c-2.2,0-4.2,0.3-6,0.9
					c-1.8,0.6-3.2,1.4-4.3,2.4h-0.1c-1.3,1.1-2.3,2.5-3.2,4.2c-0.4,0.8-0.8,1.5-1,2.2h29C341,71.7,340.7,71,340.4,70.2z"/>
				<path class="st2" d="M493.3,65c-2.2-1-4.5-1.5-6.8-1.5c-2.4,0-4.7,0.5-6.8,1.5c-2.1,1.1-4,2.6-5.7,4.6c-1.8,2.1-3.1,4.4-4,6.9
					c-0.9,2.6-1.3,5.4-1.3,8.4c0,3.1,0.4,5.8,1.3,8.3c0.9,2.6,2.2,4.9,4,6.8c1.8,2.1,3.7,3.6,5.7,4.6c1.9,1,4.2,1.5,6.8,1.5
					c2.5,0,4.8-0.5,6.8-1.5c2.1-1,4-2.5,5.7-4.6c1.8-2,3.1-4.3,3.9-6.8c0.9-2.4,1.4-5.2,1.4-8.3c0-6-1.8-11.1-5.3-15.2
					C497.3,67.6,495.4,66.1,493.3,65z M497.3,91c0,0.1-0.1,0.2-0.1,0.3c-0.6,1.8-1.5,3.4-2.7,4.7c0,0-0.1,0.1-0.1,0.1
					c-1.2,1.4-2.4,2.5-3.7,3c0,0-0.1,0-0.1,0.1c-1.2,0.6-2.5,0.9-4.2,0.9c-1.6,0-3-0.3-4.1-0.9c-0.1,0-0.1-0.1-0.2-0.1
					c-1.3-0.6-2.5-1.6-3.7-3c-0.1-0.1-0.1-0.1-0.2-0.2c-1.2-1.3-2.1-2.9-2.7-4.7c-0.7-1.9-1-4.1-1-6.4c0-2.3,0.3-4.5,1-6.5
					c0.6-1.7,1.6-3.4,2.9-4.9c1.2-1.3,2.5-2.4,3.8-3.1c1.3-0.6,2.7-0.9,4.2-0.9c1.5,0,2.8,0.3,4.2,0.9c1.4,0.7,2.6,1.8,3.8,3.1
					c2.6,3,3.8,6.7,3.8,11.3C498.3,87.2,498,89.3,497.3,91z"/>
			</g>
		</g>
	</g>
	<g>
		<path class="st1" d="M558.6,142.5l-7.6,81.9h36.8L586,244h-59.2l9.4-101.4H558.6 M587.8,224.5L587.8,224.5 M558.6,139.6h-22.4
			c-1.5,0-2.8,1.1-2.9,2.6l-9.4,101.4c-0.1,0.8,0.2,1.6,0.7,2.2c0.6,0.6,1.3,0.9,2.1,0.9H586c1.5,0,2.8-1.1,2.9-2.6l1.8-19.4
			c0-0.1,0-0.3,0-0.4c0-1.6-1.3-2.9-2.9-2.9h0h-33.6l7.3-78.7c0.1-0.8-0.2-1.6-0.7-2.2C560.2,140,559.4,139.6,558.6,139.6
			L558.6,139.6z M558.6,145.4L558.6,145.4L558.6,145.4L558.6,145.4z"/>
		<path class="st1" d="M617.9,140.6c1.7,0,3.2,0.3,4.7,0.8c1.3,0.5,2.6,1.4,3.8,2.6c1.1,1.2,1.8,2.4,2.3,3.7c0.4,1.4,0.6,3,0.4,4.5
			c-0.3,3.3-1.7,6.1-4.3,8.4c-1.4,1.1-2.8,2-4.3,2.6c-1.6,0.6-3.2,0.9-4.8,0.9c-1.6,0-3.1-0.3-4.7-0.9c-1.5-0.6-2.8-1.5-3.8-2.6
			c-1-1-1.8-2.3-2.4-3.8c-0.5-1.4-0.7-2.9-0.5-4.5c0.1-1.6,0.6-3.1,1.3-4.5c0.7-1.4,1.7-2.6,3.1-3.7c1.2-1.1,2.7-2,4.2-2.6
			C614.5,140.9,616.1,140.6,617.9,140.6 M617.9,137.7c-2.2,0-4.1,0.4-5.9,1.1c-1.9,0.7-3.5,1.7-5,3c-1.7,1.3-3,2.9-3.8,4.6
			c-0.9,1.7-1.5,3.6-1.7,5.5c-0.2,2.1,0,4,0.7,5.8c0.7,1.8,1.7,3.5,3,4.8c1.3,1.4,2.9,2.4,4.7,3.2c1.9,0.8,3.9,1.2,5.8,1.2
			c1.9,0,3.9-0.4,5.8-1.1c0,0,0.1,0,0.1,0c1.8-0.7,3.5-1.7,5.1-3c0,0,0.1-0.1,0.1-0.1c3.1-2.7,4.9-6.2,5.2-10.3
			c0.2-1.9,0-3.8-0.6-5.6c0,0,0-0.1,0-0.1c-0.6-1.7-1.6-3.3-2.9-4.7c0,0-0.1-0.1-0.1-0.1c-1.4-1.4-3-2.5-4.7-3.2c0,0-0.1,0-0.1,0
			C621.8,138.1,619.9,137.7,617.9,137.7L617.9,137.7z"/>
		<path class="st1" d="M625.1,176.3l-6.2,67.7H598l6.2-67.7H625.1 M625.1,173.4h-20.9c-1.5,0-2.8,1.1-2.9,2.6l-6.2,67.7
			c-0.1,0.8,0.2,1.6,0.7,2.2c0.6,0.6,1.3,0.9,2.1,0.9h20.9c1.5,0,2.8-1.1,2.9-2.6l6.2-67.7c0.1-0.8-0.2-1.6-0.7-2.2
			C626.7,173.7,625.9,173.4,625.1,173.4L625.1,173.4z M625.1,179.2L625.1,179.2L625.1,179.2L625.1,179.2z"/>
		<path class="st1" d="M711.1,176.3L711.1,176.3 M711.1,176.3l-2.5,3.6l-39.9,59.5l-3.1,4.6l-2.2-4.6l-28.9-59.5l-1.7-3.6h23
			l0.6,1.5l11.7,28.2c0.2,0.4,0.4,1,0.7,1.9l0.2,0.4c0.2-0.4,0.4-0.7,0.6-1.1c0.2-0.4,0.5-0.8,0.7-1.1l16.9-28.2l0.9-1.5H711.1
			 M711.1,173.4L711.1,173.4h-23c-1,0-2,0.5-2.5,1.4l-0.9,1.5l-15.2,25.4l-10.3-25l-0.7-1.5c-0.5-1.1-1.5-1.8-2.7-1.8h-23
			c-1,0-1.9,0.5-2.5,1.4c-0.5,0.8-0.6,1.9-0.2,2.8l1.7,3.6l28.9,59.5l2.2,4.6c0.5,0.9,1.4,1.6,2.4,1.6c0.1,0,0.1,0,0.2,0
			c1,0,1.9-0.5,2.4-1.3l3.1-4.6l39.9-59.5l2.4-3.5c0.4-0.5,0.6-1.1,0.6-1.7C714,174.7,712.7,173.4,711.1,173.4L711.1,173.4z
			 M711.1,179.2L711.1,179.2L711.1,179.2L711.1,179.2z"/>
		<path class="st1" d="M744.8,176.3c11.4,0,20,3,26,8.8c2.9,2.9,5,6.4,6.4,10.6c1.2,4,1.6,8.6,1.1,13.7l-0.5,5.1h-16.8l1.9,1l12,6.3
			l2.5,1.3l-1.6,2.3c-2.2,3.1-4.6,5.8-7.3,8.2c-2.8,2.4-5.7,4.4-8.7,5.9c-2.7,1.4-6.1,2.6-9.9,3.5c-3.6,0.8-7.3,1.1-11.2,1.1
			c-5.5,0-10.5-0.8-15-2.3c-4.4-1.4-8.2-3.7-11.3-6.9c-3.2-3.1-5.4-6.7-6.7-10.9c-1.3-4.1-1.7-8.6-1.2-13.6
			c0.5-4.9,1.7-9.4,3.8-13.4c2.1-4,5.1-7.7,8.9-10.9c3.7-3.2,8-5.6,12.7-7.2C734.2,177.1,739.3,176.3,744.8,176.3 M728.7,200.4H757
			c-0.1-0.5-0.4-1.1-0.6-1.7c-0.6-1.2-1.5-2.3-2.6-3.2c-1.2-0.9-2.6-1.6-4.2-2c-1.8-0.5-3.8-0.7-6-0.7c-2.1,0-4.1,0.2-5.9,0.7
			c-1.8,0.5-3.2,1.1-4.4,1.9h-0.1c-1.3,0.9-2.4,2-3.4,3.3C729.4,199.3,729,199.9,728.7,200.4 M760.1,214.5h-34.4
			c0.1,1.3,0.4,2.5,0.7,3.7c0.6,1.9,1.6,3.4,2.8,4.6c1.3,1.3,2.7,2.2,4.5,2.8c1.7,0.6,3.8,0.9,6.2,0.9c2.2,0,4.2-0.2,6-0.6
			c1.5-0.3,3.1-0.8,4.7-1.6c1.3-0.7,2.7-1.7,4.2-3c1.4-1.4,2.7-3,3.9-4.7L760.1,214.5 M744.8,173.4c-5.8,0-11.2,0.9-16,2.6
			c-5.1,1.7-9.7,4.4-13.6,7.7c-4.1,3.4-7.3,7.4-9.6,11.7c-2.3,4.4-3.6,9.2-4.1,14.5c-0.5,5.4,0,10.4,1.4,14.8
			c1.4,4.6,3.9,8.7,7.4,12.1c3.4,3.5,7.6,6.1,12.5,7.7c4.7,1.6,10.1,2.5,15.9,2.5c4,0,8-0.4,11.8-1.2c4.2-1,7.8-2.2,10.7-3.7
			c3.2-1.6,6.3-3.7,9.3-6.2c2.9-2.5,5.5-5.4,7.8-8.7l1.6-2.3c0.5-0.7,0.7-1.6,0.5-2.4c-0.2-0.8-0.7-1.5-1.5-1.9l-2.5-1.3l-3.4-1.8h5
			c1.5,0,2.8-1.1,2.9-2.6l0.5-5.1c0.5-5.4,0.1-10.4-1.2-14.8c-1.5-4.7-3.9-8.6-7.1-11.8C766.3,176.7,756.9,173.4,744.8,173.4
			L744.8,173.4z M735.5,197.5c0.8-0.5,1.8-0.9,3-1.2c1.5-0.4,3.3-0.6,5.2-0.6c2,0,3.7,0.2,5.3,0.6c1,0.3,1.9,0.7,2.6,1.2H735.5
			L735.5,197.5z M729.2,217.4h25.1c-0.5,0.6-1.1,1.2-1.6,1.7c-1.2,1.1-2.4,2-3.6,2.6c-1.3,0.7-2.6,1.1-3.8,1.3c-0.1,0-0.1,0-0.2,0
			c-1.5,0.4-3.3,0.6-5.3,0.6c-2.1,0-3.8-0.3-5.2-0.8c-1.4-0.5-2.5-1.2-3.4-2.1C730.4,219.9,729.7,218.8,729.2,217.4L729.2,217.4z"/>
	</g>
	<g>
		<polygon class="st2" points="526.8,244 586,244 587.8,224.5 551,224.5 558.6,142.5 536.2,142.5 		"/>
		<path class="st2" d="M622.6,141.5c-1.5-0.5-3-0.8-4.7-0.8c-1.8,0-3.4,0.3-4.8,0.9c-1.6,0.6-3,1.4-4.2,2.6
			c-1.4,1.1-2.4,2.3-3.1,3.7c-0.7,1.4-1.2,2.9-1.3,4.5c-0.2,1.7,0,3.2,0.5,4.5c0.5,1.5,1.3,2.7,2.4,3.8c1,1.1,2.2,1.9,3.8,2.6
			c1.6,0.6,3.1,0.9,4.7,0.9c1.6,0,3.2-0.3,4.8-0.9c1.5-0.6,2.9-1.4,4.3-2.6c2.5-2.3,4-5,4.3-8.4c0.1-1.6,0-3.1-0.4-4.5
			c-0.4-1.3-1.2-2.5-2.3-3.7C625.2,142.8,624,142,622.6,141.5z"/>
		<polygon class="st2" points="598,244 618.9,244 625.1,176.3 604.2,176.3 		"/>
		<path class="st2" d="M632.8,176.3l1.7,3.6l28.9,59.5l2.2,4.6l3.1-4.6l39.9-59.5l2.5-3.6h-23l-0.9,1.5L670.2,206
			c-0.2,0.4-0.5,0.7-0.7,1.1c-0.2,0.4-0.4,0.8-0.6,1.1l-0.2-0.4c-0.3-0.9-0.5-1.5-0.7-1.9l-11.7-28.2l-0.6-1.5H632.8z"/>
		<path class="st2" d="M712.2,234.7c3.1,3.2,6.9,5.5,11.3,6.9c4.5,1.6,9.5,2.3,15,2.3c3.9,0,7.6-0.4,11.2-1.1c3.9-0.9,7.2-2,9.9-3.5
			c3-1.5,6-3.5,8.7-5.9c2.7-2.4,5.1-5.1,7.3-8.2l1.6-2.3l-2.5-1.3l-12-6.3l-1.9-1h16.8l0.5-5.1c0.5-5.1,0.1-9.7-1.1-13.7
			c-1.3-4.2-3.5-7.7-6.4-10.6c-6-5.9-14.6-8.8-26-8.8c-5.5,0-10.5,0.8-15,2.4c-4.8,1.6-9,4-12.7,7.2c-3.8,3.2-6.8,6.8-8.9,10.9
			c-2.1,4-3.4,8.5-3.8,13.4c-0.5,5-0.1,9.6,1.2,13.6C706.8,228,709,231.6,712.2,234.7z M729.9,198.7c0.9-1.3,2.1-2.4,3.4-3.3h0.1
			c1.2-0.8,2.6-1.4,4.4-1.9c1.8-0.5,3.8-0.7,5.9-0.7c2.2,0,4.2,0.2,6,0.7c1.6,0.4,3,1.1,4.2,2c1.1,0.9,2,1.9,2.6,3.2
			c0.3,0.6,0.5,1.2,0.6,1.7h-28.2C729,199.9,729.4,199.3,729.9,198.7z M760.1,214.5l-1.5,2.1c-1.2,1.7-2.5,3.2-3.9,4.7
			c-1.5,1.3-2.9,2.3-4.2,3c-1.6,0.8-3.2,1.4-4.7,1.6c-1.7,0.4-3.7,0.6-6,0.6c-2.4,0-4.5-0.3-6.2-0.9c-1.7-0.6-3.2-1.5-4.5-2.8
			c-1.2-1.2-2.1-2.8-2.8-4.6c-0.4-1.2-0.6-2.4-0.7-3.7H760.1z"/>
	</g>
</g>
</svg>
