<?xml version="1.0" encoding="UTF-8" standalone="no"?>
<!-- Created with Inkscape (http://www.inkscape.org/) -->

<svg
   xmlns:dc="http://purl.org/dc/elements/1.1/"
   xmlns:cc="http://creativecommons.org/ns#"
   xmlns:rdf="http://www.w3.org/1999/02/22-rdf-syntax-ns#"
   xmlns:svg="http://www.w3.org/2000/svg"
   xmlns="http://www.w3.org/2000/svg"
   xmlns:xlink="http://www.w3.org/1999/xlink"
   xmlns:sodipodi="http://sodipodi.sourceforge.net/DTD/sodipodi-0.dtd"
   xmlns:inkscape="http://www.inkscape.org/namespaces/inkscape"
   width="1024"
   height="400"
   viewBox="0 0 1024 400"
   id="svg10656"
   version="1.1"
   inkscape:version="0.91 r13725"
   sodipodi:docname="waveforms-live.svg">
  <defs
     id="defs10658">
    <linearGradient
       inkscape:collect="always"
       id="linearGradient12099">
      <stop
         style="stop-color:#ffa500;stop-opacity:1;"
         offset="0"
         id="stop12101" />
      <stop
         style="stop-color:#ffa500;stop-opacity:0;"
         offset="1"
         id="stop12103" />
    </linearGradient>
    <linearGradient
       inkscape:collect="always"
       id="linearGradient12048">
      <stop
         id="stop12052"
         offset="0"
         style="stop-color:#ffa500;stop-opacity:0" />
      <stop
         id="stop12050"
         offset="1"
         style="stop-color:#ffa500;stop-opacity:1" />
    </linearGradient>
    <linearGradient
       inkscape:collect="always"
       id="1">
      <stop
         style="stop-color:#535353;stop-opacity:1;"
         offset="0"
         id="stop11890" />
      <stop
         style="stop-color:#535353;stop-opacity:0;"
         offset="1"
         id="stop11892" />
    </linearGradient>
    <linearGradient
       inkscape:collect="always"
       id="linearGradient11880">
      <stop
         style="stop-color:#000000;stop-opacity:1;"
         offset="0"
         id="stop11882" />
      <stop
         style="stop-color:#000000;stop-opacity:0;"
         offset="1"
         id="stop11884" />
    </linearGradient>
    <linearGradient
       inkscape:collect="always"
       xlink:href="#linearGradient11880"
       id="linearGradient11886"
       x1="-1087.4195"
       y1="-133.74385"
       x2="-1083.2812"
       y2="-133.74385"
       gradientUnits="userSpaceOnUse" />
    <linearGradient
       inkscape:collect="always"
       xlink:href="#1"
       id="linearGradient11894"
       x1="-1129.59"
       y1="-133.4785"
       x2="-1116.6599"
       y2="-133.4785"
       gradientUnits="userSpaceOnUse" />
    <linearGradient
       inkscape:collect="always"
       xlink:href="#linearGradient12048"
       id="linearGradient11912"
       x1="-1371.0867"
       y1="-44.029305"
       x2="-1106.0117"
       y2="-44.029305"
       gradientUnits="userSpaceOnUse" />
    <linearGradient
       inkscape:collect="always"
       xlink:href="#linearGradient12099"
       id="linearGradient12105"
       x1="-1062.6562"
       y1="-71.665371"
       x2="-727.3462"
       y2="-71.665371"
       gradientUnits="userSpaceOnUse" />
  </defs>
  <sodipodi:namedview
     id="base"
     pagecolor="#535353"
     bordercolor="#666666"
     borderopacity="1.0"
     inkscape:pageopacity="1"
     inkscape:pageshadow="2"
     inkscape:zoom="0.70710678"
     inkscape:cx="480.68667"
     inkscape:cy="214.26468"
     inkscape:document-units="px"
     inkscape:current-layer="g11759"
     showgrid="false"
     inkscape:window-width="1920"
     inkscape:window-height="1017"
     inkscape:window-x="1912"
     inkscape:window-y="-8"
     inkscape:window-maximized="1"
     units="px" />
  <metadata
     id="metadata10661">
    <rdf:RDF>
      <cc:Work
         rdf:about="">
        <dc:format>image/svg+xml</dc:format>
        <dc:type
           rdf:resource="http://purl.org/dc/dcmitype/StillImage" />
        <dc:title></dc:title>
      </cc:Work>
    </rdf:RDF>
  </metadata>
  <g
     inkscape:label="Layer 1"
     inkscape:groupmode="layer"
     id="layer1"
     transform="translate(0,-652.36216)">
    <g
       id="g11212"
       transform="translate(-127.98633,96.873629)">
      <g
         id="g11759"
         transform="matrix(1.2935787,0,0,1.2935787,2006.2027,877.30214)">
        <path
           id="path11634"
           d="m -1199.5312,36.127566 c -8.6594,-1.85985 -21.6081,-6.51027 -30.3108,-10.88589 -23.1623,-11.64577 -44.0631,-27.8213404 -90.158,-69.77492 -19.5624,-17.80487 -36.8718,-32.455146 -45.3645,-39.75633 -8.4927,-7.301184 -4.5781,-3.8001 -5.2583,-4.43426 -1.0166,-0.94779 -0.4977,-3.45063 2.9158,-14.062496 2.2839,-7.10022 4.4073,-14.06965 4.7188,-15.48762 0.3115,-1.41797 1.0803,-2.57812 1.7084,-2.57812 0.6282,0 3.3563,6.22265 6.0626,13.82812 5.5161,15.502156 7.2247,18.046876 12.1171,18.046876 5.5146,0 7.1027,-2.47601 12.8809,-20.083016 2.8899,-8.8059 5.412,-16.17632 5.6048,-16.3787 0.8298,-0.87139 3.5635,2.53159 6.1504,7.65617 4.7343,9.37854 12.565,16.5096 21.4974,19.576696 2.1741,0.74654 11.1165,8.85694 27.5916,25.02465 27.5212,27.00762 41.2183,39.10228 53.3476,47.10646 19.6229,12.94922 36.0119,14.33634 47.4366,4.01486 9.5251,-8.60538 12.8764,-20.20061 17.2644,-59.73389 1.2499,-11.26015 2.6169,-20.817396 2.6169,-20.817396 0.1894,-0.18942 2.47,0.67289 5.068,1.91624 2.5979,1.243336 6.5895,2.690706 8.8701,3.216356 5.9716,1.37641 15.6415,0.52079 23.394,-0.32782 1.8095,-0.198076 5.2252,-1.22912 5.3477,-1.10658 0.1226,0.12255 -0.3946,3.45008 -1.1493,7.39451 -0.7547,3.94442 -2.2354,17.2041 -3.2903,29.46594 -2.9191,33.92767 -5.9472,49.74585 -12.1202,63.3131296 -8.1641,17.9435004 -22.5582,29.9044804 -41.4328,34.4292604 -9.3728,2.2469 -26.1241,2.45341 -35.5089,0.43777 z"
           style="fill:url(#linearGradient11912);fill-opacity:1.0;stroke:none;stroke-opacity:1"
           inkscape:connector-curvature="0" />
        <path
           id="path11632"
           d="m -929.54261,6.8822956 c -0.021,-2.94925 8.5288,-95.3588096 8.9335,-96.5624996 0.2848,-0.84696 3.3913,-1.17187 11.2047,-1.17187 10.5881,0 10.8106,0.0434 10.804,2.10937 0,1.16016 -1.4802,17.87378 -3.2812,37.14138 -1.801,19.2676 -3.2746,36.24807 -3.2746,37.73437 l 0,2.70238 17.4722,0 17.4722,0 -0.6688,9.1116996 c -0.3679,5.01143 -0.8725,9.44112 -1.1213,9.84375 -0.2489,0.40263 -13.2947,0.73205 -28.9909,0.73205 -26.5501,0 -28.5392,-0.11431 -28.5498,-1.64063 z"
           style="fill:#000000"
           inkscape:connector-curvature="0" />
        <path
           id="path11630"
           d="m -860.59901,3.1634656 c 0.3272,-2.98199005 1.7288,-17.8671096 3.1147,-33.0780396 l 2.5198,-27.65625 10.5584,-0.26535 10.5585,-0.26536 -0.5898,5.89036 c -0.3244,3.23969 -1.7086,18.12472 -3.0762,33.07785 l -2.4864,27.1874996 -10.5969,0.26554 -10.597,0.26555 z"
           style="fill:#000000"
           inkscape:connector-curvature="0" />
        <path
           id="path11628"
           d="m -802.84081,-6.5741444 c -4.0721,-8.4544196 -11.2512,-23.3292396 -15.9534,-33.0551496 -4.7022,-9.72589 -8.5495,-17.84699 -8.5495,-18.04687 0,-0.19988 5.168,-0.36325 11.4844,-0.36305 l 11.4844,3.7e-4 6.0937,14.90071 c 3.3516,8.19539 6.3533,14.74457 6.6704,14.55371 0.3172,-0.19085 4.4812,-6.89634 9.25349,-14.90108 l 8.67681,-14.55407 11.13716,0 c 6.12542,0 11.13714,0.32703 11.13714,0.72676 0,0.39971 -9.90689,15.43806 -22.01532,33.41855 l -22.01528,32.6917996 z"
           style="fill:#000000"
           inkscape:connector-curvature="0" />
        <path
           id="path11626"
           d="m -735.12318,7.1236956 c -7.2204,-1.57035 -10.76541,-3.39566 -15.1921,-7.82234005 -5.9369,-5.93689995 -7.18468,-9.54553955 -7.18468,-20.77842955 0,-8.89876 0.25365,-10.3603 2.64223,-15.22447 6.98414,-14.22272 22.8743,-22.51389 40.30383,-21.02976 9.34605,0.79584 14.85481,2.91119 20.27723,7.78641 6.09782,5.48246 8.49546,11.66393 8.49546,21.90257 l 0,7.42692 -7.63145,0.27229 -7.63143,0.27229 7.15258,3.75 c 3.93392,2.0625 7.15713,4.06281 7.16269,4.44514 0.0258,1.77636 -12.25182,12.9110096 -16.74201,15.1834096 -9.52669,4.82126 -20.78777,6.17888 -31.65236,3.81597 z"
           style="fill:#000000"
           inkscape:connector-curvature="0" />
        <path
           id="path11624"
           d="m -716.45871,-10.283454 c 3.66033,-1.01647 9.42088,-5.4492 11.05881,-8.50969 0.89472,-1.67181 0.25223,-1.74643 -15.03583,-1.74643 -15.13311,0 -15.97048,0.0945 -15.97048,1.80306 0,2.20083 4.28126,7.45708 6.95479,8.53864 2.7505,1.1126896 8.82177,1.0727096 12.99271,-0.0856 z"
           style="fill:#535353;fill-opacity:1"
           inkscape:connector-curvature="0" />
        <path
           id="path11622"
           d="m -708.32369,-36.556444 c -3.2395,-6.05307 -18.39752,-6.08497 -23.7747,-0.0501 l -1.78593,2.00444 13.3033,0 c 13.19285,0 13.2946,-0.0162 12.25733,-1.95437 z"
           style="fill:#535353;fill-opacity:1"
           inkscape:connector-curvature="0" />
        <path
           id="path11608"
           d="m -851.46071,-72.594114 c -3.0902,-3.09018 -3.2752,-3.60995 -2.8522,-8.01258 1.4523,-15.11426 24.1366,-16.03564 24.1532,-0.98104 0.01,6.87594 -6.1914,12.29816 -14.0601,12.29816 -3.254,0 -4.5092,-0.57284 -7.2409,-3.30454 z"
           style="fill:#000000"
           inkscape:connector-curvature="0" />
        <path
           id="path11600"
           d="m -1394.8878,-92.060414 c -1.0797,-0.7895 -8.6119,-22.642376 -21.7306,-63.046866 -11.043,-34.0112 -20.0831,-62.59601 -20.0892,-63.52179 -0.01,-0.92578 1.0244,-2.71875 2.29,-3.98437 2.1873,-2.18728 2.8573,-2.30114 13.5415,-2.30114 14.2372,0 14.5901,0.26398 18.798,14.0625 1.6511,5.41406 5.1402,16.59376 7.7535,24.84376 l 4.7516,15 8.6106,-25.78125 c 9.3599,-28.02459 9.917,-28.99109 15.5727,-27.01947 3.0355,1.05816 2.5715,-0.0275 13.6368,31.9037 l 7.3779,21.29048 1.5885,-4.88423 c 0.8736,-2.68633 4.4517,-14.15759 7.9512,-25.49169 3.4995,-11.3341 7.1089,-21.35364 8.0209,-22.26563 1.4097,-1.40966 3.4209,-1.65817 13.4196,-1.65817 11.2373,0 11.8638,0.10252 14.0625,2.30114 1.2656,1.26562 2.3011,2.86347 2.3011,3.55076 0,0.6873 -2.0405,7.351 -4.5345,14.80824 -2.4939,7.45724 -4.8153,14.69095 -5.1586,16.07492 l -0.6241,2.51631 4.6587,-3.13507 c 7.547,-5.07879 18.2148,-6.50709 28.1886,-3.77416 4.0424,1.10767 11.2815,1.40459 34.2414,1.40444 21.9173,-1.4e-4 29.4745,0.28997 30.5688,1.17349 0.7994,0.64553 3.6868,6.869 6.4164,13.82994 2.7295,6.96093 5.2328,12.96864 5.5629,13.35045 0.33,0.3818 2.852,-5.10257 5.6043,-12.1875 2.7524,-7.08494 5.6484,-13.61999 6.4355,-14.52233 1.2454,-1.42768 3.2795,-1.64062 15.6718,-1.64062 12.9546,0 14.3909,0.16599 15.9041,1.83801 1.069,1.18122 1.5202,2.8132 1.2628,4.56698 l -0.4005,2.72895 4.5055,-3.56138 c 6.1078,-4.8279 13.7127,-7.54082 22.7906,-8.13009 17.4913,-1.13541 32.3007,6.9699 39.7881,21.77628 l 2.8445,5.625 0.012,-28.30622 c 0.012,-28.18171 0.021,-28.31264 2.0954,-29.76563 1.7916,-1.25486 6.7848,-1.45941 35.625,-1.45941 32.2914,0 33.6113,0.0699 35.4164,1.875 1.7084,1.70833 1.875,3.125 1.875,15.9375 0,19.08281 1.5712,17.81251 -22.0312,17.81251 l -18.2813,0 0,5.15625 0,5.15625 18.6047,0 c 21.0856,0 21.7078,0.20329 21.7078,7.09255 l 0,3.66366 3.1961,-4.7459 c 12.89489,-19.14787 36.25389,-25.34911 56.58529,-15.02202 8.7543,4.44667 17.9785,14.74504 21.2942,23.77407 1.2072,3.28732 1.2966,2.64932 1.3583,-9.69519 0.087,-17.35549 -0.5283,-16.73196 16.7074,-16.9368 6.9823,-0.083 14.5421,-0.668 16.7995,-1.30004 5.9455,-1.66465 14.2442,-0.63044 21.2508,2.64836 5.7734,2.70171 5.977,2.72972 7.0737,0.97359 1.04,-1.66533 2.2554,-1.79967 15.3851,-1.70068 10.561,0.0796 15.4486,-0.27113 18.858,-1.35331 9.5025,-3.01626 22.3923,-1.2232 28.6214,3.98143 l 3.2235,2.69339 3.8077,-2.56756 c 6.244,-4.21033 12.69397,-5.86575 20.94971,-5.37687 11.90846,0.70519 20.37352,5.78058 25.34012,15.19317 2.49238,4.72349 2.52093,4.99299 2.81463,26.56877 0.16319,11.98828 0.52988,21.79688 0.81486,21.79688 0.56606,0 11.30387,-6.32156 13.16801,-7.75225 0.85514,-0.65631 0.12024,-1.89341 -2.83364,-4.77006 -5.70447,-5.55533 -7.57456,-9.97918 -7.98277,-18.88394 -0.2741,-5.9792 0.0644,-8.58757 1.66931,-12.86342 2.54349,-6.77642 8.64492,-13.16573 15.7547,-16.49806 4.8067,-2.25288 6.43221,-2.51213 15.67532,-2.5001 9.34578,0.0122 10.81004,0.25653 15.62002,2.60689 8.48805,4.14761 16.8974,15.37053 15.29655,20.41439 -0.32995,1.03957 -3.7374,4.36401 -7.5721,7.38763 l -6.97219,5.4975 3.27111,2.02165 c 9.43534,5.83137 14.2028,15.69147 13.42758,27.77105 -1.11709,17.40655 -13.05568,28.018056 -32.86439,29.211186 -16.03419,0.96578 -28.27633,-5.067506 -34.72041,-17.111216 -1.49649,-2.79688 -1.50506,-2.77244 -1.54238,4.39996 -0.0515,9.8981 -0.4348,10.13129 -16.65239,10.13129 -17.57138,0 -16.19765,2.454846 -16.19765,-28.94532 0,-13.85742 -0.26367,-26.51367 -0.58594,-28.125 -0.51943,-2.59714 -0.95051,-2.92968 -3.79784,-2.92968 -5.51762,0 -6.11072,2.86329 -6.65852,32.14801 -0.4511,24.11322 -0.5478,25.17141 -2.4224,26.48438 -1.473,1.03177 -5.0092,1.36761 -14.4002,1.36761 -17.5467,0 -16.1703,2.433136 -16.3085,-28.82813 -0.061,-13.79297 -0.3793,-26.34375 -0.7072,-27.89062 -0.485,-2.28749 -1.1295,-2.86475 -3.4527,-3.09237 -1.9812,-0.19412 -3.416,0.33815 -4.6834,1.73742 -1.6958,1.87233 -1.8607,3.93574 -2.2958,28.71669 -0.4398,25.05192 -0.581,26.78139 -2.2886,28.0282 -1.3599,0.993 -5.0546,1.32881 -14.6203,1.32881 -11.1752,0 -12.996,-0.21606 -14.3405,-1.70165 -1.3608,-1.50369 -1.5685,-5.78439 -1.7859,-36.79688 l -0.246,-35.09522 -3.1999,8.25205 c -4.1379,10.67095 -7.4318,12.51095 -13.7584,7.68545 -1.69,-1.28907 -3.9034,-2.34375 -4.9186,-2.34375 -3.4731,0 -4.1638,4.60892 -4.7533,31.71816 -0.5204,23.93016 -0.6776,25.71228 -2.3771,26.95313 -1.3598,0.99287 -5.0551,1.32871 -14.6203,1.32871 -16.6107,0 -15.9036,0.70815 -15.9036,-15.92669 l 0,-12.49779 -2.9536,5.91066 c -3.5361,7.07633 -12.4656,16.36652 -19.1478,19.92121 -13.5267,7.195666 -30.6203,6.986166 -42.9237,-0.52609 -10.03009,-6.12429 -20.35119,-21.03303 -21.68609,-31.32556 -1.2537,-9.66661 0.8786,-8.68074 -18.7754,-8.68074 l -17.3259,0 0,19.51072 c 0,25.286306 1.2535,23.61428 -17.7037,23.61428 -17.4225,0 -16.9838,0.32754 -16.9838,-12.67924 l 0,-9.25035 -2.7854,4.39207 c -8.1234,12.80924 -22.0292,20.350016 -37.5271,20.350016 -24.7568,0 -40.9988,-16.627016 -42.9525,-43.970536 l -0.6413,-8.97485 -12.7001,28.10202 c -10.2578,22.69768 -13.1876,28.374636 -15.2344,29.519566 -5.4381,3.04191 -6.0066,2.12945 -24.9888,-40.112916 l -17.3892,-38.69698 -0.4687,33.68837 c -0.441,31.69053 -0.5769,33.80779 -2.292,35.70185 -1.7126,1.89128 -2.6235,2.00543 -15.0108,1.88104 -9.9991,-0.10042 -14.5256,0.25655 -18.7221,1.476486 -12.761,3.70974 -27.2364,-0.0448 -36.0332,-9.346116 -6.4069,-6.77439 -9.4626,-13.41087 -12.0691,-26.21232 -0.7061,-3.46835 -1.1183,-2.50038 -7.7507,18.20353 -3.8527,12.02667 -7.7791,22.850866 -8.7253,24.053756 -1.7686,2.24838 -5.5934,2.88491 -8.0367,1.33749 -0.7129,-0.45149 -5.6103,-12.735576 -10.8831,-27.297946 -5.2729,-14.56238 -9.8055,-26.10449 -10.0726,-25.64913 -0.267,0.45536 -4.4344,12.0021 -9.2608,25.65942 -4.8264,13.65733 -9.5191,25.575286 -10.4282,26.484376 -1.9466,1.9466 -5.3123,2.14259 -7.6345,0.44455 z"
           style="fill:#000000"
           inkscape:connector-curvature="0" />
        <path
           id="path11598"
           d="m -1379.0419,-132.10207 c 6.0754,-17.27344 11.2984,-31.69986 11.6066,-32.05871 0.3082,-0.35885 5.8338,14.08555 12.2791,32.09865 6.4453,18.01311 11.9557,32.755926 12.2454,32.761826 0.2896,0.006 6.1664,-17.391616 13.0594,-38.661146 6.893,-21.26953 15.5751,-48.05859 19.2935,-59.53125 l 6.7607,-20.85938 -9.5076,0.003 -9.5077,0.003 -10.2702,33.34187 c -5.6486,18.33804 -10.5345,33.50522 -10.8575,33.70485 -0.323,0.19964 -5.5744,-13.97661 -11.6698,-31.50279 -6.0954,-17.52624 -11.3513,-32.03196 -11.6798,-32.23501 -0.3286,-0.20304 -5.4252,14.15562 -11.326,31.90814 -5.9007,17.75253 -10.9522,32.27732 -11.2254,32.27732 -0.2732,0 -5.109,-14.76924 -10.7461,-32.82052 -5.6372,-18.05129 -10.5179,-33.25492 -10.846,-33.78585 -0.3617,-0.58523 -4.132,-0.85892 -9.5755,-0.6951 l -8.9789,0.27022 19.3621,59.71111 c 10.6492,32.84111 19.6266,59.208301 19.9499,58.593751 0.3232,-0.614551 5.5584,-15.250181 11.6338,-32.523611 z"
           style="fill:#ffffff"
           inkscape:connector-curvature="0" />
        <path
           id="path11596"
           d="m -1161.0941,-180.6177 1.77,-3.98437 -11.0355,0 -11.0354,0 -7.8889,20.15625 c -6.8791,17.57608 -9.3098,22.61355 -9.3098,19.29386 0,-0.47431 -3.4124,-9.54462 -7.5831,-20.15625 l -7.583,-19.29386 -10.6982,0 c -5.884,0 -10.6982,0.25866 -10.6982,0.5748 0,0.31614 7.4415,17.08567 16.5367,37.26562 9.0952,20.17996 17.5601,38.97978 18.811,41.77739 l 2.2743,5.086566 17.3351,-38.367816 c 9.5343,-21.1023 18.1315,-40.16078 19.105,-42.35219 z"
           style="fill:#ffffff"
           inkscape:connector-curvature="0" />
        <path
           id="path11594"
           d="m -1270.4419,-108.51006 c 4.9281,-2.78122 5.2857,-2.85564 5.2857,-1.10003 0,1.77157 0.6104,1.88302 10.3125,1.88302 l 10.3125,0 0,-38.4375 0,-38.4375 -10.3125,0 c -9.6875,0 -10.3125,0.11363 -10.3125,1.875 0,2.37826 -0.2436,2.35571 -4.4732,-0.41409 -11.1199,-7.28197 -27.9965,-4.70494 -36.3021,5.54324 -6.9155,8.53298 -9.8497,17.98511 -9.8497,31.72936 0,21.39842 7.971,35.04728 23.4375,40.13236 1.2891,0.42383 5.555,0.64427 9.48,0.48988 5.9823,-0.23531 7.9908,-0.76304 12.4218,-3.26374 z"
           style="fill:#ffffff"
           inkscape:connector-curvature="0" />
        <path
           id="path11592"
           d="m -1285.4691,-125.63079 c -3.6616,-1.06009 -7.4223,-5.38553 -8.7083,-10.01602 -1.4429,-5.19528 -1.1801,-16.15543 0.506,-21.10385 0.8603,-2.5249 2.8455,-5.55228 4.7201,-7.19824 2.7963,-2.45521 3.9624,-2.8402 8.5933,-2.83717 6.9339,0.005 10.9501,2.3739 13.3958,7.90294 5.7871,13.08263 0.9388,30.47541 -9.2868,33.31555 -4.0001,1.11104 -5.1924,1.10288 -9.2201,-0.0632 z"
           style="fill:#000000"
           inkscape:connector-curvature="0" />
        <path
           id="path11590"
           d="m -1275.5681,-133.56859 c 5.8764,-4.94462 6.4135,-19.40688 0.9246,-24.89575 -2.8314,-2.83145 -8.9317,-2.11723 -11.5087,1.34743 -2.6275,3.53272 -3.3055,15.50714 -1.1677,20.62375 2.3172,5.54586 7.1942,6.75956 11.7518,2.92457 z"
           style="fill:#535353;fill-opacity:1"
           inkscape:connector-curvature="0" />
        <path
           id="path11588"
           d="m -1111.5334,-106.67767 c 7.2736,-2.2638 14.1685,-7.35465 18.889,-13.94675 2.056,-2.87122 3.7382,-5.51659 3.7382,-5.8786 0,-0.85222 -15.3683,-10.28655 -16.7565,-10.28655 -0.5808,0 -1.056,0.42065 -1.056,0.9348 0,2.08882 -6.9166,8.45011 -10.1704,9.35388 -5.8545,1.62614 -11.7288,1.18117 -15.1563,-1.14806 -3.2557,-2.2125 -6.2034,-7.04811 -6.7149,-11.01562 l -0.3022,-2.34375 26.0157,-0.24921 26.0156,-0.24921 -0.029,-3.03204 c -0.1869,-19.58556 -7.5248,-33.58343 -20.7915,-39.66256 -5.2354,-2.399 -6.9537,-2.70507 -15.2897,-2.7236 -8.7395,-0.0194 -9.8253,0.19261 -15.642,3.05465 -10.569,5.20038 -18.0729,15.45231 -20.3479,27.79977 -4.3482,23.59958 5.6575,43.8897 24.5557,49.79587 5.8743,1.83585 16.4426,1.651 23.0422,-0.40302 z"
           style="fill:#ffffff"
           inkscape:connector-curvature="0" />
        <path
           id="path11586"
           d="m -1137.6562,-158.00705 c 0,-0.32585 0.8504,-1.96844 1.8898,-3.65018 4.9689,-8.03983 20.4351,-8.20314 25.2737,-0.26689 1.0406,1.70681 1.8936,3.4197 1.8955,3.80642 0,0.38672 -6.5356,0.70313 -14.5278,0.70313 -7.9921,0 -14.5312,-0.26661 -14.5312,-0.59248 z"
           style="fill:#000000"
           inkscape:connector-curvature="0" />
        <path
           id="path11584"
           d="m -958.52951,-106.40357 c 10.5803,-3.09384 19.5612,-11.04661 24.5959,-21.78012 2.5168,-5.3657 2.9908,-7.57401 3.3111,-15.42633 0.3122,-7.65551 0.022,-10.25721 -1.7611,-15.80356 -3.6864,-11.46489 -11.1036,-19.80362 -22.2394,-25.00255 -4.6403,-2.16644 -6.5998,-2.51168 -14.3029,-2.52002 -8.165,-0.009 -9.4476,0.24714 -15.0449,3.00265 -11.9394,5.87776 -20.24529,17.52554 -22.41989,31.4408 -3.1002,19.83747 9.17269,40.50904 27.44019,46.21805 5.4541,1.70454 14.3429,1.64843 20.421,-0.12892 z"
           style="fill:#ffffff"
           inkscape:connector-curvature="0" />
        <path
           id="path11582"
           d="m -978.01611,-128.26783 c -5.2517,-3.80426 -7.7651,-9.39928 -7.7651,-17.28534 0,-12.84001 6.9694,-21.2364 17.6273,-21.2364 5.5243,0 9.6376,2.45488 13.629,8.13391 2.19,3.11609 2.8246,5.17977 3.1982,10.40038 0.5525,7.72259 -0.7039,12.207 -4.6929,16.75025 -3.9214,4.46621 -7.2308,5.96546 -13.1681,5.96546 -4.1021,0 -5.7765,-0.51743 -8.8284,-2.72826 z"
           style="fill:#000000"
           inkscape:connector-curvature="0" />
        <path
           id="path11580"
           d="m -962.16491,-134.6802 c 3.5299,-3.78464 4.5087,-6.16917 4.5087,-10.98411 0,-8.51806 -4.6493,-14.56276 -11.201,-14.56276 -3.5545,0 -6.9637,2.63812 -9.3094,7.20399 -1.2544,2.44155 -1.3883,10.54179 -0.2248,13.59435 1.6555,4.34336 5.6893,7.32666 9.9064,7.32666 3.0635,0 4.4387,-0.56098 6.3201,-2.57813 z"
           style="fill:#535353;fill-opacity:1"
           inkscape:connector-curvature="0" />
        <path
           id="path11578"
           d="m -696.29276,-107.69051 c 17.65328,-7.73783 19.45539,-32.32427 3.12383,-42.61878 -1.86644,-1.17651 -6.94439,-3.67668 -11.28431,-5.55593 -4.33993,-1.87927 -8.66415,-4.11674 -9.60937,-4.97215 -2.33472,-2.11288 -2.16377,-5.53407 0.365,-7.3053 4.75311,-3.3292 12.15434,-0.50074 13.38807,5.11638 l 0.61562,2.80294 7.42511,-5.744 c 4.0838,-3.15921 7.4251,-6.2913 7.4251,-6.96023 0,-2.52751 -6.28278,-9.31674 -10.7484,-11.61483 -9.32255,-4.79755 -24.15273,-3.39527 -31.93514,3.01966 -7.07469,5.83155 -10.26222,19.40292 -6.44605,27.44491 2.49084,5.24905 9.32925,10.65558 19.61337,15.50658 10.74664,5.06918 12.64122,6.53035 12.64122,9.74936 0,5.11467 -8.85353,7.86704 -15.03068,4.6727 -2.73955,-1.41666 -5.59432,-5.66222 -5.59432,-8.31974 0,-2.53664 -1.39796,-2.33591 -6.58812,0.94601 -2.82185,1.78434 -6.51275,4.06377 -8.20199,5.06539 l -3.07137,1.82113 2.32386,4.58594 c 2.92518,5.77255 9.4386,11.5649 15.26691,13.57677 6.57738,2.27044 19.75562,1.66123 26.32166,-1.21681 z"
           style="fill:#ffffff"
           inkscape:connector-curvature="0" />
        <path
           id="path11576"
           d="m -1055.1562,-129.28957 0,-21.5625 20.1562,0 20.1563,0 0,-11.25 0,-11.25 -20.1563,0 -20.1562,0 0,-11.71875 0,-11.71875 20.1562,0 20.1563,0 0,-11.25001 0,-11.25 -30.9375,0 -30.9375,0 0,55.78126 0,55.78125 10.7812,0 10.7813,0 z"
           style="fill:#ffffff"
           inkscape:connector-curvature="0" />
        <path
           id="path11574"
           d="m -899.52411,-127.64895 c 0.01,-20.41726 0.9128,-29.81327 3.3729,-34.9976 2.4791,-5.22434 8.5121,-6.50993 14.7813,-3.14982 1.9813,1.06189 3.7504,1.78262 3.9314,1.60162 1.0391,-1.0391 6.9421,-17.81864 6.5129,-18.51314 -0.9447,-1.52851 -10.8089,-4.70668 -14.6084,-4.70668 -4.0731,0 -9.668,1.9977 -12.3223,4.3998 -1.559,1.41089 -1.6749,1.37598 -1.6749,-0.5045 0,-1.94046 -0.389,-2.0203 -9.8438,-2.0203 l -9.8437,0 0,38.90625 0,38.90625 9.8437,0 9.8438,0 0.01,-19.92188 z"
           style="fill:#ffffff"
           inkscape:connector-curvature="0" />
        <path
           id="path11572"
           d="m -839.37081,-132.8052 c 0.3542,-27.83242 0.6753,-29.42235 6.682,-33.08482 4.2832,-2.61161 10.9795,-2.47715 13.562,0.27232 3.2456,3.45551 3.9236,9.33192 3.9477,34.21875 l 0.023,23.67188 9.7148,0 9.7147,0 0.5099,-23.20313 c 0.5626,-25.60729 1.5545,-31.38194 5.9893,-34.87037 2.9711,-2.33709 11.05358,-2.65355 14.05632,-0.55036 3.37049,2.36079 4.07748,8.28982 4.07748,34.19525 l 0,24.42861 9.84375,0 9.84375,0 -0.0206,-31.17188 c -0.0194,-29.34801 -0.13246,-31.41871 -1.93316,-35.39062 -4.24301,-9.35912 -9.93671,-12.63996 -21.95247,-12.64953 -7.51778,-0.006 -8.91432,0.27358 -12.81185,2.56477 -2.4059,1.41433 -5.6492,3.84629 -7.2073,5.40437 l -2.8328,2.83286 -4.5115,-4.49281 c -5.0779,-5.05682 -9.5074,-6.78466 -17.3931,-6.78466 -6.3752,0 -11.9355,1.8913 -16.7344,5.69206 l -3.6653,2.90299 0,-2.89128 0,-2.89127 -9.375,0 -9.375,0 0,38.4375 0,38.4375 9.7644,0 9.7644,0 0.3191,-25.07813 z"
           style="fill:#ffffff"
           inkscape:connector-curvature="0" />
        <path
           id="path11570"
           d="m -712.03121,-130.22707 c -0.77344,-0.49984 -1.82812,-0.90879 -2.34375,-0.90879 -0.51562,0 -0.30469,0.40895 0.46875,0.90879 0.77344,0.49983 1.82813,0.90878 2.34375,0.90878 0.51563,0 0.30469,-0.40895 -0.46875,-0.90878 z"
           style="fill:#535353;fill-opacity:1"
           inkscape:connector-curvature="0" />
        <path
           id="path11568"
           d="m -1117.4448,-133.47851 c 1.649,-1.2472 1.1156,-1.37643 -5.6802,-1.37643 -6.7957,0 -7.3291,0.12923 -5.6801,1.37643 1.0009,0.75704 3.5569,1.37644 5.6801,1.37644 2.1233,0 4.6793,-0.6194 5.6802,-1.37644 z"
           style="fill:url(#linearGradient11894);fill-opacity:1.0"
           inkscape:connector-curvature="0" />
        <path
           id="path11566"
           d="m -1083.2812,-133.84707 c 0,-1.36044 -0.5217,-1.64527 -2.3673,-1.29246 -2.2003,0.42061 -2.2499,0.54163 -0.7031,1.71519 2.2859,1.73437 3.0704,1.62636 3.0704,-0.42273 z"
           style="fill:url(#linearGradient11886);fill-opacity:1.0"
           inkscape:connector-curvature="0" />
        <g
           id="g12056"
           style="stroke:none;stroke-opacity:1;fill:url(#linearGradient12105);fill-opacity:1">
          <path
             inkscape:connector-curvature="0"
             style="fill:url(#linearGradient12105);fill-opacity:1;stroke:none;stroke-opacity:1"
             d="m -987.18751,-13.791654 c -13.32809,-4.62997 -25.71439,-17.35306 -52.36049,-53.78439 -7.0418,-9.62787 -15.122,-20.33386 -17.9558,-23.79109 -2.8338,-3.45722 -5.1524,-6.65409 -5.1524,-7.10415 0,-0.45006 2.4737,-0.81829 5.4972,-0.81829 4.667,0 5.8644,-0.36732 7.9294,-2.432306 2.0924,-2.09242 2.4706,-3.36973 2.706,-9.14063 l 0.2736,-6.70831 5.6965,7.5 c 3.133,4.125 10.6846,14.671866 16.7812,23.437496 23.81199,34.2363 32.42589,42.62375 40.78259,39.71057 1.8891,-0.65854 3.4083,-2.31334 4.8957,-5.3327 2.0065,-4.07323 2.1784,-5.75663 2.4701,-24.19138 l 0.3135,-19.81352 8.5927,-0.44144 c 4.726,-0.24281 9.2256,-0.71797 9.999,-1.05593 2.1085,-0.92134 1.8836,51.02607 -0.266,61.42188 -4.0342,19.51069 -15.1184,27.7842496 -30.2028,22.54419 z"
             id="path11620" />
          <g
             id="g11694"
             style="fill:url(#linearGradient12105);fill-opacity:1;stroke:none;stroke-opacity:1">
            <path
               inkscape:connector-curvature="0"
               id="path11618"
               d="m -891.56251,-37.008604 c -1.5468,-0.80162 -4.2108,-2.80293 -5.92,-4.44735 -3.3847,-3.25656 -3.3425,-2.71671 -1.4601,-18.69196 l 0.5246,-4.45208 2.3823,1.87396 c 1.3103,1.03067 3.1544,1.87396 4.0979,1.87396 3.5153,0 4.1522,-3.33524 3.67,-19.21875 -0.965,-31.790936 -0.66,-41.837986 1.3928,-45.872896 1.0313,-2.02697 2.548,-4.093 3.3706,-4.59118 2.5933,-1.5707 6.7885,0.29388 11.3951,5.06473 l 4.4531,4.61188 0,8.48322 c 0,7.75688 0.197,8.68025 2.3011,10.78436 1.6455,1.645456 3.3286,2.301136 5.907,2.301136 3.36,0 3.7495,0.29592 5.7153,4.34195 2.0773,4.27572 2.0822,4.37226 0.3265,6.32813 -0.9807,1.09239 -2.0436,2.72445 -2.362,3.62679 -0.3185,0.90234 -0.9087,1.63869 -1.3116,1.63634 -0.4029,-0.003 -2.722,-3.9047 -5.1536,-8.67187 -7.6185,-14.936006 -13.0498,-19.565546 -14.4153,-12.287116 -0.352,1.87644 -0.2657,10.419406 0.1919,18.984366 1.1019,20.62495 0.919,35.2614 -0.5038,40.33017 -2.2728,8.09679 -8.1706,11.32491 -14.6017,7.99221 z"
               style="fill:url(#linearGradient12105);fill-opacity:1;stroke:none;stroke-opacity:1" />
            <path
               inkscape:connector-curvature="0"
               id="path11616"
               d="m -832.54001,-54.523954 0.04,-4.92187 -6.3685,-0.27813 c -6.0366,-0.26364 -6.4639,-0.43464 -8.1996,-3.28125 -2.6805,-4.39616 -2.3705,-4.91497 2.7252,-4.56161 5.8885,0.40833 11.3462,-2.29039 14.3266,-7.08424 l 2.2038,-3.54477 0.2709,8.7663 c 0.1641,5.31279 -0.1288,9.24776 -0.7435,9.98844 -0.5579,0.67219 -0.7494,2.2779 -0.4255,3.56827 0.6619,2.6371 -0.8972,6.27074 -2.6905,6.27074 -0.8023,0 -1.1661,-1.57247 -1.1389,-4.92188 z"
               style="fill:url(#linearGradient12105);fill-opacity:1;stroke:none;stroke-opacity:1" />
            <path
               inkscape:connector-curvature="0"
               id="path11614"
               d="m -804.32901,-62.492704 c -1.7895,-2.44922 -6.8692,-12.26734 -11.2883,-21.81803 -7.9255,-17.128936 -11.7989,-23.638816 -13.2242,-22.225176 -0.4005,0.39735 -0.6475,4.51063 -0.5487,9.140626 0.099,4.63001 -0.028,8.41821 -0.2825,8.41821 -0.5224,0 -3.6536,-2.46605 -6.2494,-4.92188 -1.8614,-1.76104 -2.369,-5.39062 -0.754,-5.39062 0.5391,0 2.0156,-1.035516 3.2813,-2.301136 2.1522,-2.15223 2.3011,-2.94087 2.3011,-12.1875 0,-5.92431 0.3734,-9.88636 0.9316,-9.88636 0.5124,0 2.1999,1.7508 3.75,3.89066 2.4335,3.35932 2.8184,4.70947 2.8184,9.88636 0,5.1158 0.3377,6.3334 2.3011,8.29684 1.2657,1.26562 3.0765,2.301136 4.0241,2.301136 1.2639,0 2.6922,2.18574 5.3605,8.20312 9.3986,21.19563 11.4786,21.19563 9.5265,0 l -0.7555,-8.20312 2.7285,0 2.7284,0 1.6917,15.97125 c 0.9303,8.78418 1.4483,17.47027 1.151,19.3024 -1.1856,7.30596 -4.8383,7.89215 -9.4916,1.52322 z"
               style="fill:url(#linearGradient12105);fill-opacity:1;stroke:none;stroke-opacity:1" />
            <path
               inkscape:connector-curvature="0"
               id="path11612"
               d="m -777.39271,-65.728714 c -1.63208,-2.02971 -5.91547,-10.93524 -10.7311,-22.31086 -4.2037,-9.93012 -4.4376,-10.87377 -2.9628,-11.95313 0.8807,-0.644526 1.8759,-1.171866 2.2115,-1.171866 0.3356,0 1.7947,3.058586 3.2425,6.796866 3.557,9.18472 6.87459,15.70313 7.9922,15.70313 1.17107,0 1.15962,-0.29251 -0.49507,-12.65625 -1.80566,-13.491836 -1.81571,-13.383206 0.96124,-10.386826 1.95352,2.107886 2.60236,4.302526 3.79051,12.821196 0.78845,5.6529 1.30984,13.32397 1.15865,17.04681 -0.24544,6.04402 -0.48444,6.79876 -2.23192,7.04843 -1.07636,0.15379 -2.39744,-0.26808 -2.93571,-0.9375 z"
               style="fill:url(#linearGradient12105);fill-opacity:1;stroke:none;stroke-opacity:1" />
            <path
               inkscape:connector-curvature="0"
               id="path11610"
               d="m -758.1821,-69.996014 c -2.0263,-2.31116 -3.67315,-5.75629 -8.53782,-17.86056 -3.52349,-8.76719 -4.01542,-10.69186 -2.84732,-11.14011 2.00012,-0.76752 2.64873,0.16773 5.97353,8.61336 3.91058,9.93364 5.10276,10.97155 4.30736,3.75 -0.34075,-3.09375 -0.87041,-7.20704 -1.17703,-9.14063 -0.48715,-3.07218 -0.32198,-3.51562 1.30945,-3.51562 1.67899,0 2.02157,1.15598 3.40347,11.48437 1.86399,13.93164 1.90917,17.03531 0.2678,18.39752 -0.95882,0.79575 -1.61048,0.65373 -2.69944,-0.58833 z"
               style="fill:url(#linearGradient12105);fill-opacity:1;stroke:none;stroke-opacity:1" />
            <path
               inkscape:connector-curvature="0"
               id="path11606"
               d="m -744.20383,-73.787984 c -1.4372,-1.58809 -10.01488,-22.72163 -10.01488,-24.67448 0,-0.53054 0.68077,-0.82819 1.51283,-0.66148 0.88014,0.17635 2.36844,2.65556 3.55874,5.92812 1.12526,3.09375 2.54103,6.46875 3.14617,7.5 1.059,1.80472 1.10131,1.8076 1.12875,0.0768 0.0157,-0.98901 -0.44276,-4.50446 -1.01876,-7.8121 -0.76191,-4.37515 -0.76616,-6.29501 -0.0157,-7.045536 0.5674,-0.56741 1.2367,-0.82661 1.48732,-0.57598 0.73912,0.73912 3.32558,19.197226 3.32558,23.732826 0,4.77654 -0.97829,5.88749 -3.11012,3.53184 z"
               style="fill:url(#linearGradient12105);fill-opacity:1;stroke:none;stroke-opacity:1" />
            <path
               inkscape:connector-curvature="0"
               id="path11604"
               d="m -734.31425,-79.872654 c -3.1003,-6.26356 -8.64042,-21.555706 -8.64777,-23.870046 -0.0141,-4.43395 1.75135,-1.744 5.22991,7.968746 3.94185,11.00634 4.99145,10.95439 2.89599,-0.14333 -1.12788,-5.973306 -1.13902,-7.122286 -0.0691,-7.122286 0.70166,0 1.46695,0.94921 1.70061,2.10937 2.04336,10.145196 3.01418,23.664826 1.7552,24.442916 -0.50085,0.30955 -1.79004,-1.21387 -2.86487,-3.38537 z"
               style="fill:url(#linearGradient12105);fill-opacity:1;stroke:none;stroke-opacity:1" />
            <path
               inkscape:connector-curvature="0"
               id="path11602"
               d="m -928.90261,-88.998994 c -2.4511,-4.09017 -5.9393,-9.37903 -7.7514,-11.753016 -1.8121,-2.37398 -3.1656,-4.64329 -3.0078,-5.04289 0.1578,-0.39961 2.2939,-2.94533 4.7469,-5.65718 5.498,-6.07819 7.2587,-5.47758 7.2587,2.47616 0,4.14791 0.4237,5.5078 2.3011,7.38521 1.2657,1.26562 3.1703,2.301136 4.2326,2.301136 1.1721,0 2.6631,1.19769 3.7927,3.04687 l 1.8614,3.04688 -3.5158,0.46875 c -3.4715,0.46285 -3.5219,0.52992 -4.0051,5.3331 -0.2691,2.6754 -0.707,5.082 -0.973,5.348 -0.266,0.26601 -2.4891,-2.86285 -4.9403,-6.95302 z"
               style="fill:url(#linearGradient12105);fill-opacity:1;stroke:none;stroke-opacity:1" />
            <path
               inkscape:connector-curvature="0"
               id="path11210"
               d="m -728.90621,-92.539574 c 0,-0.92813 -0.36741,-2.08829 -0.81646,-2.57813 -1.33407,-1.45524 -2.23935,-6.307896 -1.03829,-5.565606 1.99047,1.230176 4.52224,9.831236 2.89388,9.831236 -0.57152,0 -1.03913,-0.75938 -1.03913,-1.6875 z"
               style="fill:url(#linearGradient12105);fill-opacity:1;stroke:none;stroke-opacity:1" />
          </g>
        </g>
      </g>
    </g>
  </g>
</svg>
